<svg width="31" height="27" viewBox="0 0 31 27" fill="none" xmlns="http://www.w3.org/2000/svg">
<path fill-rule="evenodd" clip-rule="evenodd" d="M9.74516 0C9.19978 0 8.97671 0.396295 9.2494 0.881041L10.5478 3.18716C10.8205 3.67141 11.4897 4.06771 12.0351 4.06771H22.5371C23.082 4.06771 23.3046 4.46351 23.0309 4.94776L15.5136 18.2395C15.2404 18.7237 14.7919 18.7247 14.5173 18.241L4.64496 0.87857C4.37034 0.395307 3.69969 0 3.15383 0H0.610953C0.0660512 0 -0.156535 0.396295 0.117121 0.880053L14.5197 26.3477C14.7928 26.8315 15.2404 26.8315 15.5136 26.3477L29.9162 0.880053C30.1898 0.396295 29.9677 0 29.4223 0H9.74516Z" fill="#2727E6"/>
</svg>
