<svg width="72" height="72" viewBox="0 0 72 72" fill="none" xmlns="http://www.w3.org/2000/svg">
<path d="M23.7426 13.7574C26.0858 16.1005 26.0858 19.8995 23.7426 22.2426C21.3995 24.5858 17.6005 24.5858 15.2574 22.2426C12.9142 19.8995 12.9142 16.1005 15.2574 13.7574C17.6005 11.4142 21.3995 11.4142 23.7426 13.7574" stroke="#1F1FDE" stroke-width="2" stroke-linecap="round" stroke-linejoin="round"/>
<path d="M36.702 54H25.881C21.528 54 18 49.971 18 45.003V44.994C18 40.026 21.528 35.997 25.881 35.997H46.116C50.469 35.997 53.997 31.968 53.997 27C54 22.023 50.466 17.994 46.11 18L33.75 18.015" stroke="#1F1FDE" stroke-width="2" stroke-linecap="round" stroke-linejoin="round"/>
<path d="M49.02 60.5521L57.687 55.4251C58.77 54.7831 58.77 53.2141 57.687 52.5751L49.02 47.4481C47.907 46.7881 46.5 47.5921 46.5 48.8851V59.1151C46.5 60.4081 47.907 61.2121 49.02 60.5521Z" stroke="#1F1FDE" stroke-width="2" stroke-linecap="round" stroke-linejoin="round"/>
</svg>
