<svg width="168" height="32" viewBox="0 0 168 32" fill="none" xmlns="http://www.w3.org/2000/svg">
<path d="M59.2219 16.2349C60.0464 16.5051 60.7003 16.9602 61.1836 17.6002C61.6669 18.226 61.9085 19.0082 61.9085 19.9469C61.9085 21.2411 61.411 22.2438 60.416 22.9549C59.421 23.6518 57.9711 24.0002 56.0663 24.0002H48.6462V9.0669H55.6399C57.4025 9.0669 58.76 9.41534 59.7124 10.1122C60.6647 10.7949 61.1409 11.7407 61.1409 12.9496C61.1409 13.6891 60.9704 14.3433 60.6292 14.9122C60.288 15.4811 59.819 15.922 59.2219 16.2349ZM51.4181 11.2429V15.3602H55.3413C56.3079 15.3602 57.0471 15.1896 57.5588 14.8482C58.0848 14.4927 58.3477 13.9807 58.3477 13.3122C58.3477 12.6296 58.0848 12.1176 57.5588 11.7762C57.0471 11.4207 56.3079 11.2429 55.3413 11.2429H51.4181ZM55.8957 21.8242C58.0421 21.8242 59.1153 21.106 59.1153 19.6696C59.1153 18.2331 58.0421 17.5149 55.8957 17.5149H51.4181V21.8242H55.8957Z" fill="#343447"/>
<path d="M69.7282 24.1496C68.5768 24.1496 67.5391 23.9007 66.6152 23.4029C65.6912 22.9051 64.9663 22.2153 64.4403 21.3336C63.9286 20.4376 63.6727 19.4278 63.6727 18.3042C63.6727 17.1807 63.9286 16.178 64.4403 15.2962C64.9663 14.4145 65.6912 13.7247 66.6152 13.2269C67.5391 12.7291 68.5768 12.4802 69.7282 12.4802C70.8938 12.4802 71.9386 12.7291 72.8625 13.2269C73.7865 13.7247 74.5043 14.4145 75.016 15.2962C75.542 16.178 75.805 17.1807 75.805 18.3042C75.805 19.4278 75.542 20.4376 75.016 21.3336C74.5043 22.2153 73.7865 22.9051 72.8625 23.4029C71.9386 23.9007 70.8938 24.1496 69.7282 24.1496ZM69.7282 21.8669C70.709 21.8669 71.5192 21.5398 72.1589 20.8856C72.7986 20.2313 73.1184 19.3709 73.1184 18.3042C73.1184 17.2376 72.7986 16.3771 72.1589 15.7229C71.5192 15.0687 70.709 14.7416 69.7282 14.7416C68.7474 14.7416 67.9371 15.0687 67.2975 15.7229C66.672 16.3771 66.3593 17.2376 66.3593 18.3042C66.3593 19.3709 66.672 20.2313 67.2975 20.8856C67.9371 21.5398 68.7474 21.8669 69.7282 21.8669Z" fill="#343447"/>
<path d="M82.5575 12.4802C84.2349 12.4802 85.5142 12.8856 86.3955 13.6962C87.291 14.4927 87.7388 15.7016 87.7388 17.3229V24.0002H85.2228V22.6136C84.8958 23.1113 84.4268 23.4953 83.8155 23.7656C83.2185 24.0216 82.4936 24.1496 81.6407 24.1496C80.7878 24.1496 80.0415 24.0073 79.4019 23.7229C78.7622 23.4242 78.2647 23.0189 77.9093 22.5069C77.5682 21.9807 77.3976 21.3905 77.3976 20.7362C77.3976 19.7122 77.7743 18.8945 78.5277 18.2829C79.2953 17.6571 80.4964 17.3442 82.1311 17.3442H85.0735V17.1736C85.0735 16.3771 84.8319 15.7656 84.3486 15.3389C83.8795 14.9122 83.1759 14.6989 82.2377 14.6989C81.598 14.6989 80.9655 14.7985 80.34 14.9976C79.7288 15.1967 79.21 15.474 78.7835 15.8296L77.7388 13.8882C78.3358 13.4331 79.0536 13.0847 79.8923 12.8429C80.731 12.6011 81.6194 12.4802 82.5575 12.4802ZM82.1951 22.2082C82.8632 22.2082 83.4531 22.0589 83.9648 21.7602C84.4907 21.4473 84.8603 21.0065 85.0735 20.4376V19.1149H82.323C80.7878 19.1149 80.0202 19.6198 80.0202 20.6296C80.0202 21.1131 80.2121 21.4971 80.5959 21.7816C80.9797 22.066 81.5128 22.2082 82.1951 22.2082Z" fill="#343447"/>
<path d="M93.6966 14.2722C94.4642 13.0776 95.8146 12.4802 97.7478 12.4802V15.0189C97.5204 14.9762 97.3142 14.9549 97.1294 14.9549C96.0918 14.9549 95.2815 15.2607 94.6987 15.8722C94.1159 16.4696 93.8245 17.3371 93.8245 18.4749V24.0002H91.1593V12.6082H93.6966V14.2722Z" fill="#343447"/>
<path d="M111.056 8.1709V24.0002H108.497V22.5282C108.057 23.0687 107.509 23.474 106.856 23.7442C106.216 24.0145 105.505 24.1496 104.723 24.1496C103.629 24.1496 102.641 23.9078 101.76 23.4242C100.893 22.9407 100.21 22.258 99.7127 21.3762C99.2152 20.4802 98.9665 19.4562 98.9665 18.3042C98.9665 17.1522 99.2152 16.1353 99.7127 15.2536C100.21 14.3718 100.893 13.6891 101.76 13.2056C102.641 12.722 103.629 12.4802 104.723 12.4802C105.477 12.4802 106.166 12.6082 106.792 12.8642C107.417 13.1202 107.95 13.5042 108.391 14.0162V8.1709H111.056ZM105.043 21.8669C105.683 21.8669 106.259 21.7247 106.77 21.4402C107.282 21.1416 107.687 20.722 107.986 20.1816C108.284 19.6411 108.433 19.0153 108.433 18.3042C108.433 17.5931 108.284 16.9673 107.986 16.4269C107.687 15.8865 107.282 15.474 106.77 15.1896C106.259 14.8909 105.683 14.7416 105.043 14.7416C104.404 14.7416 103.828 14.8909 103.316 15.1896C102.804 15.474 102.399 15.8865 102.101 16.4269C101.802 16.9673 101.653 17.5931 101.653 18.3042C101.653 19.0153 101.802 19.6411 102.101 20.1816C102.399 20.722 102.804 21.1416 103.316 21.4402C103.828 21.7247 104.404 21.8669 105.043 21.8669Z" fill="#343447"/>
<path d="M119.767 24.1496C118.587 24.1496 117.528 23.9007 116.59 23.4029C115.651 22.9051 114.919 22.2153 114.393 21.3336C113.867 20.4376 113.605 19.4278 113.605 18.3042C113.605 17.1807 113.867 16.178 114.393 15.2962C114.919 14.4145 115.644 13.7247 116.568 13.2269C117.506 12.7291 118.573 12.4802 119.767 12.4802C120.89 12.4802 121.87 12.7078 122.709 13.1629C123.562 13.618 124.202 14.2722 124.628 15.1256L122.581 16.3202C122.254 15.794 121.842 15.4029 121.344 15.1469C120.861 14.8767 120.328 14.7416 119.745 14.7416C118.75 14.7416 117.926 15.0687 117.272 15.7229C116.618 16.3629 116.291 17.2233 116.291 18.3042C116.291 19.3851 116.611 20.2527 117.251 20.9069C117.904 21.5469 118.736 21.8669 119.745 21.8669C120.328 21.8669 120.861 21.7389 121.344 21.4829C121.842 21.2127 122.254 20.8145 122.581 20.2882L124.628 21.4829C124.187 22.3362 123.541 22.9976 122.688 23.4669C121.849 23.922 120.875 24.1496 119.767 24.1496Z" fill="#343447"/>
<path d="M129.469 14.2722C130.237 13.0776 131.587 12.4802 133.52 12.4802V15.0189C133.293 14.9762 133.087 14.9549 132.902 14.9549C131.864 14.9549 131.054 15.2607 130.471 15.8722C129.889 16.4696 129.597 17.3371 129.597 18.4749V24.0002H126.932V12.6082H129.469V14.2722Z" fill="#343447"/>
<path d="M150.152 12.4802C151.588 12.4802 152.725 12.8998 153.564 13.7389C154.403 14.5638 154.822 15.8082 154.822 17.4722V24.0002H152.157V17.8136C152.157 16.818 151.936 16.0713 151.496 15.5736C151.055 15.0616 150.422 14.8056 149.598 14.8056C148.703 14.8056 147.985 15.1042 147.445 15.7016C146.904 16.2847 146.634 17.1238 146.634 18.2189V24.0002H143.969V17.8136C143.969 16.818 143.749 16.0713 143.308 15.5736C142.867 15.0616 142.235 14.8056 141.41 14.8056C140.501 14.8056 139.776 15.0971 139.236 15.6802C138.71 16.2633 138.447 17.1096 138.447 18.2189V24.0002H135.781V12.6082H138.319V14.0589C138.745 13.5469 139.278 13.1558 139.918 12.8856C140.558 12.6153 141.268 12.4802 142.05 12.4802C142.903 12.4802 143.656 12.6438 144.31 12.9709C144.978 13.2838 145.504 13.7531 145.888 14.3789C146.357 13.7816 146.961 13.3193 147.7 12.9922C148.44 12.6509 149.257 12.4802 150.152 12.4802Z" fill="#343447"/>
<path fill-rule="evenodd" clip-rule="evenodd" d="M11.675 0C11.0216 0 10.7544 0.474774 11.0811 1.05551L12.6366 3.81832C12.9633 4.39846 13.765 4.87324 14.4184 4.87324H27.0001C27.6529 4.87324 27.9196 5.34742 27.5917 5.92757L18.5858 21.8514C18.2585 22.4316 17.7211 22.4328 17.3921 21.8532L5.5648 1.05255C5.2358 0.47359 4.43234 0 3.77838 0H0.73194C0.0791313 0 -0.187533 0.474774 0.140314 1.05433L17.395 31.5653C17.7223 32.1449 18.2585 32.1449 18.5858 31.5653L35.8404 1.05433C36.1683 0.474774 35.9022 0 35.2488 0H11.675Z" fill="#2727E6"/>
<path d="M164.233 0.466797C164.828 0.466797 165.356 0.564575 165.818 0.760131C166.28 0.946797 166.64 1.2268 166.898 1.60013C167.164 1.97346 167.298 2.44458 167.298 3.01347C167.298 3.65346 167.124 4.16013 166.778 4.53346C166.431 4.9068 165.929 5.1468 165.272 5.25346V5.3068C166.08 5.39569 166.689 5.65791 167.098 6.09347C167.515 6.52902 167.724 7.15124 167.724 7.96013C167.724 8.87569 167.435 9.57791 166.858 10.0668C166.289 10.5557 165.494 10.8001 164.472 10.8001C163.957 10.8001 163.522 10.7601 163.166 10.6801C162.82 10.6001 162.505 10.489 162.22 10.3468V13.8668H161.048V3.53346C161.048 2.81346 161.185 2.23124 161.461 1.7868C161.736 1.33346 162.114 1.00013 162.593 0.786797C163.073 0.573463 163.62 0.466797 164.233 0.466797ZM164.206 1.44013C163.851 1.44013 163.522 1.50235 163.22 1.6268C162.918 1.75124 162.673 1.96902 162.487 2.28013C162.309 2.59124 162.22 3.0268 162.22 3.5868V9.29347C162.531 9.45347 162.851 9.5868 163.18 9.69347C163.517 9.79124 163.913 9.84013 164.366 9.84013C165.13 9.84013 165.685 9.67124 166.032 9.33347C166.378 8.99569 166.551 8.51124 166.551 7.88013C166.551 7.17791 166.338 6.6668 165.912 6.3468C165.485 6.01791 164.926 5.85346 164.233 5.85346H163.526V4.8668H164.099C164.792 4.8668 165.299 4.70235 165.619 4.37346C165.938 4.04458 166.098 3.60902 166.098 3.0668C166.098 2.51569 165.925 2.1068 165.579 1.84013C165.232 1.57346 164.775 1.44013 164.206 1.44013Z" fill="#343447"/>
</svg>
