<svg width="376" height="434" viewBox="0 0 376 434" fill="none" xmlns="http://www.w3.org/2000/svg">
<path fill-rule="evenodd" clip-rule="evenodd" d="M205.868 135.531L195.633 140.483L189.51 143.357L191.51 147.425L185.384 151.18L194.57 165.413L217.899 151.459L205.868 135.531Z" fill="white"/>
<path fill-rule="evenodd" clip-rule="evenodd" d="M185.938 151.306L194.695 164.878L217.318 151.345L205.749 136.028L195.806 140.84L190.044 143.544L191.865 147.251C191.957 147.433 191.891 147.655 191.718 147.762L185.938 151.306ZM194.571 165.81C194.44 165.81 194.313 165.744 194.238 165.627L185.052 151.394L184.999 151.093L185.178 150.844L190.996 147.276L189.155 143.531L189.138 143.226L189.342 143L195.465 140.126L205.697 135.174C205.865 135.092 206.071 135.141 206.185 135.291L218.216 151.222L218.289 151.534L218.103 151.799L194.774 165.753L194.571 165.81Z" fill="#2727E6"/>
<path fill-rule="evenodd" clip-rule="evenodd" d="M187.347 154.398C187.206 154.398 187.069 154.323 186.995 154.192C186.886 153.997 186.955 153.752 187.149 153.643L194.749 149.362C194.941 149.256 195.189 149.32 195.298 149.516C195.408 149.709 195.339 149.955 195.144 150.064L187.544 154.345L187.347 154.398Z" fill="#2727E6"/>
<path fill-rule="evenodd" clip-rule="evenodd" d="M190.05 158.082C189.909 158.082 189.773 158.009 189.698 157.876C189.589 157.683 189.658 157.437 189.852 157.327L197.454 153.046C197.644 152.939 197.892 153.003 198.001 153.2C198.111 153.394 198.043 153.639 197.848 153.749L190.247 158.03L190.05 158.082Z" fill="#2727E6"/>
<path fill-rule="evenodd" clip-rule="evenodd" d="M192.456 161.93C192.315 161.93 192.178 161.857 192.104 161.724C191.994 161.531 192.063 161.285 192.257 161.176L199.858 156.895C200.049 156.789 200.297 156.852 200.407 157.048C200.516 157.243 200.447 157.488 200.253 157.597L192.653 161.878L192.456 161.93Z" fill="#2727E6"/>
<path fill-rule="evenodd" clip-rule="evenodd" d="M188.559 149.517C188.419 149.517 188.284 149.443 188.209 149.314C188.099 149.121 188.166 148.875 188.359 148.764L193.987 145.544C194.179 145.434 194.425 145.501 194.537 145.693C194.648 145.886 194.58 146.133 194.387 146.243L188.76 149.464L188.559 149.517Z" fill="#2727E6"/>
<path fill-rule="evenodd" clip-rule="evenodd" d="M246.952 100.706C239.903 121.779 202.903 131.768 202.903 131.768L205.869 135.531L218.354 154.69C218.354 154.69 249.548 147.973 264.826 128.704L246.952 100.706Z" fill="#2727E6"/>
<path fill-rule="evenodd" clip-rule="evenodd" d="M312.361 328C311.241 328 309 328.065 309 325.201C309 319.1 323.21 313 323.21 313H339V328C339 328 322.764 328 312.361 328Z" fill="#2727E6"/>
<path fill-rule="evenodd" clip-rule="evenodd" d="M267.361 328C266.241 328 264 328.065 264 325.201C264 319.1 278.21 313 278.21 313H294V328C294 328 277.764 328 267.361 328Z" fill="#2727E6"/>
<path fill-rule="evenodd" clip-rule="evenodd" d="M341.855 341H261.144C261.064 341 260.999 337.856 260.999 333.989C260.999 330.121 261.064 327 261.144 327H341.855C341.935 327 341.999 330.121 341.999 333.989C341.999 337.856 341.935 341 341.855 341Z" fill="#2727E6"/>
<path fill-rule="evenodd" clip-rule="evenodd" d="M329.901 408H275.097C275.043 408 274.999 406.653 274.999 404.995C274.999 403.338 275.043 402 275.097 402H329.901C329.955 402 329.999 403.338 329.999 404.995C329.999 406.653 329.955 408 329.901 408Z" fill="#2727E6"/>
<path fill-rule="evenodd" clip-rule="evenodd" d="M325.999 433L325.999 329.186C325.999 329.083 327.571 329 329.505 329C331.439 329 332.999 329.083 332.999 329.186L332.999 433C332.999 433.034 325.999 433.034 325.999 433Z" fill="#2727E6"/>
<path fill-rule="evenodd" clip-rule="evenodd" d="M351.785 434H231.216C231.097 434 231 433.776 231 433.499C231 433.223 231.097 433 231.216 433H351.785C351.904 433 352 433.223 352 433.499C352 433.776 351.904 434 351.785 434Z" fill="#2727E6"/>
<path fill-rule="evenodd" clip-rule="evenodd" d="M270.999 433L270.999 329.186C270.999 329.083 272.571 329 274.505 329C276.439 329 277.999 329.083 277.999 329.186L277.999 433.096C277.999 433.335 270.999 433.239 270.999 433Z" fill="#2727E6"/>
<path d="M346.5 195C347.893 187.741 351 176.5 351 176.5L291 175.5C291 175.5 281.771 181.053 280.5 187C278.054 198.444 307.5 200 307.5 200C307.5 200 297 246.358 316.678 314.5C333.355 313.873 343.763 312.402 343.763 312.402C343.763 312.402 339.258 272.239 340 246.358C340.742 220.477 342.689 214.854 346.5 195Z" fill="#FCCBBB"/>
<path d="M306 186.5L268.461 179.018C268.461 179.018 248.069 240.48 268.609 313.218C285.276 314.16 295.776 313.661 295.776 313.661C295.776 313.661 294.946 272.78 298.042 246.781C301.138 220.781 306 186.5 306 186.5Z" fill="#FCCBBB"/>
<path fill-rule="evenodd" clip-rule="evenodd" d="M352.55 177.129H260.692V120.597L352.55 134.833V177.129Z" fill="#2727E6"/>
<path fill-rule="evenodd" clip-rule="evenodd" d="M246.351 109.001C246.351 77.2614 270.672 63.1049 302.419 62.3477C303.069 62.3334 303.723 62.3256 304.387 62.3256C329.063 62.3256 354.97 74.9743 359.974 100.976C362.48 114.001 363.45 128.911 358.154 141.416C352.35 155.114 339.81 164.05 326.481 169.692C312.736 175.51 319.456 169.189 312.116 165.413C299.324 158.835 294.713 157.19 294.713 157.19L246.351 109.001Z" fill="#2727E6"/>
<path fill-rule="evenodd" clip-rule="evenodd" d="M314.685 33.5526C314.685 33.5526 326.723 20.0409 319.755 13.5187C312.788 6.99643 285.011 -2.39732 281.617 2.26972C277.695 7.6632 287.452 24.0161 287.452 24.0161L314.685 33.5526Z" fill="#2727E6"/>
<path d="M285.036 43.4295V25.9677C285.036 8.50585 314.173 5.01353 314.173 25.9677L314.136 31.7223C316.256 31.7223 320 31.9702 320 36.3356C320 40.7011 315.056 40.7011 312.583 40.1554V64.1653C312.583 73.9876 294.572 73.9876 294.572 64.1653V57.769C292.453 57.5527 290.401 56.6782 288.744 55.0956C286.318 52.7778 284.739 48.9413 285.036 43.4295Z" fill="white"/>
<path d="M306.756 45.6122C306.756 53.9651 300.409 58.3651 294.572 57.769M294.572 57.769C292.453 57.5527 290.401 56.6781 288.744 55.0956C286.318 52.7778 284.739 48.9413 285.036 43.4295V25.9677C285.036 8.50585 314.173 5.01353 314.173 25.9677L314.136 31.7223C316.256 31.7223 320 31.9702 320 36.3356C320 40.7011 315.056 40.7011 312.583 40.1554V64.1653C312.583 73.9876 294.572 73.9876 294.572 64.1653V57.769ZM313.607 34.4505C315.196 34.4505 317.315 34.4505 317.315 36.6334" stroke="#2727E6" stroke-linecap="round"/>
<path fill-rule="evenodd" clip-rule="evenodd" d="M1 119C1 116.791 2.79086 115 5 115H290C292.209 115 294 116.791 294 119V177C294 179.209 292.209 181 290 181H4.99999C2.79085 181 1 179.209 1 177V119Z" fill="white" stroke="#F5F5F7"/>
<path d="M68.136 144.726V147.708H72.868V149.248H68.136V153H66.316V143.2H73.47V144.726H68.136ZM77.6856 145.44C78.787 145.44 79.627 145.706 80.2056 146.238C80.7936 146.761 81.0876 147.554 81.0876 148.618V153H79.4356V152.09C79.221 152.417 78.913 152.669 78.5116 152.846C78.1196 153.014 77.6436 153.098 77.0836 153.098C76.5236 153.098 76.0336 153.005 75.6136 152.818C75.1936 152.622 74.867 152.356 74.6336 152.02C74.4096 151.675 74.2976 151.287 74.2976 150.858C74.2976 150.186 74.545 149.649 75.0396 149.248C75.5436 148.837 76.3323 148.632 77.4056 148.632H79.3376V148.52C79.3376 147.997 79.179 147.596 78.8616 147.316C78.5536 147.036 78.0916 146.896 77.4756 146.896C77.0556 146.896 76.6403 146.961 76.2296 147.092C75.8283 147.223 75.4876 147.405 75.2076 147.638L74.5216 146.364C74.9136 146.065 75.385 145.837 75.9356 145.678C76.4863 145.519 77.0696 145.44 77.6856 145.44ZM77.4476 151.824C77.8863 151.824 78.2736 151.726 78.6096 151.53C78.955 151.325 79.1976 151.035 79.3376 150.662V149.794H77.5316C76.5236 149.794 76.0196 150.125 76.0196 150.788C76.0196 151.105 76.1456 151.357 76.3976 151.544C76.6496 151.731 76.9996 151.824 77.4476 151.824ZM86.8319 153.098C86.0572 153.098 85.3619 152.935 84.7459 152.608C84.1299 152.281 83.6492 151.829 83.3039 151.25C82.9586 150.662 82.7859 149.999 82.7859 149.262C82.7859 148.525 82.9586 147.867 83.3039 147.288C83.6492 146.709 84.1252 146.257 84.7319 145.93C85.3479 145.603 86.0479 145.44 86.8319 145.44C87.5692 145.44 88.2132 145.589 88.7639 145.888C89.3239 146.187 89.7439 146.616 90.0239 147.176L88.6799 147.96C88.4652 147.615 88.1946 147.358 87.8679 147.19C87.5506 147.013 87.2006 146.924 86.8179 146.924C86.1646 146.924 85.6232 147.139 85.1939 147.568C84.7646 147.988 84.5499 148.553 84.5499 149.262C84.5499 149.971 84.7599 150.541 85.1799 150.97C85.6092 151.39 86.1552 151.6 86.8179 151.6C87.2006 151.6 87.5506 151.516 87.8679 151.348C88.1946 151.171 88.4652 150.909 88.6799 150.564L90.0239 151.348C89.7346 151.908 89.3099 152.342 88.7499 152.65C88.1992 152.949 87.5599 153.098 86.8319 153.098ZM98.4553 149.304C98.4553 149.425 98.446 149.598 98.4273 149.822H92.5613C92.664 150.373 92.93 150.811 93.3593 151.138C93.798 151.455 94.3393 151.614 94.9833 151.614C95.8046 151.614 96.4813 151.343 97.0133 150.802L97.9513 151.88C97.6153 152.281 97.1906 152.585 96.6773 152.79C96.164 152.995 95.5853 153.098 94.9413 153.098C94.12 153.098 93.3966 152.935 92.7713 152.608C92.146 152.281 91.6606 151.829 91.3153 151.25C90.9793 150.662 90.8113 149.999 90.8113 149.262C90.8113 148.534 90.9746 147.881 91.3013 147.302C91.6373 146.714 92.0993 146.257 92.6873 145.93C93.2753 145.603 93.938 145.44 94.6753 145.44C95.4033 145.44 96.052 145.603 96.6213 145.93C97.2 146.247 97.648 146.7 97.9653 147.288C98.292 147.867 98.4553 148.539 98.4553 149.304ZM94.6753 146.84C94.1153 146.84 93.6393 147.008 93.2473 147.344C92.8646 147.671 92.6313 148.109 92.5473 148.66H96.7893C96.7146 148.119 96.486 147.68 96.1033 147.344C95.7206 147.008 95.2446 146.84 94.6753 146.84ZM104.28 145.44C105.008 145.44 105.657 145.599 106.226 145.916C106.805 146.233 107.258 146.681 107.584 147.26C107.911 147.839 108.074 148.506 108.074 149.262C108.074 150.018 107.911 150.69 107.584 151.278C107.258 151.857 106.805 152.305 106.226 152.622C105.657 152.939 105.008 153.098 104.28 153.098C103.767 153.098 103.296 153.009 102.866 152.832C102.446 152.655 102.092 152.389 101.802 152.034V153H100.136V142.612H101.886V146.434C102.185 146.107 102.535 145.86 102.936 145.692C103.347 145.524 103.795 145.44 104.28 145.44ZM104.084 151.6C104.728 151.6 105.256 151.385 105.666 150.956C106.086 150.527 106.296 149.962 106.296 149.262C106.296 148.562 106.086 147.997 105.666 147.568C105.256 147.139 104.728 146.924 104.084 146.924C103.664 146.924 103.286 147.022 102.95 147.218C102.614 147.405 102.348 147.675 102.152 148.03C101.956 148.385 101.858 148.795 101.858 149.262C101.858 149.729 101.956 150.139 102.152 150.494C102.348 150.849 102.614 151.124 102.95 151.32C103.286 151.507 103.664 151.6 104.084 151.6ZM113.094 153.098C112.338 153.098 111.657 152.935 111.05 152.608C110.443 152.281 109.967 151.829 109.622 151.25C109.286 150.662 109.118 149.999 109.118 149.262C109.118 148.525 109.286 147.867 109.622 147.288C109.967 146.709 110.443 146.257 111.05 145.93C111.657 145.603 112.338 145.44 113.094 145.44C113.859 145.44 114.545 145.603 115.152 145.93C115.759 146.257 116.23 146.709 116.566 147.288C116.911 147.867 117.084 148.525 117.084 149.262C117.084 149.999 116.911 150.662 116.566 151.25C116.23 151.829 115.759 152.281 115.152 152.608C114.545 152.935 113.859 153.098 113.094 153.098ZM113.094 151.6C113.738 151.6 114.27 151.385 114.69 150.956C115.11 150.527 115.32 149.962 115.32 149.262C115.32 148.562 115.11 147.997 114.69 147.568C114.27 147.139 113.738 146.924 113.094 146.924C112.45 146.924 111.918 147.139 111.498 147.568C111.087 147.997 110.882 148.562 110.882 149.262C110.882 149.962 111.087 150.527 111.498 150.956C111.918 151.385 112.45 151.6 113.094 151.6ZM122.117 153.098C121.361 153.098 120.68 152.935 120.073 152.608C119.467 152.281 118.991 151.829 118.645 151.25C118.309 150.662 118.141 149.999 118.141 149.262C118.141 148.525 118.309 147.867 118.645 147.288C118.991 146.709 119.467 146.257 120.073 145.93C120.68 145.603 121.361 145.44 122.117 145.44C122.883 145.44 123.569 145.603 124.175 145.93C124.782 146.257 125.253 146.709 125.589 147.288C125.935 147.867 126.107 148.525 126.107 149.262C126.107 149.999 125.935 150.662 125.589 151.25C125.253 151.829 124.782 152.281 124.175 152.608C123.569 152.935 122.883 153.098 122.117 153.098ZM122.117 151.6C122.761 151.6 123.293 151.385 123.713 150.956C124.133 150.527 124.343 149.962 124.343 149.262C124.343 148.562 124.133 147.997 123.713 147.568C123.293 147.139 122.761 146.924 122.117 146.924C121.473 146.924 120.941 147.139 120.521 147.568C120.111 147.997 119.905 148.562 119.905 149.262C119.905 149.962 120.111 150.527 120.521 150.956C120.941 151.385 121.473 151.6 122.117 151.6ZM130.833 149.794L129.531 151.026V153H127.781V142.612H129.531V148.884L133.157 145.524H135.257L132.135 148.66L135.551 153H133.423L130.833 149.794Z" fill="#343447"/>
<path fill-rule="evenodd" clip-rule="evenodd" d="M35 142C35 141.444 35.4477 141 36 141C36.5561 141 37 141.448 37 142C37 142.556 36.5523 143 36 143C35.4439 143 35 142.552 35 142ZM29 142C29 141.444 29.4477 141 30 141C30.5561 141 31 141.448 31 142C31 142.556 30.5523 143 30 143C29.4439 143 29 142.552 29 142ZM35 148C35 147.444 35.4477 147 36 147C36.5561 147 37 147.448 37 148C37 148.556 36.5523 149 36 149C35.4439 149 35 148.552 35 148ZM29 148C29 147.444 29.4477 147 30 147C30.5561 147 31 147.448 31 148C31 148.556 30.5523 149 30 149C29.4439 149 29 148.552 29 148ZM29 154C29 153.444 29.4477 153 30 153C30.5561 153 31 153.448 31 154C31 154.556 30.5523 155 30 155C29.4439 155 29 154.552 29 154ZM35 154C35 153.444 35.4477 153 36 153C36.5561 153 37 153.448 37 154C37 154.556 36.5523 155 36 155C35.4439 155 35 154.552 35 154Z" fill="#8686A2"/>
<path fill-rule="evenodd" clip-rule="evenodd" d="M296.341 30.7058C296.182 30.7416 296.007 30.689 295.896 30.5535C295.889 30.546 295.226 29.756 294.343 29.7042C293.84 29.6735 293.347 29.8889 292.869 30.3419C292.686 30.5126 292.405 30.5048 292.235 30.326C292.065 30.1459 292.072 29.8617 292.251 29.6919C292.921 29.0558 293.645 28.7615 294.404 28.8086C295.681 28.8904 296.553 29.9396 296.589 29.9851C296.746 30.1755 296.717 30.4571 296.527 30.6132L296.341 30.7058Z" fill="#2727E6"/>
<circle r="4.65417" transform="matrix(-0.845503 -0.533971 -0.533971 0.845503 299.816 33.5974)" fill="#2727E6"/>
<circle r="4.65417" transform="matrix(-0.845503 -0.533971 -0.533971 0.845503 288.305 31.8983)" fill="#2727E6"/>
<path d="M273.117 171.062L290.127 163.914L298.732 175.899C295.106 178.857 286.631 184.74 284.158 185.89C281.734 187.017 280.514 185.159 280.226 184.126C278.607 184.974 276.338 183.808 276.42 182.102C274.778 182.596 273.079 180.652 273.011 179.739C270.26 180.846 268.701 179.009 268.537 177.752L276.017 173.519C274.088 173.204 273.282 172.319 273.117 171.062Z" fill="white"/>
<path d="M276.017 173.519C274.088 173.204 273.282 172.319 273.117 171.062L290.127 163.914L298.732 175.899C295.106 178.857 286.631 184.74 284.158 185.89C281.734 187.017 280.514 185.159 280.226 184.126M276.017 173.519L280.852 170.939M276.017 173.519L268.537 177.752C268.701 179.009 270.26 180.846 273.011 179.739M273.011 179.739C274.948 178.708 278.35 177.041 279.745 176.061M273.011 179.739C273.079 180.652 274.778 182.596 276.42 182.102M276.42 182.102C278.062 181.608 280.729 180.498 282.125 179.518M276.42 182.102C276.338 183.808 278.607 184.974 280.226 184.126M280.226 184.126C281.845 183.278 279.263 184.584 284.18 182.009" stroke="#2727E6" stroke-linecap="round"/>
<path fill-rule="evenodd" clip-rule="evenodd" d="M329.368 120.597C332.238 148.924 293.5 161.5 293.5 161.5L288.336 163.635L298.5 179.5C298.5 179.5 332.015 176.077 347.294 156.808L329.368 120.597Z" fill="#2727E6"/>
<path fill-rule="evenodd" clip-rule="evenodd" d="M298.515 180.013C298.276 180.013 298.064 179.847 298.012 179.606C297.952 179.329 298.129 179.055 298.407 178.995C298.717 178.93 329.598 172.095 344.584 153.194C344.763 152.973 345.086 152.935 345.308 153.11C345.53 153.287 345.567 153.61 345.391 153.833C330.173 173.024 298.936 179.933 298.623 180.001L298.515 180.013Z" fill="white"/>
<path fill-rule="evenodd" clip-rule="evenodd" d="M295.514 161.45C295.303 161.45 295.106 161.32 295.031 161.112C294.934 160.844 295.074 160.549 295.341 160.453C309.04 155.529 331.719 144.319 329.719 124.565C329.691 124.282 329.897 124.031 330.178 124.002C330.466 123.978 330.715 124.179 330.743 124.462C332.813 144.91 309.669 156.394 295.689 161.42L295.514 161.45Z" fill="white"/>
</svg>
