<svg width="328" height="533" viewBox="0 0 328 533" fill="none" xmlns="http://www.w3.org/2000/svg">
<path fill-rule="evenodd" clip-rule="evenodd" d="M143.053 354V362.74H139.778L189.667 532.359H184.535L179.713 515.966L145.075 515.966L149.896 532.359H144.765L116.833 437.392L88.9015 532.359H83.7699L88.5915 515.966L53.9532 515.966L49.1316 532.359H44L93.888 362.74H88.6713V354L143.053 354ZM113.079 424.63L114.267 428.668L109.256 445.707H74.6174L80.8167 424.63H113.079ZM119.399 428.668L144.041 512.453H178.68L136.718 369.782L119.399 428.668ZM116.833 419.945C115.085 414 112.356 404.723 112.356 404.723H121.31C121.31 404.723 118.581 414 116.833 419.945ZM107.225 404.723L112.046 421.117H81.85L86.6716 404.723H107.225ZM111.323 401.21H122.343L128.198 381.304L105.468 381.304L111.323 401.21ZM100.336 381.304L106.191 401.21H87.7048L93.5597 381.304H100.336ZM104.435 377.791L129.231 377.791L133.658 362.74L100.008 362.74L104.435 377.791ZM96.9481 369.783L99.3033 377.791H94.5929L96.9481 369.783ZM68.7626 465.614L73.5842 449.22H108.223L103.401 465.614H68.7626ZM102.368 469.127H67.7294L61.8746 489.033H96.5128L102.368 469.127ZM54.9865 512.453L60.8413 492.546L95.4796 492.546L89.6247 512.453H54.9865Z" fill="#2727E6"/>
<path d="M139.778 362.74H143.053V354L88.6713 354V362.74H93.888M139.778 362.74L189.667 532.359M139.778 362.74L138.833 362.74M189.667 532.359H184.535M189.667 532.359H237.5M184.535 532.359L179.713 515.966L145.075 515.966L149.896 532.359M184.535 532.359L149.896 532.359M149.896 532.359H144.765M144.765 532.359L116.833 437.392M144.765 532.359H88.9015M116.833 437.392L88.9015 532.359M116.833 437.392L119.399 428.668M88.9015 532.359H83.7699M83.7699 532.359L88.5915 515.966L53.9532 515.966L49.1316 532.359M83.7699 532.359H49.1316M49.1316 532.359H44M44 532.359L93.888 362.74M44 532.359H31M93.888 362.74H99.3033M113.079 424.63L114.267 428.668M113.079 424.63H80.8167L74.6174 445.707H109.256L114.267 428.668M113.079 424.63H115.455C114.807 426.834 114.267 428.668 114.267 428.668M119.399 428.668L144.041 512.453H178.68L136.718 369.782M119.399 428.668L136.718 369.782M136.718 369.782L138.833 362.74M116.833 419.945C115.085 414 112.356 404.723 112.356 404.723M116.833 419.945C118.581 414 121.31 404.723 121.31 404.723H112.356M116.833 419.945C116.724 420.316 116.608 420.71 116.488 421.117H112.046M112.356 404.723H107.225M107.225 404.723L112.046 421.117M107.225 404.723H86.6716L81.85 421.117H112.046M111.323 401.21H122.343L128.198 381.304L105.468 381.304M111.323 401.21L105.468 381.304M111.323 401.21H106.191M105.468 381.304H100.336M100.336 381.304L106.191 401.21M100.336 381.304H93.5597L87.7048 401.21H106.191M104.435 377.791L129.231 377.791L133.658 362.74M104.435 377.791L100.008 362.74M104.435 377.791H99.3033M133.658 362.74L100.008 362.74M133.658 362.74L138.833 362.74M100.008 362.74H99.3033M96.9481 369.783L99.3033 377.791M96.9481 369.783L94.5929 377.791H99.3033M96.9481 369.783L99.3033 362.74M73.5842 449.22L68.7626 465.614H103.401L108.223 449.22H73.5842ZM67.7294 469.127H102.368L96.5128 489.033H61.8746L67.7294 469.127ZM60.8413 492.546L54.9865 512.453H89.6247L95.4796 492.546L60.8413 492.546Z" stroke="#2727E6" stroke-linecap="round"/>
<path fill-rule="evenodd" clip-rule="evenodd" d="M34.1666 5C34.1666 2.79086 35.9575 1 38.1666 1H323.167C325.376 1 327.167 2.79086 327.167 5V63C327.167 65.2091 325.376 67 323.167 67H38.1666C35.9575 67 34.1666 65.2091 34.1666 63V5Z" fill="white" stroke="#EDEDF1"/>
<path d="M124 77.4182C133.989 74.2418 140.919 73.1848 150 78.4188C174.4 92.4823 108.623 164.386 60.9995 176.919C51.4995 179.419 41 175.919 41 175.919C41 175.919 95.4998 86.4817 124 77.4182Z" fill="#1717D1"/>
<path d="M197.183 59.3495L193.372 74.7094L204.666 80.4193C206.694 76.9552 210.56 68.9961 211.208 66.7478C211.843 64.5454 210.108 63.7562 209.194 63.6489C209.699 62.1649 208.411 60.3954 206.976 60.6903C207.178 59.2333 205.305 58.0505 204.523 58.1131C205.098 55.6356 203.336 54.5573 202.248 54.5842L199.648 61.4823C199.127 59.889 198.271 59.3227 197.183 59.3495Z" fill="white"/>
<path d="M199.648 61.4823C199.127 59.889 198.271 59.3227 197.183 59.3495L193.372 74.7094L204.666 80.4193C206.694 76.9552 210.56 68.9961 211.208 66.7478C211.843 64.5454 210.108 63.7562 209.194 63.6489M199.648 61.4823L198.1 65.9211M199.648 61.4823L202.248 54.5842C203.336 54.5573 205.098 55.6356 204.523 58.1131M204.523 58.1131C203.905 59.8915 202.942 62.9941 202.296 64.3065M204.523 58.1131C205.305 58.0505 207.178 59.2333 206.976 60.6903M206.976 60.6903C206.775 62.1474 206.185 64.5544 205.539 65.8667M206.976 60.6903C208.411 60.3954 209.699 62.1649 209.194 63.6489M209.194 63.6489C208.689 65.1328 209.455 62.7718 207.922 67.2791" stroke="#2727E6" stroke-linecap="round"/>
<path fill-rule="evenodd" clip-rule="evenodd" d="M142.5 123C177 123 191.928 72.6029 191.928 72.6029L199.592 75.8463L209.006 80.8135C209.006 80.8135 204.642 117.018 164.5 148.5L142.5 123Z" fill="#2727E6"/>
<path fill-rule="evenodd" clip-rule="evenodd" d="M116.5 122.5C82.9999 111 68.5002 74.5 68.5002 74.5L62.0001 76.9999L53.0001 79.9999C53.0001 79.9999 59.5 117.5 101.5 146.5L116.5 122.5Z" fill="#2727E6"/>
<path d="M64.4336 59.9519L66.5486 75.6355L54.6999 80.0809C53.0617 76.4166 50.0851 68.0836 49.686 65.7781C49.295 63.5197 51.1058 62.9242 52.0258 62.9171C51.6855 61.3869 53.1589 59.7683 54.5527 60.2178C54.5109 58.7474 56.5013 57.7757 57.2726 57.9232C56.9707 55.3978 58.8401 54.5179 59.918 54.6631L61.7507 61.8034C62.4425 60.2764 63.3555 59.8067 64.4336 59.9519Z" fill="white"/>
<path d="M61.7507 61.8034C62.4425 60.2764 63.3555 59.8067 64.4336 59.9519L66.5486 75.6355L54.6999 80.0809C53.0617 76.4166 50.0851 68.0836 49.686 65.7781C49.295 63.5197 51.1058 62.9242 52.0258 62.9171M61.7507 61.8034L62.8061 66.3845M61.7507 61.8034L59.918 54.6631C58.8401 54.5179 56.9707 55.3978 57.2726 57.9232M57.2726 57.9232C57.6929 59.7583 58.3124 62.9474 58.8116 64.3223M57.2726 57.9232C56.5013 57.7757 54.5109 58.7474 54.5527 60.2178M54.5527 60.2178C54.5946 61.6882 54.918 64.145 55.4172 65.5199M54.5527 60.2178C53.1589 59.7683 51.6855 61.3869 52.0258 62.9171M52.0258 62.9171C52.3662 64.4471 51.8623 62.0168 52.895 66.6643" stroke="#2727E6" stroke-linecap="round"/>
<path fill-rule="evenodd" clip-rule="evenodd" d="M1.76322 281.679C1.17579 282.632 -0.055728 284.506 2.38296 286.009C7.57649 289.209 20.225 280.312 20.225 280.312L28.5085 266.869L15.7386 259C15.7386 259 7.22093 272.822 1.76322 281.679Z" fill="#2727E6"/>
<path fill-rule="evenodd" clip-rule="evenodd" d="M126.533 358.32C127.648 358.42 129.874 358.686 130.13 355.833C130.675 349.757 117.067 342.411 117.067 342.411L103 341.5C103 341.5 98.4999 349 99.4999 354.5C105.506 355.78 116.171 357.391 126.533 358.32Z" fill="#2727E6"/>
<path fill-rule="evenodd" clip-rule="evenodd" d="M157.426 227.669C157.426 227.669 161.636 267.93 154.987 292.306C148.338 316.681 124.166 343 124.166 343L99.6673 343C99.6673 343 112.268 315.061 117.65 295.331C123.032 275.6 116.735 242.989 116.735 242.989L112.166 242.989C112.166 242.989 99.6673 267 86.5001 277C62.0029 295.605 17.8323 282.123 17.8323 282.123L23.6673 263C23.6673 263 56.0117 270.596 67.4737 250.716C76.3364 235.345 78.1664 231 81.6663 218.5L117.65 216.5L157.426 227.669Z" fill="#FCCBBB"/>
<path d="M153.166 281C153.166 288.18 149.585 294 145.166 294C140.748 294 137.166 288.18 137.166 281" stroke="white" stroke-linecap="round"/>
<path d="M87.0181 155.439C90.1515 134.611 108.282 119.361 129.339 119.842C155.614 120.443 174.299 144.782 170.811 170.831C170.46 173.452 170.181 175.875 170 178C167.288 209.828 160 246 160 246C160 246 138.07 237.982 120 234.5C101.386 230.913 75.5 232 75.5 232L87.0181 155.439Z" fill="#2727E6"/>
<path d="M150.427 103.015L151.369 92.6191C152.311 77.2233 126.741 72.568 125.61 91.0429L125.332 93.1186C123.458 93.0039 120.134 93.02 119.899 96.8689C119.663 100.718 124.035 100.985 126.25 100.638L124.954 121.807C124.424 130.467 140.348 131.442 140.878 122.782L141.223 115.142C143.107 115.066 144.968 114.406 146.519 113.1C148.789 111.188 150.392 107.891 150.427 103.015Z" fill="white"/>
<path d="M131.107 103.764C130.656 111.129 136.03 115.352 141.223 115.142M141.223 115.142C143.107 115.066 144.968 114.406 146.519 113.1C148.789 111.188 150.392 107.891 150.427 103.015L151.369 92.6191C152.311 77.2233 126.741 72.568 125.61 91.0429L125.332 93.1186C123.458 93.0039 120.134 93.02 119.899 96.8689C119.663 100.718 124.035 100.985 126.25 100.638L124.954 121.807C124.424 130.467 140.348 131.442 140.878 122.782L141.223 115.142ZM125.653 95.5527C124.248 95.4667 122.374 95.3521 122.257 97.2767" stroke="#2727E6" stroke-linecap="round"/>
<path d="M118.602 93.3965C118.688 93.2228 118.811 92.98 118.971 92.6803C119.315 92.0325 119.828 91.1199 120.499 90.0656C121.842 87.9536 123.81 85.2883 126.32 83.0416C128.831 80.7938 131.855 78.99 135.314 78.5457C138.524 78.1334 142.17 78.8844 146.201 81.6443C141.988 82.7878 139.315 85.4269 136.882 87.8278C136.809 87.8994 136.737 87.9709 136.665 88.042C133.951 90.718 131.522 92.9934 127.499 92.9933C126.632 92.9933 125.698 93.1307 124.782 93.2947C124.451 93.3539 124.125 93.416 123.804 93.4772C123.218 93.589 122.646 93.698 122.085 93.7815C121.222 93.9101 120.453 93.9665 119.811 93.8786C119.307 93.8095 118.907 93.6555 118.602 93.3965Z" fill="#1717D1" stroke="#1717D1"/>
<path d="M99.5536 29.2H101.346V36.158L106.61 29.2H108.304V39H106.512V32.056L101.248 39H99.5536V29.2ZM118.205 39V34.044L115.685 38.216H114.929L112.451 34.03V39H110.855V31.524H112.689L115.349 36.2L118.135 31.524H119.773L119.787 39H118.205ZM128.449 31.524V39H126.881V36.746H124.907L123.381 39H121.505L123.269 36.508C122.727 36.3213 122.312 36.0367 122.023 35.654C121.743 35.262 121.603 34.7813 121.603 34.212C121.603 33.3533 121.906 32.6907 122.513 32.224C123.119 31.7573 123.955 31.524 125.019 31.524H128.449ZM125.075 32.994C123.945 32.994 123.381 33.4187 123.381 34.268C123.381 35.108 123.927 35.528 125.019 35.528H126.881V32.994H125.075Z" fill="#3C3C50"/>
<path fill-rule="evenodd" clip-rule="evenodd" d="M68.1666 28C68.1666 27.4439 68.6143 27 69.1666 27C69.7228 27 70.1666 27.4477 70.1666 28C70.1666 28.5561 69.7189 29 69.1666 29C68.6105 29 68.1666 28.5523 68.1666 28ZM62.1666 28C62.1666 27.4439 62.6143 27 63.1666 27C63.7228 27 64.1666 27.4477 64.1666 28C64.1666 28.5561 63.7189 29 63.1666 29C62.6105 29 62.1666 28.5523 62.1666 28ZM68.1666 34C68.1666 33.4439 68.6143 33 69.1666 33C69.7228 33 70.1666 33.4477 70.1666 34C70.1666 34.5561 69.7189 35 69.1666 35C68.6105 35 68.1666 34.5523 68.1666 34ZM62.1666 34C62.1666 33.4439 62.6143 33 63.1666 33C63.7228 33 64.1666 33.4477 64.1666 34C64.1666 34.5561 63.7189 35 63.1666 35C62.6105 35 62.1666 34.5523 62.1666 34ZM62.1666 40C62.1666 39.4439 62.6143 39 63.1666 39C63.7228 39 64.1666 39.4477 64.1666 40C64.1666 40.5561 63.7189 41 63.1666 41C62.6105 41 62.1666 40.5523 62.1666 40ZM68.1666 40C68.1666 39.4439 68.6143 39 69.1666 39C69.7228 39 70.1666 39.4477 70.1666 40C70.1666 40.5561 69.7189 41 69.1666 41C68.6105 41 68.1666 40.5523 68.1666 40Z" fill="#2727E6"/>
</svg>
