<svg width="369" height="250" viewBox="0 0 369 250" fill="none" xmlns="http://www.w3.org/2000/svg">
<g clip-path="url(#clip0)">
<path opacity="0.7" d="M230.073 199.272C220.687 209.436 206.414 216.551 186.185 218.663C151.805 222.251 125.477 231.474 103.888 239.036C70.0064 250.905 47.7967 258.685 24.45 234.182C-13.7729 194.064 2.20786 116.794 47.7678 73.3856C80.8794 41.8374 125.801 31.8082 162.55 44.0829C165.469 40.6978 168.544 37.4569 171.768 34.3856C217.328 -9.02304 285.247 -11.6914 323.47 28.4258C373.275 65.8177 398.522 170.442 310.185 179.663C276.956 183.131 251.249 191.863 230.073 199.272Z" fill="#FCCBBB"/>
<path d="M235.967 104.681C291.255 101.969 338.847 136.036 337.97 190.844L336.219 201.214L261.429 222.99H141.68C141.748 197.951 146.888 169.367 161.132 146.557C175.456 123.621 199.001 106.493 235.967 104.681Z" fill="#2727E6" stroke="#2727E6"/>
<path d="M121.269 30.5782C139.348 24.8289 151.892 22.9157 168.329 32.3893C212.493 57.8442 147.738 162.796 61.5389 185.48C47.6058 176.351 35.2407 153.935 27.149 136.61C26.4308 135.072 35.951 129.941 35.294 128.465C34.6027 126.913 24.2101 130.83 23.5893 129.37C18.925 118.399 16.289 110.365 16.289 110.365C16.289 110.365 69.6833 46.983 121.269 30.5782Z" fill="#2727E6"/>
<path d="M127.561 110.863C152.847 113.121 173.977 119.949 188.674 132.336C203.344 144.7 211.66 162.648 211.259 187.288L209.662 196.59L137.566 222.99H33.0812C33.1812 200.491 40.0226 171.064 55.1523 147.954C70.3818 124.692 93.9776 107.865 127.561 110.863Z" fill="#2727E6" stroke="#2727E6"/>
<path d="M47.9656 160.14C50.8045 148.374 73.3056 125.75 94.1206 116.7" stroke="white" stroke-linecap="round"/>
<path d="M18.0996 190.91C18.0996 183.67 47.0596 183.67 47.0596 190.91C47.0596 191.025 47.0524 191.137 47.0381 191.248C46.4071 200.987 44.2923 219.007 39.8196 222.585H24.4346C20.2092 220.05 18.4908 195.419 18.1514 191.432C18.1172 191.262 18.0996 191.088 18.0996 190.91Z" fill="white"/>
<path d="M18.0996 190.91C18.0996 183.67 47.0596 183.67 47.0596 190.91M18.0996 190.91C18.0996 198.15 47.0596 198.15 47.0596 190.91M18.0996 190.91C18.2597 191.815 19.9096 219.87 24.4346 222.585H39.8196C44.3446 218.965 46.4563 200.563 47.0596 190.91" stroke="#2727E6"/>
<path d="M73.3046 222.585C73.3046 211.725 74.2095 202.675 77.8295 184.575" stroke="white" stroke-linecap="round"/>
<path d="M206.996 71.982V39.2505C206.996 6.51891 263.364 -0.0273256 263.364 39.2505L263.294 50.0373C267.393 50.0373 274.638 50.502 274.638 58.6848C274.638 66.8677 265.072 66.8677 260.29 65.8448V110.851C260.29 129.262 225.444 129.262 225.444 110.851V98.861C221.345 98.4555 217.376 96.8162 214.171 93.8497C209.476 89.5051 206.421 82.3138 206.996 71.982Z" fill="white"/>
<path d="M249.015 76.0735C249.016 91.7307 236.737 99.9784 225.444 98.861M225.444 98.861C221.345 98.4555 217.376 96.8162 214.171 93.8497C209.476 89.5051 206.421 82.3138 206.996 71.982V39.2505C206.996 6.51891 263.364 -0.0273252 263.364 39.2505L263.294 50.0373C267.393 50.0373 274.638 50.502 274.638 58.6848C274.638 66.8677 265.072 66.8677 260.29 65.8448V110.851C260.29 129.262 225.444 129.262 225.444 110.851V98.861ZM262.269 55.1513C265.344 55.1513 269.443 55.1513 269.443 59.243" stroke="#2727E6" stroke-linecap="round"/>
<path d="M356.507 50.8423L347.36 64.4875C343.473 70.5395 337.158 69.1686 334.486 67.7267L304.984 48.7778C303.174 50.6349 296.839 58.7799 286.884 53.3499C289.599 49.7299 293.219 45.2049 295.029 42.384L283.348 34.8817C276.764 30.6534 278.607 24.165 280.351 21.4493C283.964 15.824 286.657 12.2268 290.245 6.64028C293.833 1.05377 301.249 3.29613 304.509 5.11562C317.316 13.6152 344.886 31.7061 352.708 36.0729C360.531 40.4397 358.5 47.7387 356.507 50.8423Z" fill="white" stroke="#2727E6"/>
<path d="M187.114 22.0181C187.239 21.9721 187.399 21.9137 187.592 21.8437C188.123 21.6514 188.901 21.3721 189.893 21.0247C191.876 20.3299 194.709 19.3627 198.111 18.2738C204.916 16.0955 213.987 13.4328 223.063 11.4892C232.151 9.54297 241.196 8.32904 247.968 9.01855C251.356 9.36346 254.118 10.1796 256.032 11.5683C257.92 12.9375 259.015 14.8847 259.053 17.6078C259.096 20.6496 257.871 24.2006 255.633 27.8451C253.399 31.4825 250.178 35.1752 246.288 38.4909C238.5 45.1285 228.095 50.2023 217.673 50.3484C209.717 50.4598 202.124 47.0175 196.489 41.6662C190.942 36.3984 187.327 29.3138 187.114 22.0181Z" fill="#2727E6" stroke="#2727E6"/>
<path d="M253.002 65.0854C251.952 66.3328 250.546 67.1878 248.503 67.3139C248.505 67.2927 248.506 67.2708 248.508 67.2484C248.535 66.8497 248.576 66.2651 248.632 65.5229C248.746 64.0384 248.922 61.9235 249.173 59.404C249.677 54.3634 250.48 47.7096 251.682 41.2443C252.886 34.7677 254.483 28.5242 256.556 24.2793C257.596 22.1519 258.728 20.5842 259.941 19.7227C261.117 18.8875 262.379 18.7047 263.808 19.3645C265.452 20.1229 267.192 21.8404 268.719 24.1735C270.24 26.4956 271.517 29.3787 272.259 32.4001C273.751 38.471 273.055 44.9214 268.12 48.6146C266.906 49.5232 265.675 49.9108 264.417 50.1402C263.866 50.2405 263.317 50.3095 262.755 50.3801C262.669 50.391 262.582 50.4019 262.495 50.4129C261.849 50.495 261.188 50.5853 260.53 50.7336C258.915 51.0974 257.981 52.503 257.306 54.1428C256.852 55.2447 256.477 56.5574 256.096 57.8909C255.91 58.5418 255.722 59.1977 255.523 59.8364C254.904 61.8271 254.164 63.7055 253.002 65.0854Z" fill="#2727E6" stroke="#2727E6"/>
<path d="M166.006 86.9698L171.966 59.4544C177.927 31.9391 131.734 16.1715 124.581 49.1899L122.676 58.2704C119.23 57.5239 113.055 56.5954 111.565 63.4742C110.075 70.353 118.116 72.0949 122.323 72.1059L114.128 109.94L114.094 109.946C108.358 110.988 106.774 111.275 97.7412 113.985C97.7412 122.129 111.237 145.996 126.701 148.375C150.232 151.995 154.756 120.32 154.756 115.795C150.497 114.376 149.326 113.985 143.896 113.081L145.603 106.206C149.123 106.611 152.758 105.956 155.993 104.046C160.73 101.249 164.608 95.7598 166.006 86.9698Z" fill="white"/>
<path d="M145.603 106.206C149.123 106.611 152.758 105.956 155.993 104.046C160.73 101.249 164.608 95.7598 166.006 86.9698L171.966 59.4544C177.927 31.9391 131.734 16.1715 124.581 49.1899L122.676 58.2704C119.23 57.5239 113.055 56.5954 111.565 63.4742C110.075 70.353 118.116 72.0949 122.323 72.1059L114.128 109.94C108.364 110.986 106.791 111.27 97.7412 113.985C97.7412 122.129 111.237 145.996 126.701 148.375C150.232 151.995 154.756 120.32 154.756 115.795C150.497 114.376 149.326 113.985 143.896 113.081L145.603 106.206ZM145.603 106.206C139.645 105.519 134.018 101.793 131.226 95.9689M122.606 62.7561C120.022 62.1962 116.575 61.4497 115.83 64.8893" stroke="#2727E6" stroke-linecap="round"/>
<path d="M111.894 56.9488C109.328 55.7039 107.834 54.127 107.172 52.4038C106.51 50.6806 106.648 48.7299 107.507 46.6753C109.234 42.5442 113.83 38.1239 120.161 34.7368C132.751 28.0006 151.878 25.5207 167.827 37.3083C167.707 41.9725 164.208 46.8224 158.877 50.9566C153.475 55.1461 146.302 58.5094 139.26 60.1025C133.99 61.2948 129.574 61.6763 125.274 61.1807C120.974 60.6851 116.759 59.3089 111.894 56.9488Z" fill="#2727E6" stroke="#2727E6"/>
<path d="M134.846 64.21C131.751 65.2418 160.186 61.495 166.433 43.229C163.326 42.7076 158.102 47.7172 157.471 50.635C156.841 53.5528 145.706 60.5901 134.846 64.21Z" fill="#2727E6"/>
<path d="M101.289 148.978L214.114 148.978C214.933 148.978 215.599 149.636 215.611 150.455L216.67 225.086C216.682 225.924 216.006 226.61 215.168 226.61L100.659 226.61C99.8262 226.61 99.1542 225.932 99.1611 225.1L99.7866 150.468C99.7935 149.644 100.465 148.978 101.289 148.978Z" fill="white" stroke="#2727E6"/>
<path d="M190.495 128.724L221.271 128.724C222.464 128.724 223.552 129.405 224.072 130.479L245.899 175.481C246.905 177.554 245.393 179.969 243.089 179.969L213.093 179.969C211.915 179.969 210.839 179.305 210.311 178.253L187.704 133.251C186.662 131.175 188.172 128.724 190.495 128.724Z" fill="white" stroke="#2727E6"/>
<path d="M197.329 166.191C200.043 163.476 226.288 162.571 234.433 162.571C242.578 162.571 228.966 148.21 237.111 147.47C240.731 147.141 248.913 154.426 248.913 168.001L295.936 200.842C295.936 197.093 292.316 179.377 295.936 168.001C299.975 155.306 323.387 161.796 334.851 168.001C334.851 168.001 339.398 184.707 337.566 197.245C335.185 213.535 331.231 222.585 331.231 222.585L260.641 222.585L238.053 192.65C229.645 193.673 219.131 193.28 214.234 192.65C209.437 192.033 209.363 188.012 209.921 186.152C206.624 185.886 204.277 181.908 206.051 179.377C203.06 178.547 202.339 173.929 203.116 172.465C197.836 171.502 194.614 168.906 197.329 166.191Z" fill="white"/>
<path d="M203.116 172.465C207.078 172.76 213.894 173.495 216.977 173.344M203.116 172.465C197.836 171.502 194.614 168.906 197.329 166.191C200.043 163.476 226.288 162.571 234.433 162.571C242.578 162.571 228.966 148.21 237.111 147.47C240.731 147.141 248.913 154.426 248.913 168.001M203.116 172.465C202.339 173.929 203.06 178.547 206.051 179.377M206.051 179.377C209.042 180.208 214.197 181.085 217.28 180.934M206.051 179.377C204.277 181.908 206.624 185.886 209.921 186.152M209.921 186.152C213.218 186.418 208.004 185.922 218.018 186.731M209.921 186.152C209.363 188.012 209.437 192.033 214.234 192.65C219.131 193.28 229.645 193.673 238.053 192.65L260.641 222.585L331.231 222.585M248.913 168.001L246.198 166.191M248.913 168.001L305.928 207.821M331.231 222.585C331.231 222.585 335.185 213.535 337.566 197.245C339.398 184.707 334.851 168.001 334.851 168.001C323.387 161.796 299.975 155.306 295.936 168.001C292.316 179.377 295.936 197.093 295.936 200.842M331.231 222.585L355.666 222.585M-0.904297 222.585L99.5507 222.585" stroke="#2727E6" stroke-linecap="round"/>
<circle cx="160.185" cy="190.005" r="9.955" fill="#2727E6"/>
<path d="M161.09 177.316C163.805 177.014 174.881 172.688 171.95 169.171C167.425 163.741 162.9 171.886 161.09 177.316Z" fill="#2727E6"/>
<path d="M192.583 134.437C192.251 133.772 192.734 132.99 193.477 132.99H200.291C200.67 132.99 201.016 133.204 201.186 133.543L205.616 142.403C205.948 143.068 205.465 143.85 204.721 143.85H197.907C197.529 143.85 197.182 143.636 197.013 143.297L192.583 134.437Z" fill="#1F1FDE"/>
<path d="M293.983 20.9391C293.336 20.5355 292.939 19.9963 292.791 19.3214C292.644 18.6465 292.797 17.9461 293.25 17.2202C293.547 16.7443 293.9 16.3877 294.31 16.1503C294.72 15.9129 295.146 15.8036 295.589 15.8224C296.046 15.8383 296.487 15.979 296.912 16.2447C297.567 16.6534 297.966 17.1992 298.108 17.8821C298.256 18.557 298.106 19.2533 297.658 19.9712C297.204 20.6971 296.642 21.1421 295.971 21.3061C295.3 21.4701 294.637 21.3478 293.983 20.9391ZM301.928 19.526L303.696 20.6295L292.541 25.4359L290.773 24.3324L301.928 19.526ZM294.7 19.7897C294.921 19.9276 295.157 19.9406 295.409 19.8288C295.661 19.717 295.915 19.4553 296.172 19.044C296.429 18.6326 296.552 18.2893 296.542 18.014C296.532 17.7386 296.416 17.532 296.195 17.3941C295.982 17.2613 295.743 17.2522 295.478 17.367C295.226 17.4789 294.975 17.7365 294.723 18.1398C294.471 18.5431 294.348 18.8864 294.353 19.1698C294.371 19.4502 294.487 19.6568 294.7 19.7897ZM297.556 28.7172C296.901 28.3085 296.5 27.7667 296.353 27.0919C296.213 26.4221 296.37 25.7243 296.823 24.9983C297.271 24.2805 297.831 23.8395 298.502 23.6755C299.178 23.5035 299.839 23.6192 300.486 24.0228C301.141 24.4315 301.539 24.9773 301.682 25.6602C301.829 26.3351 301.679 27.0315 301.231 27.7493C300.778 28.4753 300.216 28.9202 299.545 29.0842C298.874 29.2482 298.211 29.1259 297.556 28.7172ZM298.273 27.5678C298.494 27.7057 298.731 27.7188 298.983 27.6069C299.234 27.4951 299.489 27.2335 299.745 26.8221C300.002 26.4108 300.125 26.0674 300.115 25.7921C300.105 25.5168 299.99 25.3102 299.769 25.1722C299.548 25.0343 299.311 25.0212 299.059 25.1331C298.808 25.2449 298.553 25.5065 298.297 25.9179C298.04 26.3293 297.917 26.6726 297.927 26.9479C297.937 27.2232 298.052 27.4299 298.273 27.5678Z" fill="#2727E6"/>
<path d="M310.307 29.4296L309.011 31.0415L310.546 31.9994L309.572 33.5602L307.841 32.4797L306.482 34.1368L304.812 33.0947L306.171 31.4375L304.661 30.495L303.302 32.1521L301.632 31.11L302.991 29.4528L301.444 28.4873L302.418 26.9265L304.161 28.0147L305.457 26.4027L303.91 25.4372L304.884 23.8764L306.628 24.9645L307.986 23.3074L309.656 24.3496L308.298 26.0067L309.808 26.9492L311.166 25.2921L312.836 26.3343L311.478 27.9914L313.025 28.9569L312.051 30.5177L310.307 29.4296ZM308.637 28.3874L307.127 27.4449L305.831 29.0568L307.341 29.9994L308.637 28.3874Z" fill="#2727E6"/>
<path d="M320.901 31.1659C322.039 31.876 322.906 32.7368 323.503 33.7483C324.109 34.7649 324.408 35.8257 324.4 36.9308C324.401 38.0409 324.095 39.088 323.481 40.0721C323.028 40.798 322.519 41.3491 321.954 41.7252C321.403 42.0984 320.837 42.2944 320.256 42.3132C319.689 42.329 319.144 42.1735 318.62 41.8465C318.186 41.5758 317.869 41.2546 317.669 40.883C317.468 40.5114 317.403 40.1063 317.472 39.6675C316.633 40.1189 315.751 40.056 314.826 39.4787C314.343 39.1773 313.971 38.7713 313.709 38.2607C313.453 37.742 313.341 37.1736 313.375 36.5555C313.416 35.9425 313.623 35.3376 313.995 34.7407C314.368 34.1438 314.82 33.6921 315.353 33.3856C315.886 33.0791 316.439 32.9311 317.012 32.9416C317.586 32.9521 318.118 33.1106 318.609 33.4171C319.329 33.8667 319.755 34.4516 319.885 35.1719L320.255 34.5791L322.257 35.8281L319.954 39.5183C319.792 39.7764 319.726 39.9926 319.753 40.1668C319.781 40.341 319.877 40.4792 320.041 40.5814C320.556 40.9032 321.204 40.439 321.985 39.1888C322.463 38.4226 322.704 37.626 322.708 36.7993C322.721 35.9776 322.498 35.1945 322.042 34.45C321.59 33.6975 320.931 33.0504 320.063 32.5089C319.203 31.9725 318.325 31.6763 317.427 31.6204C316.538 31.5696 315.707 31.7518 314.936 32.1672C314.17 32.5745 313.538 33.1775 313.04 33.976C312.531 34.7907 312.256 35.633 312.213 36.5031C312.171 37.3731 312.366 38.1899 312.799 38.9535C313.236 39.7303 313.884 40.3869 314.743 40.9233C315.619 41.4699 316.544 41.8008 317.519 41.9159L317.165 43.494C316.686 43.4416 316.152 43.3043 315.563 43.0822C314.981 42.8652 314.429 42.5932 313.905 42.2663C312.718 41.5255 311.821 40.6296 311.215 39.5786C310.617 38.5327 310.332 37.4305 310.361 36.2719C310.399 35.1185 310.747 34.0135 311.407 32.9568C312.061 31.9082 312.9 31.1203 313.923 30.5931C314.95 30.0578 316.07 29.8317 317.28 29.9148C318.499 30.003 319.706 30.4201 320.901 31.1659ZM316.381 38.1627C316.741 38.3875 317.107 38.4479 317.479 38.3438C317.859 38.2449 318.188 37.9736 318.465 37.53C318.737 37.0944 318.833 36.6841 318.755 36.2991C318.685 35.9192 318.47 35.6169 318.11 35.3921C317.75 35.1673 317.384 35.1069 317.012 35.211C316.64 35.315 316.318 35.5848 316.046 36.0204C315.774 36.4559 315.671 36.8677 315.736 37.2557C315.806 37.6356 316.021 37.9379 316.381 38.1627Z" fill="#2727E6"/>
<path d="M331.088 45.9292C330.67 46.5987 330.062 47.0261 329.263 47.2116C328.478 47.3942 327.581 47.2654 326.57 46.8252L325.732 48.1682L324.259 47.2487L325.067 45.9541C324.478 45.5306 323.96 45.0671 323.512 44.5635C323.069 44.0518 322.743 43.5626 322.534 43.0958L324.435 41.8275C324.663 42.3176 324.984 42.7977 325.395 43.2677C325.807 43.7377 326.259 44.1259 326.75 44.4325C327.683 45.0148 328.293 45.0761 328.58 44.6164C328.731 44.3744 328.707 44.1127 328.507 43.8312C328.321 43.5467 327.973 43.156 327.464 42.6591C326.903 42.1184 326.454 41.6361 326.115 41.2121C325.782 40.78 325.568 40.2935 325.474 39.7525C325.379 39.2115 325.516 38.6467 325.883 38.0578C326.316 37.3642 326.94 36.9297 327.754 36.7544C328.574 36.5711 329.498 36.7218 330.526 37.2066L331.357 35.8757L332.83 36.7952L332.015 38.1019C332.456 38.4334 332.852 38.7925 333.202 39.1792C333.56 39.5709 333.847 39.9683 334.061 40.3713L332.202 41.6824C331.656 40.736 330.998 40.0227 330.228 39.5425C329.745 39.2411 329.348 39.094 329.036 39.1012C328.73 39.1004 328.506 39.2129 328.365 39.4388C328.224 39.6646 328.249 39.9158 328.441 40.1922C328.632 40.4686 328.981 40.8486 329.487 41.3323C330.056 41.8781 330.503 42.3645 330.828 42.7915C331.166 43.2155 331.382 43.698 331.477 44.2389C331.585 44.777 331.455 45.3404 331.088 45.9292Z" fill="#2727E6"/>
<path d="M334.642 46.3151C333.995 45.9115 333.598 45.3723 333.451 44.6974C333.303 44.0226 333.456 43.3222 333.909 42.5962C334.206 42.1204 334.56 41.7637 334.969 41.5263C335.379 41.2889 335.806 41.1796 336.249 41.1984C336.705 41.2143 337.146 41.3551 337.572 41.6207C338.227 42.0294 338.625 42.5752 338.768 43.2581C338.915 43.933 338.765 44.6294 338.317 45.3472C337.864 46.0732 337.302 46.5181 336.631 46.6821C335.96 46.8461 335.297 46.7238 334.642 46.3151ZM342.587 44.9021L344.355 46.0055L333.2 50.8119L331.432 49.7084L342.587 44.9021ZM335.359 45.1657C335.58 45.3036 335.817 45.3167 336.069 45.2048C336.32 45.093 336.575 44.8314 336.831 44.42C337.088 44.0087 337.211 43.6653 337.201 43.39C337.191 43.1147 337.075 42.9081 336.854 42.7701C336.642 42.6373 336.403 42.6283 336.138 42.7431C335.886 42.8549 335.634 43.1125 335.382 43.5158C335.131 43.9191 335.007 44.2624 335.013 44.5458C335.031 44.8263 335.147 45.0329 335.359 45.1657ZM338.216 54.0932C337.561 53.6846 337.16 53.1428 337.012 52.4679C336.873 51.7982 337.03 51.1003 337.483 50.3744C337.931 49.6565 338.49 49.2156 339.161 49.0516C339.837 48.8795 340.499 48.9953 341.145 49.3989C341.8 49.8076 342.199 50.3534 342.341 51.0363C342.489 51.7112 342.339 52.4075 341.891 53.1254C341.437 53.8513 340.875 54.2963 340.204 54.4603C339.533 54.6243 338.87 54.5019 338.216 54.0932ZM338.933 52.9438C339.154 53.0818 339.39 53.0948 339.642 52.983C339.894 52.8711 340.148 52.6095 340.405 52.1982C340.662 51.7868 340.785 51.4435 340.775 51.1681C340.765 50.8928 340.649 50.6862 340.428 50.5483C340.207 50.4103 339.971 50.3973 339.719 50.5091C339.467 50.621 339.213 50.8826 338.956 51.2939C338.699 51.7053 338.576 52.0486 338.586 52.324C338.596 52.5993 338.712 52.8059 338.933 52.9438Z" fill="#2727E6"/>
<ellipse cx="32.5802" cy="193.625" rx="12.67" ry="2.715" fill="#2727E6"/>
</g>
<defs>
<clipPath id="clip0">
<path d="M0 0H369V250H0V0Z" fill="white"/>
</clipPath>
</defs>
</svg>
