<svg width="395" height="294" viewBox="0 0 395 294" fill="none" xmlns="http://www.w3.org/2000/svg">
<g clip-path="url(#clip0)">
<path opacity="0.7" d="M274.945 218.023C339.553 210.744 400.955 157.176 394.538 100.353C390.618 65.645 367.477 58.1912 332.175 46.8201C309.68 39.5747 282.249 30.7388 251.706 12.2486C197.662 -20.4691 159.712 17.6102 147.086 64.6784C83.6781 54.3907 11.2089 87.93 1.13718 143.48C-5.09424 177.849 14.9261 191.63 45.4679 212.655C64.9286 226.051 88.661 242.388 112.596 268.865C164.865 326.686 224.68 274.181 241.991 217.663C252.605 219.119 263.668 219.294 274.945 218.023Z" fill="#FCCBBB"/>
<path d="M275.395 53.4908C275.395 52.668 276.057 51.9972 276.88 51.9874L372.602 50.8414C373.436 50.8315 374.117 51.5038 374.117 52.3379L374.159 118.03C374.159 118.853 373.497 119.523 372.674 119.533L276.952 120.679C276.118 120.689 275.437 120.017 275.437 119.183L275.395 53.4908Z" fill="white" stroke="#2727E6" stroke-linecap="round"/>
<path d="M143.865 176.445C143.852 177.269 143.177 177.929 142.353 177.924L46.5949 177.308C45.7713 177.303 45.1071 176.634 45.1071 175.811L45.1071 103.512C45.1071 102.683 45.7802 102.009 46.6097 102.009L143.513 102.009C144.35 102.009 145.024 102.694 145.011 103.53L143.865 176.445Z" fill="white" stroke="#2727E6" stroke-linecap="round"/>
<path d="M64.1653 24.6325C64.167 23.8043 64.8396 23.1331 65.6678 23.1331L357.379 23.133C358.202 23.133 358.871 23.7965 358.876 24.6198L360.1 196.036C360.106 196.87 359.43 197.55 358.596 197.55L65.2956 197.364C64.4673 197.364 63.7973 196.692 63.7991 195.863L64.1653 24.6325Z" fill="white" stroke="#2727E6" stroke-linecap="round"/>
<path d="M323.684 51.5C323.684 50.8024 324.249 50.2368 324.947 50.2368H346.105C346.802 50.2368 347.368 50.8024 347.368 51.5V201.368C347.368 202.066 346.802 202.632 346.105 202.632H324.947C324.249 202.632 323.684 202.066 323.684 201.368V51.5Z" fill="white" stroke="#2727E6"/>
<path d="M300.191 154.375C283.562 155.688 271.796 161.803 263.077 172.81C254.349 183.83 248.642 199.792 244.241 220.881L251.308 258.171H289.684L371.226 258.171C374.611 228.928 367.093 202.212 353.637 183.19C340.111 164.069 320.622 152.762 300.191 154.375Z" fill="#2727E6" stroke="#2727E6"/>
<path d="M178.441 172.485C181.341 170.923 194.315 178.415 201.008 180.424C201.008 180.424 206.967 183.286 209.783 186.3C210.529 187.099 211.567 188.457 211.567 188.457L242.182 223.472C243.258 219.94 252.381 192.281 256.913 183.208C260.439 176.149 263.084 173.504 267.492 169.096C267.492 187.289 266.199 218.135 266.199 236.769L266.199 257.79L239.434 257.79C234.145 257.79 211.567 223.57 211.567 223.57C211.567 223.57 203.751 209.293 199.838 206.187C195.925 203.081 195.225 202.766 191.356 201.041C187.566 199.351 182.948 193.383 183.866 191.993C181.222 190.961 180.274 187.113 182.356 185.471C180.103 184.051 180.65 180.078 181.649 179.068C177.548 176.974 175.54 174.046 178.441 172.485Z" fill="white"/>
<path d="M181.649 179.068C184.832 180.287 190.252 182.572 192.822 183.208M181.649 179.068C177.548 176.974 175.54 174.046 178.441 172.485C181.341 170.923 194.315 178.415 201.008 180.424C201.008 180.424 206.967 183.286 209.783 186.3C210.529 187.099 211.567 188.457 211.567 188.457L250.969 233.521M181.649 179.068C180.65 180.078 180.103 184.051 182.356 185.471M182.356 185.471C184.609 186.891 188.629 188.883 191.199 189.519M182.356 185.471C180.274 187.113 181.222 190.961 183.866 191.993M183.866 191.993C186.509 193.024 182.347 191.331 190.376 194.465M183.866 191.993C182.948 193.383 187.566 199.351 191.356 201.041C195.225 202.766 195.925 203.081 199.838 206.187C203.751 209.293 211.567 223.57 211.567 223.57C211.567 223.57 234.145 257.79 239.434 257.79M242.153 223.57C243.078 220.488 252.336 192.37 256.913 183.208C260.439 176.149 263.084 173.504 267.492 169.096C267.492 187.289 266.199 218.135 266.199 236.769C266.199 236.769 266.199 250.025 266.199 257.79M239.434 257.79C244.724 257.79 260.028 257.79 266.199 257.79M239.434 257.79L106.316 257.79M266.199 257.79L391.947 257.79" stroke="#2727E6" stroke-linecap="round"/>
<path d="M145.391 257.789C135.517 257.789 135.694 245.447 145.391 245.447H180.368C180.368 245.447 176.841 247.21 176.841 251.618C176.841 256.026 180.178 257.789 180.178 257.789H145.391Z" fill="white"/>
<path d="M182.131 257.789C181.21 257.789 181.33 257.789 180.178 257.789M180.368 245.447H145.391C135.694 245.447 135.517 257.789 145.391 257.789C154.198 257.789 170.674 257.789 180.178 257.789M180.368 245.447H182.131M180.368 245.447C180.368 245.447 176.841 247.21 176.841 251.618C176.841 256.026 180.178 257.789 180.178 257.789" stroke="#2727E6" stroke-linecap="round"/>
<path d="M145.391 245.447C135.517 245.447 135.694 233.105 145.391 233.105H180.368C180.368 233.105 176.841 234.868 176.841 239.276C176.841 243.684 180.178 245.447 180.178 245.447H145.391Z" fill="white"/>
<path d="M182.131 245.447C181.21 245.447 181.33 245.447 180.178 245.447M180.368 233.105H145.391C135.694 233.105 135.517 245.447 145.391 245.447C154.198 245.447 170.674 245.447 180.178 245.447M180.368 233.105H182.131M180.368 233.105C180.368 233.105 176.841 234.868 176.841 239.276C176.841 243.684 180.178 245.447 180.178 245.447" stroke="#2727E6" stroke-linecap="round"/>
<path d="M145.391 233.105C135.517 233.105 135.694 220.763 145.391 220.763H180.368C180.368 220.763 176.841 222.526 176.841 226.934C176.841 231.342 180.178 233.105 180.178 233.105H145.391Z" fill="white"/>
<path d="M182.131 233.105C181.21 233.105 181.33 233.105 180.178 233.105M180.368 220.763H145.391C135.694 220.763 135.517 233.105 145.391 233.105C154.198 233.105 170.674 233.105 180.178 233.105M180.368 220.763H182.131M180.368 220.763C180.368 220.763 176.841 222.526 176.841 226.934C176.841 231.342 180.178 233.105 180.178 233.105" stroke="#2727E6" stroke-linecap="round"/>
<path d="M256.313 130.251L251.448 103.261C246.583 76.2712 292.091 62.4949 297.929 94.8828C297.929 94.8828 298.685 96.1283 299.474 103.788C300.264 111.447 303.041 137.765 306.036 154.38C287.918 156.814 284.865 159.266 277.346 161.969L275.521 149.673C272.081 149.948 268.564 149.186 265.48 147.216C260.963 144.332 257.375 138.856 256.313 130.251Z" fill="white"/>
<path d="M275.521 149.673C272.081 149.948 268.564 149.186 265.48 147.216C260.963 144.332 257.375 138.856 256.313 130.251L251.448 103.261C246.583 76.2712 292.091 62.4949 297.929 94.8828C297.929 94.8828 298.685 96.1283 299.474 103.788C300.264 111.447 303.041 137.765 306.036 154.38C287.918 156.814 284.865 159.266 277.346 161.969L275.521 149.673ZM275.521 149.673C275.521 145.829 273.816 142.303 273.816 135.25" stroke="#2727E6" stroke-linecap="round"/>
<path d="M271.005 109.607C274.385 108.998 280.427 108.304 281.644 115.052C282.86 121.799 274.972 123.221 270.877 123.088M270.92 113.976C273.455 113.519 276.835 112.91 277.443 116.284" stroke="#2727E6" stroke-linecap="round"/>
<path d="M308.88 228.087L301.039 222.628C302.157 225.767 303.213 231.022 303.795 236.974C304.24 241.532 303.795 249.641 303.795 249.641C303.795 249.641 303.795 252.236 301.039 257.789L305.553 257.789C313.028 252.295 311.142 235.534 308.88 228.087Z" fill="white" stroke="#2727E6"/>
<path d="M336.857 228.087L329.016 222.628C330.134 225.767 331.19 231.022 331.772 236.974C332.217 241.532 331.772 249.641 331.772 249.641C331.772 249.641 331.772 252.236 329.016 257.789L333.53 257.789C341.005 252.295 339.119 235.534 336.857 228.087Z" fill="white" stroke="#2727E6"/>
<path d="M334.701 167.868L280.924 178.447C283.569 199.605 291.503 242.626 302.082 245.447C305.427 246.339 310.125 246.103 315.306 245.11C330.611 242.177 350.133 232.639 351.451 226.053C352.861 219 340.872 184.325 334.701 167.868Z" fill="white"/>
<path d="M315.306 245.11C312.661 245.11 307.195 243.508 302.964 228.698C298.732 213.887 296.793 201.369 295.911 196.079M280.924 178.447L334.701 167.868C340.872 184.325 352.861 219 351.451 226.053C349.687 234.868 315.306 248.974 302.082 245.447C291.503 242.626 283.569 199.605 280.924 178.447Z" stroke="#2727E6"/>
<path d="M274.698 162.579L268.527 167.868C271.172 167.869 275.382 167.599 279.988 168.75C283.514 169.632 287.922 171.395 289.685 174.921C289.685 174.921 285.406 183.437 287.04 190.789C288.803 198.724 286.159 196.079 298.501 193.434C300.548 192.995 301.145 187.263 301.145 187.263L295.856 172.276C293.74 165.224 280.869 162.873 274.698 162.579Z" fill="white" stroke="#2727E6"/>
<path d="M317.917 155.526L306.435 154.645C308.712 155.99 314.537 158.045 317.917 161.379C320.505 163.931 323.403 167.691 323.128 171.624C323.128 171.624 320.605 176.513 320.611 179.352C320.619 182.526 321.662 184.121 323.683 186.286C325.112 187.816 326.719 188.079 326.719 188.079L329.787 172.485C331.552 165.337 323.081 158.918 317.917 155.526Z" fill="white" stroke="#2727E6"/>
<path d="M331.174 162.579C337.522 161.874 342.047 178.154 343.516 186.382L326.766 189.971C327.648 193.476 329.235 198.548 328.53 201.369C327.648 204.895 325.003 206.658 322.358 203.132C321.76 202.334 319.42 195.198 318.832 191.671L294.148 196.961C292.091 188.733 286.566 173.687 280.924 179.329C280.924 179.329 280.043 174.04 285.332 172.276C290.622 170.513 324.827 163.284 331.174 162.579Z" fill="white"/>
<path d="M318.832 191.671L294.148 196.961C292.091 188.733 286.566 173.687 280.924 179.329C280.924 179.329 280.043 174.04 285.332 172.276C290.622 170.513 324.827 163.284 331.174 162.579C337.522 161.874 342.047 178.154 343.516 186.382L326.766 189.971M318.832 191.671C319.42 195.198 321.76 202.334 322.358 203.132C325.003 206.658 327.648 204.895 328.53 201.369C329.235 198.548 327.648 193.476 326.766 189.971M318.832 191.671C318.538 190.496 318.386 188.156 318.832 187.263C319.714 185.5 321.477 184.619 324.122 186.382C325.444 187.263 326.606 189.316 326.766 189.971" stroke="#2727E6"/>
<path d="M199.111 136.244C199.111 154.47 184.337 169.244 166.111 169.244C147.886 169.244 133.111 154.47 133.111 136.244C133.111 118.019 147.886 103.244 166.111 103.244C184.337 103.244 199.111 118.019 199.111 136.244Z" fill="white" stroke="#2727E6"/>
<mask id="path-28-inside-1" fill="white">
<path d="M199.764 136.132C199.764 142.757 197.799 149.234 194.118 154.743C190.437 160.252 185.205 164.546 179.084 167.082C172.962 169.617 166.227 170.281 159.728 168.988C153.23 167.695 147.261 164.505 142.576 159.82C137.891 155.135 134.7 149.165 133.407 142.667C132.115 136.169 132.778 129.433 135.314 123.312C137.849 117.19 142.143 111.958 147.652 108.277C153.161 104.596 159.638 102.632 166.264 102.632V136.132H199.764Z"/>
</mask>
<path d="M199.764 136.132C199.764 142.757 197.799 149.234 194.118 154.743C190.437 160.252 185.205 164.546 179.084 167.082C172.962 169.617 166.227 170.281 159.728 168.988C153.23 167.695 147.261 164.505 142.576 159.82C137.891 155.135 134.7 149.165 133.407 142.667C132.115 136.169 132.778 129.433 135.314 123.312C137.849 117.19 142.143 111.958 147.652 108.277C153.161 104.596 159.638 102.632 166.264 102.632V136.132H199.764Z" fill="#2727E6" stroke="#2727E6" stroke-width="10" mask="url(#path-28-inside-1)"/>
<path d="M118.005 31.3361C118.005 33.4944 116.256 35.244 114.097 35.244C111.939 35.244 110.189 33.4944 110.189 31.3361C110.189 29.1778 111.939 27.4282 114.097 27.4282C116.256 27.4282 118.005 29.1778 118.005 31.3361Z" fill="white" stroke="#2727E6"/>
<circle cx="124.677" cy="31.3361" r="3.90789" fill="white" stroke="#2727E6"/>
<circle cx="135.256" cy="31.3361" r="3.90789" fill="white" stroke="#2727E6"/>
<path d="M348.98 31.3361C348.98 33.4944 347.23 35.244 345.072 35.244C342.914 35.244 341.164 33.4944 341.164 31.3361C341.164 29.1778 342.914 27.4282 345.072 27.4282C347.23 27.4282 348.98 29.1778 348.98 31.3361Z" fill="white" stroke="#2727E6"/>
<path d="M338.4 31.3361C338.4 33.4944 336.65 35.244 334.492 35.244C332.334 35.244 330.584 33.4944 330.584 31.3361C330.584 29.1778 332.334 27.4282 334.492 27.4282C336.65 27.4282 338.4 29.1778 338.4 31.3361Z" fill="white" stroke="#2727E6"/>
<path d="M169.138 31.3361C169.138 33.4944 167.388 35.244 165.23 35.244C163.072 35.244 161.322 33.4944 161.322 31.3361C161.322 29.1778 163.072 27.4282 165.23 27.4282C167.388 27.4282 169.138 29.1778 169.138 31.3361Z" fill="white" stroke="#2727E6"/>
<circle cx="175.808" cy="31.3361" r="3.90789" fill="white" stroke="#2727E6"/>
<ellipse cx="241.045" cy="73.652" rx="4.4079" ry="4.40789" fill="#2727E6"/>
<ellipse cx="249.861" cy="61.31" rx="4.40789" ry="4.40789" fill="#2727E6"/>
<ellipse cx="258.677" cy="71.8889" rx="4.40789" ry="4.4079" fill="#2727E6"/>
<ellipse cx="166.263" cy="136.132" rx="14.1053" ry="14.1053" fill="white"/>
<path d="M129.197 257.091L128.892 258.087L114.356 255.015C114.432 254.751 114.537 254.389 114.667 253.942C114.962 252.925 115.387 251.464 115.907 249.689C116.947 246.138 118.365 241.331 119.88 236.303C122.833 226.503 126.136 215.919 127.72 212.136C133.092 212.175 137.277 213.19 141.945 216.552C140.279 221.408 137.041 231.711 134.193 240.886C132.733 245.588 131.374 249.998 130.381 253.232C129.884 254.849 129.478 256.172 129.197 257.091Z" fill="white" stroke="#2727E6"/>
<path d="M64 39.1577H102.789V197.842H67C65.3431 197.842 64 196.499 64 194.842V39.1577Z" fill="#2727E6"/>
<path d="M71.0527 47.9736C71.0527 46.9998 71.8421 46.2104 72.8159 46.2104H93.9738C94.9476 46.2104 95.7369 46.9998 95.7369 47.9736V56.7894C95.7369 57.7632 94.9476 58.5526 93.9738 58.5526H72.8159C71.8421 58.5526 71.0527 57.7632 71.0527 56.7894V47.9736Z" fill="white"/>
<path d="M71.0527 63.8423C71.0527 62.8685 71.8421 62.0791 72.8159 62.0791H93.9738C94.9476 62.0791 95.7369 62.8685 95.7369 63.8423V72.658C95.7369 73.6318 94.9476 74.4212 93.9738 74.4212H72.8159C71.8421 74.4212 71.0527 73.6318 71.0527 72.658V63.8423Z" fill="white"/>
<path d="M71.0527 79.7104C71.0527 78.7367 71.8421 77.9473 72.8159 77.9473H93.9738C94.9476 77.9473 95.7369 78.7367 95.7369 79.7104V88.5262C95.7369 89.5 94.9476 90.2894 93.9738 90.2894H72.8159C71.8421 90.2894 71.0527 89.5 71.0527 88.5262V79.7104Z" fill="white"/>
<path d="M71.0527 143.184C71.0527 142.21 71.8421 141.421 72.8159 141.421H93.9738C94.9476 141.421 95.7369 142.21 95.7369 143.184V187.263C95.7369 188.237 94.9476 189.026 93.9738 189.026H72.8159C71.8421 189.026 71.0527 188.237 71.0527 187.263V143.184Z" fill="white"/>
<path fill-rule="evenodd" clip-rule="evenodd" d="M263.237 75.3023C247.358 80.8819 249.328 101.738 249.328 101.738L295.324 108.964L329.409 114.903C329.409 114.903 332.489 112.348 330.237 111.447C325.829 109.684 304.928 103.329 304.928 103.329C304.928 103.329 304.508 85.2896 302.908 82.355C301.309 79.4204 299.382 76.9836 291.448 74.4208C279.987 70.719 273.816 71.5851 263.237 75.3023Z" fill="#2727E6"/>
<path d="M271.172 103.513L300.264 109.684L302.909 134.368C302.909 134.368 298.934 137.744 294.975 138.776C291.015 139.809 283.514 138.776 283.514 138.776L278.225 122.026C278.225 122.026 282.192 119.073 281.751 115.855C281.386 113.191 280.817 111.116 278.225 109.684C276.093 108.508 272.053 108.803 272.053 108.803L271.172 103.513Z" fill="#2727E6"/>
<rect x="277.527" y="104.395" width="19.3947" height="1.25994" rx="0.629971" transform="rotate(8.44475 277.527 104.395)" fill="white"/>
<path d="M257.348 183.743C260.875 176.684 263.519 174.04 267.927 169.632C267.927 187.825 266.634 218.67 266.634 237.305L266.634 257.79L237.672 257.79C232.383 257.79 209.462 226.053 209.462 226.053L229.791 209.337L242.618 224.007C243.694 220.475 252.816 192.816 257.348 183.743Z" fill="#2727E6"/>
<path d="M251.404 234.056L229.791 209.337L209.462 226.053C209.462 226.053 232.383 257.79 237.672 257.79C242.962 257.79 260.463 257.79 266.634 257.79C266.634 250.025 266.634 237.305 266.634 237.305C266.634 218.67 267.927 187.825 267.927 169.632C263.519 174.04 260.875 176.684 257.348 183.743C252.771 192.906 243.513 221.024 242.588 224.105" stroke="#2727E6" stroke-linecap="round"/>
<path d="M257.065 255.145C257.065 247.21 260.125 205.651 266.763 184.618" stroke="white" stroke-linecap="round"/>
</g>
<defs>
<clipPath id="clip0">
<path d="M0 0H395V294H0V0Z" fill="white"/>
</clipPath>
</defs>
</svg>
