<svg width="330" height="191" viewBox="0 0 330 191" fill="none" xmlns="http://www.w3.org/2000/svg">
<path opacity="0.67" d="M274.72 118.058C276.007 129.224 271.035 139.822 255.733 145.767C241.131 151.439 230.785 158.603 222.302 164.477C208.988 173.697 200.261 179.74 186.864 171.86C164.929 158.96 161.946 123.4 176.302 99.0499C181.639 89.9971 189.058 83.027 197.4 78.5052C198.586 66.9635 202.188 55.3921 208.12 45.33C225.964 15.0625 262.06 3.24797 288.743 18.9415C321.234 31.4016 350.816 83.7081 304.748 102.161C292.683 106.994 282.968 112.64 274.72 118.058Z" fill="#FCCBBB"/>
<path opacity="0.6" d="M10.4488 125.304C-1.75067 146.012 -0.397637 177.404 17.8452 188.141C28.8896 194.642 36.5201 189.119 47.8109 180.947C55.1701 175.62 64.0842 169.168 76.5121 164.187C84.5435 160.967 89.2118 156.242 91.3415 150.846C94.8055 155.434 100.577 159.024 105.957 159.852C116.266 163.247 127.75 156.513 131.608 144.811C135.466 133.109 131.086 118.293 120.777 114.898C114.48 112.824 111.363 116.219 106.608 121.397C103.578 124.697 99.8829 128.721 94.2764 132.516C93.1541 133.275 92.2044 134.071 91.413 134.894C87.7209 123.047 76.9042 111.599 65.5696 107.249C47.3267 96.512 22.6483 104.595 10.4488 125.304Z" fill="#FCCBBB"/>
<path d="M91.4757 112.543C84.5512 110.286 79.7466 109.535 73.4512 113.254C56.5357 123.245 81.3377 164.442 114.353 173.346C119.69 169.763 126.569 156.773 129.668 149.972C129.943 149.369 125.575 147.397 125.948 146.539C126.213 145.929 130.002 148.543 130.24 147.969C132.027 143.663 131.685 143.861 131.685 143.861C131.685 143.861 111.234 118.982 91.4757 112.543Z" fill="#2727E6"/>
<path fill-rule="evenodd" clip-rule="evenodd" d="M153.813 115.056C154.211 114.677 154.988 113.897 155.877 114.83C157.77 116.818 154.609 123.619 154.609 123.619L148.068 130.295L144.147 126.322C143.764 125.809 143.805 125.033 144.314 124.548C146.083 122.863 151.007 117.728 153.813 115.056Z" fill="#2727E6"/>
<path fill-rule="evenodd" clip-rule="evenodd" d="M186.099 122.885C186.634 122.757 187.698 122.474 187.996 123.728C188.632 126.399 182.479 130.686 182.479 130.686L173.467 133.164L172.077 127.758C172.005 127.122 172.43 126.472 173.114 126.309C175.491 125.743 182.33 123.782 186.099 122.885Z" fill="#2727E6"/>
<path d="M118.508 155.982C127.951 151.403 129.954 147.969 144.548 154.551L148.875 155.982L145.692 127.939L154.849 124.505C155.135 125.65 158.829 138.098 160.286 145.252C164.128 138.739 168.66 132.083 171.446 128.225C174.212 129.847 179.915 133.09 180.602 133.09C180.373 134.921 167.916 162.277 161.717 175.726H108.779L112.499 157.2C114.347 157.336 116.369 157.019 118.508 155.982Z" fill="white"/>
<path d="M153.704 158.843C153.809 158.477 153.931 158.095 154.068 157.698M154.068 157.698L148.875 155.982M154.068 157.698C155.25 154.289 157.6 149.805 160.286 145.252M160.286 145.252C158.829 138.098 155.135 125.65 154.849 124.505L145.692 127.939L148.875 155.982M160.286 145.252C164.128 138.739 168.66 132.083 171.446 128.225C174.212 129.847 179.915 133.09 180.602 133.09C180.373 134.921 167.916 162.277 161.717 175.726H108.779L112.499 157.2C114.347 157.336 116.369 157.019 118.508 155.982C127.951 151.403 129.954 147.969 144.548 154.551L148.875 155.982" stroke="#2727E6"/>
<path d="M142.544 175.726L106.203 175.726C106.585 174.867 111.526 173.093 116.791 172.864C122.056 172.635 136.249 174.676 142.544 175.726Z" fill="#2727E6"/>
<path d="M79.5923 175.726L97.3334 146.825C97.3334 146.825 98.3701 152.286 101.339 154.551C103.446 156.158 113.071 157.412 113.071 157.412L109.638 175.726H79.5923Z" fill="#2727E6" stroke="#2727E6"/>
<path d="M72.7242 149.4L68.1459 159.988L64.9982 168.572L46.1125 172.006V175.726H70.7212H82.4532C87.89 175.726 99.3359 167.885 100.48 150.259C101.625 132.632 76.158 139.385 72.7242 149.4Z" fill="#2727E6"/>
<path d="M70.7212 175.726H82.4532C87.89 175.726 99.3359 167.885 100.48 150.259C101.625 132.632 76.158 139.385 72.7242 149.4L68.1459 159.988L64.9982 168.572L46.1125 172.006V175.726H70.7212ZM70.7212 175.726L68.1459 171.433" stroke="#2727E6"/>
<path d="M68.7183 164.978C68.7183 162.521 78.4473 162.521 78.4473 164.978C78.4473 165.017 78.4448 165.055 78.44 165.093C78.228 168.397 77.5176 174.512 76.015 175.726H70.8465C69.427 174.865 68.8497 166.508 68.7357 165.155C68.7242 165.097 68.7183 165.038 68.7183 164.978Z" fill="white"/>
<path d="M68.7183 164.978C68.7183 162.521 78.4473 162.521 78.4473 164.978M68.7183 164.978C68.7183 167.434 78.4473 167.434 78.4473 164.978M68.7183 164.978C68.772 165.285 69.3263 174.804 70.8465 175.726H76.015C77.5352 174.497 78.2446 168.253 78.4473 164.978" stroke="#2727E6"/>
<path d="M21.2861 173.873L16.0674 146.539H49.2837L54.6917 173.417H71.6479V175.726H21.2861V173.873Z" fill="white"/>
<path d="M21.2861 173.873H21.7861V173.826L21.7772 173.779L21.2861 173.873ZM16.0674 146.539V146.039H15.4629L15.5763 146.632L16.0674 146.539ZM49.2837 146.539L49.7738 146.44L49.6931 146.039H49.2837V146.539ZM71.6479 173.417H72.1479V172.917H71.6479V173.417ZM71.6479 175.726V176.226H72.1479V175.726H71.6479ZM25.006 172.917C24.7299 172.917 24.506 173.141 24.506 173.417C24.506 173.693 24.7299 173.917 25.006 173.917V172.917ZM0.901611 175.226C0.625469 175.226 0.401611 175.449 0.401611 175.726C0.401611 176.002 0.625469 176.226 0.901611 176.226V175.226ZM21.7772 173.779L16.5585 146.445L15.5763 146.632L20.795 173.967L21.7772 173.779ZM16.0674 147.039H49.2837V146.039H16.0674V147.039ZM48.7935 146.637L54.2015 173.516L55.1819 173.319L49.7738 146.44L48.7935 146.637ZM71.6479 172.917H54.6917V173.917H71.6479V172.917ZM72.1479 175.726V173.417H71.1479V175.726H72.1479ZM21.2861 176.226H71.6479V175.226H21.2861V176.226ZM20.7861 173.873V175.726H21.7861V173.873H20.7861ZM54.6917 172.917H25.006V173.917H54.6917V172.917ZM21.2861 175.226H0.901611V176.226H21.2861V175.226Z" fill="#2727E6"/>
<path fill-rule="evenodd" clip-rule="evenodd" d="M37.9423 162.278C37.9423 163.747 36.7601 164.939 35.3031 164.939C33.8449 164.939 32.6638 163.747 32.6638 162.278C32.6638 160.807 33.8449 159.616 35.3031 159.616C36.7601 159.616 37.9423 160.807 37.9423 162.278Z" fill="#2727E6"/>
<path d="M34.5396 158.08C35.361 157.993 38.7121 156.736 37.8252 155.715C36.4562 154.138 35.0872 156.503 34.5396 158.08Z" fill="#2727E6"/>
<path d="M90.995 139.671C97.6002 139.111 101.04 145.614 100.347 153.406M83.5987 175.439C94.4074 171.058 99.6242 161.531 100.347 153.406M100.347 153.406C101.441 154.742 105.346 156.554 112.213 156.554" stroke="white" stroke-linecap="round"/>
<path d="M74.4416 171.147C78.2798 169.716 74.7277 170.003 79.0199 168.858L85.3151 155.123" stroke="white" stroke-linecap="round"/>
<path d="M72.7242 131.373C71.5796 128.511 70.511 122.535 70.511 122.535C68.9647 112.916 85.2205 108.33 87.076 119.872L87.565 123.046C88.7697 122.852 90.9205 122.646 91.3071 125.051C91.6937 127.456 88.8826 127.908 87.4288 127.833L89.5549 141.059C90.4247 146.469 80.1846 148.116 79.3149 142.705L78.7484 139.182C77.5247 139.256 76.6096 138.701 75.8718 137.668C74.4411 135.665 73.8688 134.234 72.7242 131.373Z" fill="white"/>
<path d="M78.7484 139.182C77.5247 139.256 76.6096 138.701 75.8718 137.668C74.4411 135.665 73.8688 134.234 72.7242 131.373C71.5796 128.511 70.511 122.535 70.511 122.535C68.9647 112.916 85.2205 108.33 87.076 119.872L87.565 123.046C88.7697 122.852 90.9205 122.646 91.3071 125.051C91.6937 127.456 88.8826 127.908 87.4288 127.833L89.5549 141.059C90.4247 146.469 80.1846 148.116 79.3148 142.705L78.7484 139.182ZM78.7484 139.182C81.0017 139.044 83.1867 137.657 84.1674 135.379M87.5054 124.597C88.409 124.452 89.6137 124.258 89.807 125.46" stroke="#2727E6" stroke-linecap="round"/>
<path d="M72.335 119.208C71.7589 118.495 71.5494 117.841 71.5723 117.268C71.5952 116.693 71.8546 116.13 72.3467 115.605C73.345 114.54 75.237 113.711 77.5604 113.445C82.1305 112.922 88.0574 114.612 91.2827 120.439C90.6416 121.786 89.0841 122.834 87.0274 123.457C84.8863 124.104 82.3192 124.251 80.0231 123.838C78.2939 123.528 76.9456 123.069 75.7507 122.35C74.5548 121.63 73.4851 120.633 72.335 119.208Z" fill="#2727E6" stroke="#2727E6"/>
<path d="M71.5523 116.256C71.6305 115.961 71.7005 115.778 71.7539 115.669C71.84 115.756 71.9587 115.903 72.1149 116.132C72.3336 116.452 72.5869 116.874 72.8915 117.388C72.9373 117.465 72.9841 117.544 73.032 117.625C74.1053 119.441 75.7008 122.139 78.1939 124.79C78.1107 124.764 78.0252 124.736 77.9374 124.706C77.205 124.452 76.3515 124.061 75.5112 123.589C74.671 123.118 73.8575 122.574 73.201 122.021C72.5331 121.459 72.0733 120.926 71.8792 120.484C71.5351 119.702 71.3523 119.05 71.3022 118.402C71.2521 117.755 71.3326 117.082 71.5523 116.256ZM71.6404 115.574C71.6404 115.574 71.6407 115.574 71.6413 115.574L71.6404 115.574Z" fill="#2727E6" stroke="#2727E6"/>
<ellipse cx="73.5829" cy="165.997" rx="3.71991" ry="1.14459" fill="#2727E6"/>
<path d="M276.736 119.284C272.713 121.778 260.933 128.765 258.06 131.064" stroke="white" stroke-linecap="round"/>
<path fill-rule="evenodd" clip-rule="evenodd" d="M279.5 175.263C280.143 175.263 281.431 175.301 281.431 173.655C281.431 170.149 273.265 166.644 273.265 166.644H264.192V175.263C264.192 175.263 273.522 175.263 279.5 175.263Z" fill="#2727E6"/>
<path d="M261.894 175.263L301.543 175.263" stroke="#2727E6" stroke-linecap="round"/>
<path fill-rule="evenodd" clip-rule="evenodd" d="M246.81 150.886C246.978 151.514 247.28 152.781 248.753 152.387C251.89 151.549 252.896 142.736 252.896 142.736L250.528 133.875L242.814 135.936C242.814 135.936 245.249 145.048 246.81 150.886Z" fill="#2727E6"/>
<path d="M265.132 167.212C264.863 167.23 264.643 167.245 264.473 167.255L248.321 93.863H266.963C266.985 93.8979 267.009 93.9369 267.036 93.9798C267.179 94.2093 267.389 94.553 267.654 95.0064C268.183 95.9132 268.934 97.2585 269.811 99.0059C271.565 102.501 273.826 107.603 275.846 114.02C279.863 126.784 282.926 144.743 279.163 165.613C274.593 166.298 270.849 166.713 268.231 166.957C266.889 167.082 265.842 167.163 265.132 167.212Z" fill="white" stroke="#2727E6"/>
<path d="M262.742 153.72C262.572 154.351 262.398 154.996 262.222 155.654L248.154 93.5906H265.473C266.07 98.7099 267.327 114.554 267.716 120.133C268.553 132.142 266.474 139.861 262.742 153.72Z" fill="#2727E6" stroke="#2727E6"/>
<path d="M294.361 106.882L276.323 81.583L267.811 81.583C267.811 81.583 264.651 81.3668 265.054 87.9189C265.539 95.7912 272.276 108.501 276.26 115.214C264.869 122.755 261.319 126.419 249.252 135.901L254.03 145.615C254.03 145.615 278.599 135.185 291.775 126.994C302.866 120.098 294.361 106.882 294.361 106.882Z" fill="white" stroke="#2727E6" stroke-linecap="round"/>
<path d="M273.856 101.62L273.856 101.62C272.646 105.393 270.491 109.706 267.201 111.793C262.119 115.014 257.352 115.626 252.975 114.063C248.572 112.491 244.478 108.689 240.834 102.908L240.832 102.906C237.158 97.1431 235.466 91.8182 235.923 87.1657C236.376 82.5397 238.963 78.4895 244.045 75.2679C247.336 73.1814 252.156 73.0736 256.085 73.5884L256.085 73.5884C260.253 74.1343 263.824 71.6047 266.429 68.5621C267.332 67.5079 268.13 66.7891 269.242 66.0845C271.886 64.4079 274.275 63.8771 276.512 64.2995C278.76 64.724 280.936 66.1269 283.117 68.484L283.118 68.484C286.783 72.4454 288.05 74.6326 289.92 79.1612C291.17 82.1864 291.544 84.7929 290.984 87.0382C290.427 89.2707 288.927 91.2278 286.256 92.9211C285.144 93.6259 284.153 94.0418 282.814 94.4087C278.951 95.466 275.14 97.6175 273.856 101.62Z" fill="#2727E6" stroke="#2727E6"/>
<path d="M251.712 37.0366C235.104 37.0366 220.379 48.2056 220.347 67.0002L221.248 70.5957L240.704 78.8723L290.675 64.6642C286.733 56.7237 282.406 49.889 276.457 45.0038C270.39 40.0216 262.598 37.0366 251.712 37.0366Z" fill="#2727E6" stroke="#2727E6"/>
<path fill-rule="evenodd" clip-rule="evenodd" d="M250.318 34.9937C252.542 35.4047 255.052 36.2319 256.21 33.4916C257.1 31.3856 256.017 29.8556 255.647 27.8726C254.998 24.3889 254.391 21.1287 257.217 18.6708C258.124 17.8817 259.199 17.649 259.967 16.5973C261.805 14.0766 262.087 10.7731 260.443 8.01178C257.116 2.42558 250.769 2.16737 245.58 3.65406C243.286 4.31116 241.056 5.63888 239.603 7.82198C238.262 9.84092 237.709 12.4063 237.605 14.9185C237.504 17.3209 237.722 19.7996 236.582 21.9466C235.008 24.9094 231.426 30.0629 231.533 33.9052C231.603 36.4426 233.676 39.116 235.535 40.1077C237.46 41.1321 239.534 41.0329 241.501 40.197C243.465 39.3618 246.207 35.1434 248.335 34.8547C248.932 34.7739 249.61 34.8623 250.318 34.9937Z" fill="#2727E6"/>
<path d="M260.919 23.9774L260.02 13.6248C259.122 3.27221 241.113 2.74912 242.192 15.1722L242.51 18.582C241.213 18.6945 238.935 19.0404 239.159 21.6285C239.384 24.2167 242.409 23.9541 243.894 23.4993L245.13 37.7341C245.635 43.5574 256.656 42.6008 256.151 36.7775L255.822 32.9853C257.107 32.7445 258.317 32.1171 259.25 31.0908C260.615 29.5878 261.384 27.2294 260.919 23.9774Z" fill="white"/>
<path d="M247.741 26.425C248.17 31.3772 252.28 33.6488 255.822 32.9853M255.822 32.9853C257.107 32.7445 258.317 32.1171 259.25 31.0908C260.615 29.5878 261.384 27.2294 260.919 23.9774L260.02 13.6248C259.122 3.27221 241.113 2.74912 242.192 15.1722L242.51 18.582C241.213 18.6945 238.935 19.0404 239.159 21.6285C239.384 24.2167 242.409 23.9541 243.894 23.4993L245.13 37.7341C245.635 43.5574 256.656 42.6008 256.151 36.7775L255.822 32.9853ZM242.974 20.1714C242.002 20.2558 240.705 20.3683 240.818 21.6625M257.871 17.8608C257.105 17.2881 255.343 16.6306 254.423 18.582" stroke="#2727E6" stroke-linecap="round"/>
<path d="M261.324 30.5912L261.318 30.6089L261.312 30.6271C260.921 31.9872 259.852 33.1219 258.605 33.3214L258.582 33.325L258.56 33.3306C256.879 33.7591 254.282 33.7687 252.078 32.6716C250.092 31.6831 248.376 29.7734 247.955 26.3126C251.072 28.1057 253.943 28.7009 257.122 28.7009H257.137L257.151 28.7C258.089 28.6456 259.028 28.272 259.797 27.7256C260.248 27.4052 260.654 27.015 260.972 26.577C261.164 27.0755 261.327 27.602 261.43 28.1312C261.6 29.0065 261.598 29.8552 261.324 30.5912Z" fill="#2727E6" stroke="#2727E6"/>
<path d="M239.312 13.2467C239.318 13.2389 239.325 13.2306 239.331 13.222C239.407 13.1291 239.519 12.9927 239.667 12.8216C239.961 12.4793 240.393 11.999 240.939 11.451C242.035 10.3525 243.579 8.99389 245.391 7.92773C247.204 6.86024 249.253 6.1047 251.368 6.16395C253.261 6.21697 255.253 6.92314 257.222 8.72888C255.747 9.15171 254.435 9.93489 253.235 10.8631C251.992 11.8256 250.843 12.9659 249.754 14.0468C249.586 14.214 249.418 14.3799 249.253 14.5434C247.999 15.7798 246.826 16.8796 245.615 17.5794C244.423 18.2686 243.229 18.5498 241.912 18.1931C240.906 17.9207 240.221 17.248 239.801 16.3403C239.393 15.4598 239.239 14.3638 239.312 13.2467Z" fill="#2727E6" stroke="#2727E6"/>
<ellipse rx="3.39033" ry="3.39057" transform="matrix(-0.792462 0.609921 -0.609922 -0.792461 252.283 18.5008)" fill="#2727E6"/>
<ellipse cx="259.724" cy="17.0519" rx="2.90599" ry="2.9062" transform="rotate(142.416 259.724 17.0519)" fill="#2727E6"/>
<path d="M302.515 69.4077C302.663 68.5273 302.587 67.7703 302.452 66.7144C302.403 66.7228 302.35 66.7317 302.295 66.7411C301.862 66.8133 301.242 66.9108 300.489 67.012C298.985 67.2143 296.943 67.4324 294.802 67.4936C292.666 67.5548 290.406 67.4607 288.476 67.0269C286.565 66.5974 284.864 65.8096 284 64.3887C283.077 62.8692 282.122 61.7533 281.267 60.8507C280.982 60.5503 280.699 60.265 280.428 59.9923C279.909 59.4688 279.436 58.992 279.085 58.5444C278.522 57.8269 278.171 57.0679 278.319 56.1039C278.446 55.2713 278.938 54.3536 279.813 53.2249C278.411 51.6946 276.898 49.9334 275.71 48.5243C275.075 47.7702 274.532 47.1157 274.147 46.6497C274.02 46.4955 273.91 46.3619 273.82 46.2521C270.962 48.1538 269.387 50.5563 268.691 53.2857C267.962 56.1492 268.192 59.4083 268.997 62.8771C270.178 67.9635 272.558 73.3741 274.815 78.5047C275.649 80.3985 276.465 82.2541 277.198 84.0412C278.129 86.3096 279.664 87.3431 281.525 87.5481C283.434 87.7584 285.749 87.101 288.175 85.8144C293.02 83.2446 298.061 78.2986 300.723 73.6394C301.863 71.6442 302.344 70.4263 302.515 69.4077Z" fill="#2727E6" stroke="#2727E6"/>
<path d="M229.922 65.7266L278.483 53.9466C278.483 53.9466 287.366 90.6197 283.057 91.7015C277.334 93.138 257.198 101.183 250.015 109.802C244.965 115.863 229.922 65.7266 229.922 65.7266Z" fill="#2727E6"/>
<path d="M272.034 98.9144L272.034 98.9145C270.823 102.688 268.669 107.001 265.378 109.088C260.297 112.309 255.53 112.921 251.153 111.358C246.75 109.786 242.656 105.984 239.012 100.202L239.01 100.2C235.336 94.4378 233.644 89.1128 234.1 84.4604C234.554 79.8344 237.141 75.7842 242.222 72.5625C245.513 70.4761 250.333 70.3682 254.263 70.8831L254.263 70.8831C258.431 71.4289 262.002 68.8994 264.606 65.8568C265.509 64.8025 266.308 64.0838 267.42 63.3791C270.064 61.7026 272.453 61.1718 274.689 61.5941C276.937 62.0187 279.114 63.4216 281.295 65.7786L281.295 65.7786C284.961 69.74 286.228 71.9273 288.098 76.4559C289.347 79.4811 289.721 82.0876 289.161 84.3328C288.605 86.5653 287.104 88.5225 284.433 90.2158C283.322 90.9206 282.331 91.3365 280.992 91.7034C277.129 92.7606 273.318 94.9121 272.034 98.9144Z" fill="white" stroke="#2727E6"/>
<path d="M272.425 56.6486C275.13 58.248 278.459 63.2569 276.735 72.7384" stroke="white" stroke-linecap="round"/>
<rect x="266.768" y="77.4124" width="51.8483" height="6.47023" transform="rotate(-32.3739 266.768 77.4124)" fill="white" stroke="#2727E6"/>
<path d="M318.234 53.1727L308.001 60.9219L302.731 52.6093L313.963 46.4355L318.234 53.1727Z" fill="white" stroke="#2727E6"/>
<rect width="1.72389" height="2.87316" transform="matrix(0.882759 -0.469825 0.46982 0.882762 309.49 45.3916)" fill="#2727E6"/>
<rect width="1.7239" height="2.87316" transform="matrix(0.802721 -0.596355 0.596357 0.802719 315.793 55.3784)" fill="#2727E6"/>
<rect width="1.7239" height="2.87317" transform="matrix(0.882761 -0.469822 0.469823 0.882761 306.042 47.1155)" fill="#2727E6"/>
<rect width="1.7239" height="2.87316" transform="matrix(0.802721 -0.596355 0.596357 0.802719 312.642 57.5977)" fill="#2727E6"/>
<rect width="1.72389" height="2.87316" transform="matrix(0.88276 -0.469824 0.469821 0.882762 302.594 48.8394)" fill="#2727E6"/>
<rect width="1.7239" height="2.87317" transform="matrix(0.802718 -0.596359 0.596353 0.802722 309.49 59.8171)" fill="#2727E6"/>
<path d="M295.3 66.7944L294.087 63.4912L292.844 58.9576C293.395 58.5363 294.709 58.4323 295.34 59.9262C295.721 59.6006 297.13 59.5092 297.572 60.3367C298.202 59.6469 299.529 60.0772 299.825 61.0322C300.337 60.7452 301.528 60.5023 302.025 61.8766C302.534 63.2794 302.63 64.7324 302.881 67.2796L295.3 70.1528L293.68 67.838L295.3 66.7944Z" fill="white"/>
<path d="M295.34 59.9262C295.688 61.0753 296.353 63.0372 296.512 63.9565M295.34 59.9262C294.709 58.4323 293.395 58.5363 292.844 58.9576L294.087 63.4912L295.3 66.7944L293.68 67.838L295.3 70.1528L302.881 67.2796C302.63 64.7324 302.534 63.2794 302.025 61.8766C301.528 60.5023 300.337 60.7452 299.825 61.0322M295.34 59.9262C295.721 59.6006 297.13 59.5092 297.572 60.3367M297.572 60.3367C298.014 61.1641 298.612 62.6269 298.77 63.5461M297.572 60.3367C298.202 59.6469 299.529 60.0772 299.825 61.0322M299.825 61.0322C300.12 61.9872 299.631 60.482 300.529 63.3822" stroke="#2727E6" stroke-linecap="round"/>
<ellipse cx="264.939" cy="82.3442" rx="5.95404" ry="5.95404" transform="rotate(-32.3739 264.939 82.3442)" fill="#2727E6"/>
<path d="M262.57 82.5793L251.985 83.1841L250.569 91.5433C253.188 92.1544 259.048 93.0517 260.615 93.0208C262.15 92.9906 262.311 91.7237 262.199 91.1177C263.249 91.1468 264.126 89.9717 263.653 89.1121C264.625 88.9525 265.011 87.5197 264.816 87.0312C266.515 86.9083 266.856 85.5668 266.624 84.8762L261.694 84.5795C262.61 83.9302 262.803 83.2699 262.57 82.5793Z" fill="white"/>
<path d="M261.694 84.5795C262.61 83.9302 262.803 83.2699 262.57 82.5793L251.985 83.1841L250.569 91.5433C253.188 92.1544 259.048 93.0517 260.615 93.0208C262.15 92.9906 262.311 91.7237 262.199 91.1177M261.694 84.5795L258.546 84.4684M261.694 84.5795L266.624 84.8762C266.856 85.5668 266.515 86.9083 264.816 87.0312M264.816 87.0312C263.555 86.9883 261.379 86.9867 260.411 86.8333M264.816 87.0312C265.011 87.5197 264.625 88.9525 263.653 89.1121M263.653 89.1121C262.68 89.2718 261.023 89.3717 260.055 89.2183M263.653 89.1121C264.126 89.9717 263.249 91.1468 262.199 91.1177M262.199 91.1177C261.149 91.0885 262.812 91.1107 259.624 91.0229" stroke="#2727E6" stroke-linecap="round"/>
<path d="M234.842 41.4107C228.255 45.1398 222.587 52.1229 219.683 59.7358C216.668 67.6399 216.671 76.1021 221.55 82.2724C228.208 90.6912 239.569 95.4774 252.125 92.1579C252.081 89.2582 251.889 85.4295 251.755 82.7448C251.752 82.6984 251.75 82.6523 251.748 82.6066C251.562 82.6156 251.329 82.6247 251.058 82.6311C250.311 82.6488 249.266 82.6466 248.069 82.5666C245.687 82.4074 242.652 81.9376 240.176 80.6662C236.646 78.8532 234.638 76.0752 234.165 73.0555C233.71 70.1557 234.681 67.1048 236.948 64.568C236.647 64.0688 236.403 63.4209 236.197 62.6904C235.935 61.7587 235.723 60.6414 235.55 59.418C235.206 56.9704 235.016 54.0555 234.914 51.2648C234.812 48.4717 234.799 45.7922 234.812 43.8117C234.818 42.8211 234.83 42.0049 234.841 41.4359C234.841 41.4275 234.842 41.419 234.842 41.4107Z" fill="#2727E6" stroke="#2727E6"/>
<path d="M247.429 81.3578C242.217 81.628 237.828 79.7066 234.199 73.8726C232.54 71.2046 230.666 65.2112 238.722 57.5785" stroke="white" stroke-linecap="round"/>
<path d="M250.713 93.1296C261.963 107.314 264.685 121.726 264.579 132.641C264.525 138.175 263.744 142.811 262.978 146.06C262.595 147.685 262.215 148.962 261.932 149.831C261.791 150.265 261.674 150.598 261.592 150.82C261.563 150.899 261.539 150.965 261.52 151.016L256.004 154.892C255.851 154.643 255.637 154.291 255.376 153.843C254.809 152.87 254.016 151.445 253.117 149.641C251.317 146.033 249.093 140.916 247.394 134.882C244.045 122.983 242.754 107.577 250.713 93.1296Z" fill="white" stroke="#2727E6"/>
<path d="M273.897 108.945C277.15 122.884 274.251 134.123 270.504 141.914C268.597 145.879 266.47 148.952 264.822 151.032C263.998 152.071 263.294 152.862 262.798 153.391C262.55 153.656 262.354 153.855 262.221 153.987C262.184 154.024 262.152 154.055 262.125 154.081L256.974 154.987C256.949 154.767 256.919 154.478 256.888 154.128C256.808 153.236 256.719 151.942 256.68 150.339C256.603 147.133 256.73 142.697 257.544 137.778C259.145 128.115 263.39 116.65 273.897 108.945Z" fill="white" stroke="#2727E6"/>
<path fill-rule="evenodd" clip-rule="evenodd" d="M260.132 108.292L254.395 122.584L260.132 108.292Z" fill="white"/>
<path d="M270.12 163.094C270.123 168.74 265.546 173.317 259.899 173.317C254.251 173.317 249.671 168.74 249.669 163.094C249.667 157.448 255.079 152.57 255.079 152.57C255.079 152.57 262.728 152.283 263.801 152.871C266.737 154.481 270.119 158.959 270.12 163.094Z" fill="#2727E6"/>
<ellipse rx="2.70662" ry="4.05931" transform="matrix(0.882382 0.470862 -0.470734 0.8821 255.667 161.443)" fill="#4646EF"/>
<path d="M249.063 151.298H270.116L268.313 154.906H250.869L249.063 151.298Z" fill="#2727E6"/>
<path d="M254.539 171.195H265.366L267.172 175.675H252.134L254.539 171.195Z" fill="#2727E6"/>
<path d="M161.896 87.0502C161.896 88.2877 162.824 98.8065 162.824 98.8065L166.536 108.397C169.424 108.603 175.694 109.016 177.674 109.016C179.654 109.016 179.325 107.474 179.221 106.541C178.602 100.972 176.684 91.1958 176.437 89.2158C176.189 87.2358 174.683 86.3283 173.962 86.1221C171.383 85.8127 165.597 84.7671 164.061 84.5752C161.587 84.2658 161.896 85.8127 161.896 87.0502Z" fill="#2727E6" stroke="#2727E6"/>
<path d="M238.621 125.862L247.283 171.65L254.09 174.125C254.296 174.434 254.709 175.177 254.709 175.672H252.079H249.449H239.549H194.999H185.872H176.746L159.73 157.13L158.802 157.693V168.865H146.118V165.772L132.196 173.815L123.533 161.44C136.217 152.365 159.328 130.268 160.967 128.956C162.514 127.718 164.63 126.481 165.533 126.172C164.424 120.912 162.143 110.146 161.896 109.156C161.648 108.166 161.099 105.408 160.967 102.968C160.792 99.702 161.586 96.1001 161.586 94.6152C161.586 93.1302 162.411 93.3776 162.824 93.687V98.3276L164.989 93.9964C165.484 92.7589 166.846 93.0683 166.846 93.9964L165.533 100.69C167.505 98.479 170.139 95.5785 171.177 94.6152C172.511 93.3776 172.97 94.512 173.033 95.2339L169.51 102.04C170.745 100.929 172.137 99.6934 173.033 98.9465C174.518 97.7089 175.096 98.4308 175.199 98.9465L172.105 106.371C173.033 107.196 174.951 108.908 175.199 109.156C175.351 109.308 176.687 112.995 178.076 116.912L181.696 111.631C183.758 112.25 188.131 113.92 189.121 115.653C190.111 117.385 188.708 126.481 187.883 130.812C187.058 135.143 181.386 137 181.386 137L206.755 166.7C204.59 172.578 198.505 175.053 194.999 175.672H239.549L220.677 135.453L238.621 125.862Z" fill="white"/>
<path d="M247.283 171.65L238.621 125.862L220.677 135.453L239.549 175.672H249.449M247.283 171.65L254.09 174.125C254.296 174.434 254.709 175.177 254.709 175.672H252.079M247.283 171.65C246.562 171.547 244.994 171.341 244.499 171.341M249.449 175.672C249.449 175.156 248.769 174.063 246.046 173.816M249.449 175.672H252.079M252.079 175.672C252.027 175.259 251.739 174.372 250.996 174.125M178.076 116.912L181.696 111.631C183.758 112.25 188.131 113.92 189.121 115.653C190.111 117.385 188.708 126.481 187.883 130.812C187.058 135.143 181.386 137 181.386 137M178.076 116.912C178.94 119.35 179.825 121.877 180.458 123.697M178.076 116.912C176.687 112.995 175.351 109.308 175.199 109.156C174.951 108.908 173.033 107.196 172.105 106.371L175.199 98.9465C175.096 98.4308 174.518 97.7089 173.033 98.9465C172.137 99.6934 170.745 100.929 169.51 102.04M167.464 103.896C167.955 103.447 168.698 102.77 169.51 102.04M169.51 102.04L173.033 95.2339C172.97 94.512 172.511 93.3776 171.177 94.6152C170.139 95.5785 167.505 98.479 165.533 100.69M164.061 102.35C164.464 101.893 164.972 101.319 165.533 100.69M165.533 100.69L166.846 93.9964C166.846 93.0683 165.484 92.7589 164.989 93.9964L162.824 98.3276M162.824 98.3276V93.687C162.411 93.3776 161.586 93.1302 161.586 94.6152C161.586 96.1001 160.792 99.702 160.967 102.968C161.099 105.408 161.648 108.166 161.896 109.156C162.143 110.146 164.424 120.912 165.533 126.172M162.824 98.3276L162.205 99.2558M165.533 126.172C167.517 125.965 170.558 125.553 174.271 128.956C176.864 131.333 179.943 135.453 181.386 137M165.533 126.172C164.63 126.481 162.514 127.718 160.967 128.956C159.328 130.268 136.217 152.365 123.533 161.44L132.196 173.815L146.118 165.772M181.386 137L206.755 166.7C204.59 172.578 198.505 175.053 194.999 175.672M159.73 157.13L164.68 154.015L185.872 175.672M159.73 157.13L176.746 175.672M159.73 157.13L158.802 157.693M176.746 175.672H185.872M176.746 175.672H112.396M194.999 175.672H185.872M194.999 175.672H269.559M158.802 157.693V168.865H146.118V165.772M158.802 157.693L146.118 165.772" stroke="#2727E6" stroke-linecap="round"/>
<path d="M220.445 134.87L220.017 135.095L220.227 135.531L224.779 144.939C224.777 144.947 224.774 144.954 224.772 144.962C224.725 145.102 224.654 145.309 224.561 145.575C224.375 146.107 224.097 146.876 223.735 147.818C223.008 149.703 221.941 152.279 220.577 155.047C217.904 160.468 214.137 166.522 209.623 169.616C205.568 165.066 198.724 156.868 192.832 149.729C189.817 146.075 187.052 142.702 185.042 140.242C184.036 139.012 183.219 138.01 182.654 137.316C182.373 136.971 182.155 136.702 182.005 136.519C182.288 136.097 182.602 135.656 182.933 135.194C184.185 133.439 185.668 131.363 186.504 128.736C187.632 125.19 187.606 120.65 184.623 114.37L184.59 114.302L184.54 114.247L181.403 110.825L186.253 103.649L186.26 103.639L186.267 103.627C186.505 103.234 186.764 102.85 187.045 102.476C190.451 97.9553 197.156 94.8928 207.625 94.9575C217.032 95.0156 225.537 97.7897 231.513 102.837C237.419 107.825 240.884 115.055 240.306 124.181L232.814 128.377L220.445 134.87Z" fill="#2727E6" stroke="#2727E6"/>
<path d="M191.568 116.476C190.636 120.07 189.415 122.614 187.884 125.788" stroke="white" stroke-linecap="round"/>
<path d="M215.062 121.082C216.861 124.329 218.09 127.185 220.007 133.197" stroke="white" stroke-linecap="round"/>
<path d="M194.914 82.9012V71.7119C194.914 60.5225 214.184 58.2847 214.184 71.7119L214.16 75.3994C215.561 75.3994 218.038 75.5582 218.038 78.3556C218.038 81.1529 214.768 81.1529 213.133 80.8032V96.1886C213.133 102.483 201.221 102.483 201.221 96.1886V92.0899C199.819 91.9513 198.463 91.3909 197.367 90.3767C195.762 88.8915 194.717 86.4332 194.914 82.9012Z" fill="white"/>
<path d="M209.279 84.2999C209.279 89.6524 205.081 92.4719 201.221 92.0899M201.221 92.0899C199.819 91.9513 198.463 91.3909 197.367 90.3767C195.762 88.8915 194.717 86.4332 194.914 82.9012V71.7119C194.914 60.5225 214.184 58.2847 214.184 71.7119L214.16 75.3994C215.561 75.3994 218.038 75.5582 218.038 78.3556C218.038 81.1529 214.768 81.1529 213.133 80.8032V96.1886C213.133 102.483 201.221 102.483 201.221 96.1886V92.0899ZM213.809 77.1476C214.86 77.1476 216.262 77.1476 216.262 78.5464" stroke="#2727E6" stroke-linecap="round"/>
<path d="M188.457 66.0475C188.634 65.9836 188.876 65.8968 189.176 65.7917C189.852 65.555 190.817 65.2253 191.977 64.8542C194.298 64.1113 197.387 63.2045 200.475 62.5432C203.576 61.8793 206.626 61.474 208.887 61.7042C210.019 61.8195 210.897 62.089 211.484 62.5148C212.044 62.9211 212.369 63.4892 212.381 64.3177C212.394 65.2719 212.008 66.4236 211.26 67.6405C210.517 68.8502 209.44 70.087 208.133 71.2016C205.51 73.4369 202.024 75.1279 198.559 75.1765C195.937 75.2132 193.422 74.0778 191.549 72.2989C189.765 70.6046 188.595 68.3574 188.457 66.0475Z" fill="#2727E6" stroke="#2727E6"/>
<path d="M209.461 80.9212C209.465 80.8579 209.47 80.79 209.476 80.7176C209.514 80.2123 209.574 79.4919 209.66 78.6335C209.832 76.9152 210.105 74.6506 210.514 72.453C210.925 70.2441 211.464 68.1466 212.152 66.7377C212.499 66.0284 212.856 65.5511 213.204 65.304C213.515 65.0831 213.821 65.0387 214.197 65.2122C214.679 65.4347 215.232 65.9645 215.739 66.7377C216.238 67.5 216.66 68.4512 216.905 69.4485C217.402 71.4712 217.143 73.5043 215.612 74.6497C215.252 74.9195 214.885 75.0379 214.485 75.1108C214.306 75.1433 214.128 75.1657 213.936 75.1899C213.906 75.1937 213.876 75.1974 213.845 75.2013C213.624 75.2294 213.384 75.2619 213.142 75.3164C212.422 75.4788 212.046 76.1006 211.808 76.6778C211.646 77.0714 211.508 77.5525 211.375 78.019C211.313 78.2365 211.251 78.4509 211.189 78.6517C210.979 79.3263 210.741 79.9138 210.389 80.3319C210.154 80.6112 209.862 80.8229 209.461 80.9212Z" fill="#2727E6" stroke="#2727E6"/>
<path d="M166.135 86.5711L164.864 86.3592C164.12 86.2352 163.443 86.809 163.443 87.5633C163.443 88.16 163.874 88.6692 164.463 88.7673L165.734 88.9792C166.478 89.1032 167.155 88.5294 167.155 87.7751C167.155 87.1784 166.724 86.6692 166.135 86.5711Z" fill="white"/>
<path fill-rule="evenodd" clip-rule="evenodd" d="M117.093 163.295C116.765 162.799 116.082 161.824 117.244 161.055C119.72 159.418 126.358 164.075 126.358 164.075L132.22 172.306L127.246 175.725C126.627 176.034 125.809 175.843 125.389 175.209C123.933 173.006 119.403 166.789 117.093 163.295Z" fill="#2727E6"/>
<path fill-rule="evenodd" clip-rule="evenodd" d="M142.025 175.755C141.43 175.755 140.24 175.787 140.24 174.394C140.24 171.425 147.786 168.457 147.786 168.457L157.885 168.107L157.993 174.142C157.91 174.828 157.299 175.406 156.539 175.406C153.898 175.406 146.213 175.755 142.025 175.755Z" fill="#2727E6"/>
</svg>
