<svg width="72" height="72" viewBox="0 0 72 72" fill="none" xmlns="http://www.w3.org/2000/svg">
<path d="M36 36C28.545 36 22.5 29.955 22.5 22.5C22.5 15.045 28.545 9 36 9C43.458 9 49.5 15.045 49.5 22.5C49.5 29.955 43.458 36 36 36Z" stroke="#2727E6" stroke-width="2" stroke-linecap="round" stroke-linejoin="round"/>
<path d="M33.75 20.25L36 18V27" stroke="#2727E6" stroke-width="2" stroke-linecap="round" stroke-linejoin="round"/>
<path d="M33.75 27H38.25" stroke="#2727E6" stroke-width="2" stroke-linecap="round" stroke-linejoin="round"/>
<path d="M63 30.012L43.713 45.438C39.366 48.912 33.204 48.945 28.821 45.516L9 30" stroke="#2727E6" stroke-width="2" stroke-linecap="round" stroke-linejoin="round"/>
<path d="M45.1181 44.3101L62.4581 59.8501" stroke="#2727E6" stroke-width="2" stroke-linecap="round" stroke-linejoin="round"/>
<path d="M9.63187 59.9999L27.0019 44.0999" stroke="#2727E6" stroke-width="2" stroke-linecap="round" stroke-linejoin="round"/>
<path d="M49.416 24H57C60.315 24 63 26.685 63 30V57C63 60.315 60.315 63 57 63H15C11.685 63 9 60.315 9 57V30C9 26.685 11.685 24 15 24H22.587" stroke="#2727E6" stroke-width="2" stroke-linecap="round" stroke-linejoin="round"/>
</svg>
