<svg width="72" height="72" viewBox="0 0 72 72" fill="none" xmlns="http://www.w3.org/2000/svg">
<path d="M26.8336 17.4164C30.0555 20.6382 30.0555 25.8618 26.8336 29.0836C23.6118 32.3055 18.3882 32.3055 15.1664 29.0836C11.9445 25.8618 11.9445 20.6382 15.1664 17.4164C18.3882 14.1945 23.6118 14.1945 26.8336 17.4164" stroke="#1F1FDE" stroke-width="2" stroke-linecap="round" stroke-linejoin="round"/>
<path d="M56.8336 17.4164C60.0554 20.6382 60.0554 25.8618 56.8336 29.0836C53.6118 32.3055 48.3881 32.3055 45.1663 29.0836C41.9445 25.8618 41.9445 20.6382 45.1663 17.4164C48.3881 14.1945 53.6118 14.1945 56.8336 17.4164" stroke="#1F1FDE" stroke-width="2" stroke-linecap="round" stroke-linejoin="round"/>
<path d="M66 57C66 48.717 59.283 42 51 42C42.717 42 36 48.717 36 57C36 48.717 29.283 42 21 42C12.717 42 6 48.717 6 57" stroke="#1F1FDE" stroke-width="2" stroke-linecap="round" stroke-linejoin="round"/>
</svg>
