<svg width="25" height="24" viewBox="0 0 25 24" fill="none" xmlns="http://www.w3.org/2000/svg">
<path d="M12.1661 13.4099L16.4561 17.7099C16.6444 17.8982 16.8998 18.004 17.1661 18.004C17.4324 18.004 17.6878 17.8982 17.8761 17.7099C18.0644 17.5216 18.1702 17.2662 18.1702 16.9999C18.1702 16.7336 18.0644 16.4782 17.8761 16.2899L13.5761 11.9999L17.8761 7.70994C18.0644 7.52164 18.1702 7.26624 18.1702 6.99994C18.1702 6.73364 18.0644 6.47824 17.8761 6.28994C17.6878 6.10164 17.4324 5.99585 17.1661 5.99585C16.8998 5.99585 16.6444 6.10164 16.4561 6.28994L12.1661 10.5899L7.87607 6.28994C7.78311 6.19621 7.67251 6.12182 7.55065 6.07105C7.42879 6.02028 7.29809 5.99414 7.16607 5.99414C7.03406 5.99414 6.90336 6.02028 6.7815 6.07105C6.65964 6.12182 6.54904 6.19621 6.45608 6.28994C6.36235 6.3829 6.28795 6.4935 6.23718 6.61536C6.18641 6.73722 6.16028 6.86793 6.16028 6.99994C6.16028 7.13195 6.18641 7.26266 6.23718 7.38452C6.28795 7.50637 6.36235 7.61698 6.45608 7.70994L10.7561 11.9999L6.45608 16.2899C6.36235 16.3829 6.28795 16.4935 6.23718 16.6154C6.18641 16.7372 6.16028 16.8679 6.16028 16.9999C6.16028 17.1319 6.18641 17.2627 6.23718 17.3845C6.28795 17.5064 6.36235 17.617 6.45608 17.7099C6.54904 17.8037 6.65964 17.8781 6.7815 17.9288C6.90336 17.9796 7.03406 18.0057 7.16607 18.0057C7.29809 18.0057 7.42879 17.9796 7.55065 17.9288C7.67251 17.8781 7.78311 17.8037 7.87607 17.7099L12.1661 13.4099Z" fill="#C2C2D0"/>
</svg>
