<svg width="120" height="56" viewBox="0 0 120 56" fill="none" xmlns="http://www.w3.org/2000/svg">
<path d="M4.78897 45.4557C5.04063 45.5693 5.3368 45.4575 5.45048 45.2058L7.30305 41.1049C7.41673 40.8532 7.30488 40.557 7.05323 40.4434C6.80157 40.3297 6.50541 40.4415 6.39172 40.6932L4.74499 44.3385L1.09969 42.6918C0.84803 42.5781 0.551864 42.6899 0.438179 42.9416C0.324497 43.1932 0.436347 43.4894 0.688002 43.6031L4.78897 45.4557ZM43.6703 23.175C43.8532 23.3819 44.1692 23.4013 44.3761 23.2184C44.583 23.0355 44.6024 22.7195 44.4195 22.5127L43.6703 23.175ZM5.46257 44.8233C3.15301 38.7078 4.02917 33.9483 6.66453 30.3155C9.32254 26.6515 13.8187 24.0677 18.8607 22.4505C23.8949 20.8358 29.4136 20.2044 34.041 20.4001C36.3544 20.498 38.4305 20.802 40.1035 21.2852C41.7905 21.7725 43.007 22.4248 43.6703 23.175L44.4195 22.5127C43.5701 21.5519 42.1366 20.8316 40.381 20.3245C38.6114 19.8134 36.4525 19.5012 34.0833 19.401C29.3453 19.2006 23.7083 19.8454 18.5553 21.4982C13.4102 23.1485 8.68785 25.8234 5.85509 29.7283C2.99969 33.6644 2.11282 38.784 4.52706 45.1766L5.46257 44.8233Z" fill="#2727E6"/>
<path d="M34.5381 6.78C34.5914 6.72667 34.6914 6.68667 34.8381 6.66C34.9981 6.63333 35.1514 6.62 35.2981 6.62C35.3647 6.62 35.4447 6.64667 35.5381 6.7C35.6447 6.74 35.7381 6.80667 35.8181 6.9C35.8047 7.47333 35.7981 7.94667 35.7981 8.32C35.7981 8.68 35.7981 9.03333 35.7981 9.38C35.7981 11.1 35.9114 12.4 36.1381 13.28C36.3647 14.16 36.7647 14.6 37.3381 14.6C37.4581 14.6 37.6447 14.58 37.8981 14.54C38.1514 14.4867 38.4114 14.4133 38.6781 14.32C38.9447 14.2267 39.1914 14.1267 39.4181 14.02C39.6581 13.9 39.8181 13.7667 39.8981 13.62C40.1247 13.2067 40.2714 12.7733 40.3381 12.32C40.4181 11.8667 40.4581 11.3933 40.4581 10.9C40.4581 10.2467 40.4447 9.69333 40.4181 9.24C40.3914 8.78667 40.3647 8.4 40.3381 8.08C40.3114 7.76 40.2847 7.49333 40.2581 7.28C40.2314 7.06667 40.2181 6.86667 40.2181 6.68C40.2181 6.46667 40.3781 6.36 40.6981 6.36C40.9781 6.36 41.1781 6.47333 41.2981 6.7C41.4314 6.92667 41.5181 7.22 41.5581 7.58C41.5981 7.92667 41.6114 8.31333 41.5981 8.74C41.5847 9.15333 41.5781 9.54667 41.5781 9.92V11.6V14C41.5781 15 41.5714 15.9867 41.5581 16.96C41.5581 17.92 41.5381 18.9 41.4981 19.9C41.4981 19.9667 41.5181 20.02 41.5581 20.06C41.6114 20.1133 41.6381 20.1733 41.6381 20.24C41.6381 20.4267 41.5181 20.5667 41.2781 20.66C41.0381 20.7533 40.8047 20.8 40.5781 20.8C40.4447 20.8 40.3314 20.78 40.2381 20.74C40.1581 20.7133 40.1181 20.6667 40.1181 20.6C40.1181 20.4667 40.1247 20.34 40.1381 20.22C40.1647 20.1 40.1914 19.9267 40.2181 19.7C40.2581 19.4733 40.2914 19.1733 40.3181 18.8C40.3581 18.4133 40.3914 17.8933 40.4181 17.24V17.02C40.4181 16.9533 40.4181 16.8667 40.4181 16.76C40.4314 16.6533 40.4381 16.5267 40.4381 16.38C40.4381 16.1533 40.4314 15.8667 40.4181 15.52C40.4181 15.1733 40.4047 14.8133 40.3781 14.44C40.2581 14.56 40.0781 14.68 39.8381 14.8C39.6114 14.9067 39.3647 15.0067 39.0981 15.1C38.8447 15.18 38.6047 15.2467 38.3781 15.3C38.1514 15.3533 37.9847 15.38 37.8781 15.38C37.4114 15.38 36.8981 15.2533 36.3381 15C35.8714 14.8 35.5181 14.4867 35.2781 14.06C35.0381 13.6333 34.8581 13.0933 34.7381 12.44C34.6314 11.7867 34.5714 11.02 34.5581 10.14C34.5447 9.24667 34.5381 8.24 34.5381 7.12V6.78ZM50.4431 12.16C50.3364 12.7467 50.2364 13.3333 50.1431 13.92C50.0231 14.5467 49.9631 15.1333 49.9631 15.68L49.9431 21.94C49.9431 22.8333 49.6697 23.54 49.1231 24.06C48.5897 24.5933 47.8697 24.86 46.9631 24.86C46.4697 24.86 45.9164 24.7267 45.3031 24.46C44.5964 24.1667 44.1097 23.8 43.8431 23.36C43.7764 23.24 43.7431 23.12 43.7431 23C43.7431 22.6133 43.9297 22.42 44.3031 22.42C44.3831 22.42 44.4697 22.4467 44.5631 22.5C44.7897 22.74 45.0164 22.9733 45.2431 23.2C45.6964 23.6133 46.2697 23.82 46.9631 23.82C47.8431 23.82 48.4297 23.5133 48.7231 22.9C48.8964 22.5133 48.9831 21.8133 48.9831 20.8C48.9831 20.6667 48.9564 20.4 48.9031 20C48.8497 19.6667 48.8364 19.3733 48.8631 19.12C48.4897 19.4667 48.2231 19.6867 48.0631 19.78C47.7697 19.9667 47.4497 20.06 47.1031 20.06C46.1964 20.06 45.5097 19.7067 45.0431 19C44.6297 18.3867 44.4231 17.6067 44.4231 16.66C44.4231 14.86 44.4497 13.34 44.5031 12.1C44.5564 11.6733 44.7897 11.46 45.2031 11.46C45.7097 11.46 45.9364 11.5467 45.8831 11.72C45.6297 12.4133 45.5031 13.9667 45.5031 16.38C45.5031 18.2467 46.0364 19.18 47.1031 19.18C47.7564 19.18 48.2764 18.68 48.6631 17.68C48.9564 16.9067 49.0964 16.1267 49.0831 15.34L49.0631 13.06C49.0764 12.8333 49.0897 12.5467 49.1031 12.2C49.1297 11.8533 49.3497 11.6933 49.7631 11.72C50.2431 11.76 50.4697 11.9067 50.4431 12.16ZM58.4781 12.32C58.3847 12.3867 58.1314 12.4533 57.7181 12.52C57.6114 12.5333 57.4581 12.5467 57.2581 12.56C57.0714 12.5733 56.8781 12.5867 56.6781 12.6C56.4914 12.6133 56.3247 12.6267 56.1781 12.64C56.0314 12.64 55.9514 12.6467 55.9381 12.66C55.9247 12.7267 55.9047 13 55.8781 13.48C55.8514 13.9467 55.8381 14.7533 55.8381 15.9C55.8381 16.4733 55.8514 16.9533 55.8781 17.34C55.9047 17.7133 55.9314 18.0533 55.9581 18.36C55.9581 18.4267 55.9647 18.52 55.9781 18.64C56.0047 18.76 56.0314 18.9 56.0581 19.06C56.0847 19.22 56.1047 19.36 56.1181 19.48C56.1447 19.6 56.1581 19.7067 56.1581 19.8C56.1581 19.9067 56.0914 20.0133 55.9581 20.12C55.8247 20.2267 55.7047 20.28 55.5981 20.28C55.3314 20.28 55.1181 20.0067 54.9581 19.46C54.9047 19.26 54.8514 18.8733 54.7981 18.3C54.7581 17.7267 54.7381 16.9533 54.7381 15.98C54.7381 15.0333 54.7514 14.3133 54.7781 13.82C54.8047 13.3133 54.8247 12.9667 54.8381 12.78C54.8114 12.7667 54.6981 12.7667 54.4981 12.78C54.3114 12.7933 54.0914 12.8133 53.8381 12.84C53.5847 12.8533 53.3314 12.8733 53.0781 12.9C52.8247 12.9267 52.6314 12.9467 52.4981 12.96C52.0714 13.0267 51.8581 12.8733 51.8581 12.5C51.8581 12.42 51.9847 12.3333 52.2381 12.24C52.4914 12.1467 52.7981 12.06 53.1581 11.98C53.5314 11.8867 53.9314 11.8067 54.3581 11.74C54.7847 11.66 55.1714 11.6 55.5181 11.56C55.6781 11.5467 55.8647 11.5333 56.0781 11.52C56.3047 11.4933 56.5381 11.4733 56.7781 11.46C57.0181 11.4467 57.2581 11.4333 57.4981 11.42C57.7514 11.4067 57.9781 11.3933 58.1781 11.38C58.5514 11.38 58.7381 11.5267 58.7381 11.82C58.7381 12.0333 58.6514 12.2 58.4781 12.32ZM61.8706 12.32C61.7772 12.8133 61.6772 13.3133 61.5706 13.82C61.4639 14.3133 61.4106 14.84 61.4106 15.4C61.4106 15.4933 61.4639 15.54 61.5706 15.54C61.6639 15.54 61.7839 15.54 61.9306 15.54C62.0906 15.5267 62.3106 15.52 62.5906 15.52C63.1772 15.52 63.6906 15.5667 64.1306 15.66C64.5839 15.7533 65.0439 15.9333 65.5106 16.2C65.9372 16.44 66.2239 16.66 66.3706 16.86C66.5306 17.0467 66.6106 17.3267 66.6106 17.7C66.6106 18.0867 66.5039 18.4267 66.2906 18.72C66.0772 19.0133 65.8039 19.26 65.4706 19.46C65.1372 19.66 64.7772 19.8133 64.3906 19.92C64.0039 20.0133 63.6306 20.06 63.2706 20.06C63.0706 20.06 62.7972 20.04 62.4506 20C62.1172 19.9733 61.7972 19.9267 61.4906 19.86C61.4639 19.86 61.4439 19.8867 61.4306 19.94C61.4306 19.98 61.4106 20.0267 61.3706 20.08C61.3439 20.1333 61.2972 20.18 61.2306 20.22C61.1772 20.2733 61.0839 20.3 60.9506 20.3C60.8306 20.3 60.7372 20.2533 60.6706 20.16C60.6172 20.08 60.5706 19.9867 60.5306 19.88C60.5039 19.7733 60.4839 19.68 60.4706 19.6C60.4572 19.5067 60.4306 19.4533 60.3906 19.44C60.1506 19.3467 60.0306 19.22 60.0306 19.06C60.0306 18.9267 60.0639 18.84 60.1306 18.8C60.2106 18.76 60.3039 18.7333 60.4106 18.72V17.82C60.4106 17.6067 60.4106 17.3933 60.4106 17.18C60.4106 16.9533 60.4239 16.72 60.4506 16.48C60.4506 16.36 60.4039 16.2733 60.3106 16.22C60.2172 16.1667 60.1706 16.0867 60.1706 15.98C60.1706 15.86 60.2106 15.7667 60.2906 15.7C60.3706 15.6333 60.4106 15.5533 60.4106 15.46C60.4772 14.6467 60.5372 13.9067 60.5906 13.24C60.6572 12.5733 60.7306 12.02 60.8106 11.58C60.8506 11.2867 61.0639 11.14 61.4506 11.14C61.6372 11.14 61.7839 11.1933 61.8906 11.3C61.9972 11.3933 62.0506 11.52 62.0506 11.68C62.0506 11.8667 61.9906 12.08 61.8706 12.32ZM65.6506 17.6C65.6506 17.44 65.5972 17.28 65.4906 17.12C65.3839 16.9467 65.2039 16.8 64.9506 16.68C64.7106 16.5467 64.3839 16.44 63.9706 16.36C63.5706 16.28 63.0706 16.24 62.4706 16.24C62.2572 16.24 62.0639 16.2467 61.8906 16.26C61.7306 16.26 61.5972 16.2667 61.4906 16.28C61.4506 16.28 61.4172 16.3333 61.3906 16.44C61.3639 16.5333 61.3439 16.6467 61.3306 16.78C61.3306 16.9133 61.3239 17.0533 61.3106 17.2C61.3106 17.3333 61.3106 17.4467 61.3106 17.54C61.3106 18.02 61.3306 18.5067 61.3706 19C61.5706 19.1067 61.8506 19.1933 62.2106 19.26C62.5839 19.3133 62.9306 19.34 63.2506 19.34C63.5306 19.34 63.8106 19.2933 64.0906 19.2C64.3839 19.1067 64.6439 18.98 64.8706 18.82C65.1106 18.66 65.2972 18.4733 65.4306 18.26C65.5772 18.0467 65.6506 17.8267 65.6506 17.6ZM80.255 12.04C80.255 12.16 80.2416 12.2533 80.215 12.32C80.1883 12.3733 80.155 12.42 80.115 12.46C80.075 12.5 80.035 12.5333 79.995 12.56C79.9683 12.5867 79.9483 12.6267 79.935 12.68C79.8683 13 79.815 13.3467 79.775 13.72C79.7483 14.08 79.7216 14.44 79.695 14.8C79.6816 15.16 79.675 15.5067 79.675 15.84C79.675 16.1733 79.675 16.4733 79.675 16.74C79.675 17.2467 79.6816 17.7133 79.695 18.14C79.7216 18.5533 79.7883 18.98 79.895 19.42C79.9083 19.4867 79.9216 19.54 79.935 19.58C79.9483 19.6067 79.955 19.6333 79.955 19.66C79.955 19.7267 79.8816 19.7867 79.735 19.84C79.6016 19.8933 79.475 19.92 79.355 19.92C79.2083 19.92 79.075 19.8867 78.955 19.82C78.835 19.74 78.7616 19.6133 78.735 19.44C78.655 19.0533 78.595 18.6333 78.555 18.18C78.5283 17.7133 78.515 17.22 78.515 16.7C78.515 16.02 78.5283 15.3 78.555 14.54C78.595 13.7667 78.6416 13.04 78.695 12.36C78.695 12.2667 78.6016 12.2133 78.415 12.2C78.2283 12.1733 77.8816 12.16 77.375 12.16C76.8016 12.16 76.295 12.2333 75.855 12.38C75.415 12.5133 75.175 12.7133 75.135 12.98C75.095 13.26 75.0616 13.5267 75.035 13.78C75.0083 14.0333 74.9883 14.32 74.975 14.64C74.9616 14.96 74.9483 15.34 74.935 15.78C74.935 16.2067 74.935 16.74 74.935 17.38C74.935 17.8467 74.9416 18.32 74.955 18.8C74.9816 19.2667 75.0483 19.7333 75.155 20.2C75.0883 20.3067 75.015 20.36 74.935 20.36C74.3083 20.36 73.9816 20.0467 73.955 19.42C73.9283 18.8467 73.9083 18.2467 73.895 17.62C73.895 16.98 73.895 16.38 73.895 15.82C73.895 14.7667 73.915 13.72 73.955 12.68C73.9016 12.5867 73.8683 12.4933 73.855 12.4C73.855 12.2933 73.855 12.1867 73.855 12.08C73.855 11.9333 73.9016 11.8333 73.995 11.78C74.0883 11.7133 74.2816 11.68 74.575 11.68C74.935 11.68 75.4683 11.6267 76.175 11.52C76.8816 11.4 77.8283 11.34 79.015 11.34C79.495 11.34 79.8216 11.4 79.995 11.52C80.1683 11.64 80.255 11.8133 80.255 12.04ZM88.4143 16.06C88.4143 17.2067 88.161 18.2067 87.6543 19.06C87.0543 20.0867 86.221 20.6 85.1543 20.6C84.0743 20.6 83.2677 20.18 82.7343 19.34C82.2943 18.6467 82.0743 17.7267 82.0743 16.58C82.0743 15.4467 82.3277 14.3333 82.8343 13.24C83.4743 11.8933 84.2877 11.22 85.2743 11.22C85.5277 11.22 85.8877 11.3667 86.3543 11.66C87.7277 12.5133 88.4143 13.98 88.4143 16.06ZM87.4543 16.04C87.4543 15.1867 87.341 14.42 87.1143 13.74C86.781 12.7933 86.2677 12.32 85.5743 12.32C84.7743 12.32 84.1477 12.8467 83.6943 13.9C83.3477 14.7133 83.1743 15.5867 83.1743 16.52C83.1743 17.36 83.2943 18.0667 83.5343 18.64C83.881 19.4267 84.421 19.82 85.1543 19.82C85.9543 19.82 86.561 19.3667 86.9743 18.46C87.2943 17.7533 87.4543 16.9467 87.4543 16.04ZM97.6181 17.26C97.6181 17.7933 97.4981 18.2733 97.2581 18.7C97.0314 19.1133 96.7314 19.4667 96.3581 19.76C95.9981 20.04 95.5914 20.2533 95.1381 20.4C94.6981 20.56 94.2581 20.64 93.8181 20.64C93.2447 20.64 92.7114 20.56 92.2181 20.4C91.7381 20.24 91.2914 19.9733 90.8781 19.6C90.4914 19.2533 90.2981 18.9333 90.2981 18.64C90.2981 18.4933 90.3447 18.3733 90.4381 18.28C90.5314 18.1733 90.6581 18.12 90.8181 18.12C91.0847 18.12 91.2781 18.2333 91.3981 18.46C91.6114 18.9 91.8581 19.2667 92.1381 19.56C92.4181 19.84 92.8381 19.98 93.3981 19.98C93.8514 19.98 94.2647 19.9133 94.6381 19.78C95.0247 19.6333 95.3447 19.44 95.5981 19.2C95.8647 18.96 96.0714 18.68 96.2181 18.36C96.3647 18.04 96.4381 17.7 96.4381 17.34C96.4381 17.06 96.4114 16.8267 96.3581 16.64C96.3047 16.44 96.2047 16.2867 96.0581 16.18C95.9247 16.06 95.7314 15.98 95.4781 15.94C95.2247 15.8867 94.8914 15.86 94.4781 15.86C94.4381 15.86 94.3181 15.8933 94.1181 15.96C93.9314 16.0267 93.7114 16.1 93.4581 16.18C93.2181 16.26 92.9781 16.3333 92.7381 16.4C92.4981 16.4667 92.3181 16.5 92.1981 16.5C92.0114 16.5 91.8447 16.46 91.6981 16.38C91.5514 16.3 91.4781 16.1933 91.4781 16.06C91.4781 15.8867 91.5714 15.7067 91.7581 15.52C91.9447 15.3333 92.2914 15.22 92.7981 15.18C93.4514 15.14 93.8381 15.0933 93.9581 15.04C94.1314 14.9867 94.3247 14.9 94.5381 14.78C94.7647 14.6467 94.9781 14.4867 95.1781 14.3C95.3781 14.1133 95.5447 13.9067 95.6781 13.68C95.8114 13.44 95.8781 13.1867 95.8781 12.92C95.8781 12.6667 95.8181 12.46 95.6981 12.3C95.5914 12.14 95.3714 12.06 95.0381 12.06C94.7581 12.06 94.4714 12.1 94.1781 12.18C93.8981 12.2467 93.6381 12.3333 93.3981 12.44C93.1581 12.5467 92.9514 12.66 92.7781 12.78C92.6047 12.8867 92.4847 12.9867 92.4181 13.08C92.4714 13.1333 92.4981 13.1867 92.4981 13.24C92.4981 13.3467 92.4514 13.4533 92.3581 13.56C92.2647 13.6667 92.1514 13.76 92.0181 13.84C91.8981 13.92 91.7647 13.9867 91.6181 14.04C91.4847 14.08 91.3781 14.1 91.2981 14.1C91.1514 14.1 91.0247 14.06 90.9181 13.98C90.8114 13.9 90.7581 13.7667 90.7581 13.58C90.7581 13.38 90.8981 13.14 91.1781 12.86C91.4714 12.58 91.8247 12.3133 92.2381 12.06C92.6514 11.8067 93.0914 11.5933 93.5581 11.42C94.0247 11.2333 94.4314 11.14 94.7781 11.14C95.0314 11.14 95.2914 11.1933 95.5581 11.3C95.8381 11.3933 96.0847 11.52 96.2981 11.68C96.5247 11.8267 96.7047 12 96.8381 12.2C96.9847 12.4 97.0581 12.6 97.0581 12.8C97.0581 12.9733 97.0114 13.1667 96.9181 13.38C96.8247 13.5933 96.7047 13.8067 96.5581 14.02C96.4114 14.22 96.2447 14.42 96.0581 14.62C95.8714 14.8067 95.6847 14.9667 95.4981 15.1C96.2181 15.2067 96.7514 15.4533 97.0981 15.84C97.4447 16.2267 97.6181 16.7 97.6181 17.26ZM99.3387 20.64C99.2987 20.6 99.2787 20.5667 99.2787 20.54C99.2787 20.4867 99.2987 20.4467 99.3387 20.42C99.4987 20.34 99.732 20.1867 100.039 19.96C100.359 19.72 100.699 19.4467 101.059 19.14C101.432 18.82 101.812 18.4867 102.199 18.14C102.585 17.7933 102.939 17.46 103.259 17.14C103.579 16.82 103.839 16.54 104.039 16.3C104.239 16.06 104.339 15.8933 104.339 15.8C104.339 15.72 104.279 15.6267 104.159 15.52C104.039 15.4 103.872 15.2667 103.659 15.12C103.459 14.96 103.225 14.78 102.959 14.58C102.692 14.38 102.419 14.1533 102.139 13.9C101.645 13.4733 101.212 13.1133 100.839 12.82C100.465 12.5133 100.152 12.2733 99.8987 12.1C99.8854 12.06 99.8787 11.9867 99.8787 11.88C99.8787 11.6667 99.9387 11.4933 100.059 11.36C100.179 11.2267 100.332 11.16 100.519 11.16C100.532 11.16 100.699 11.3067 101.019 11.6C101.352 11.88 101.739 12.22 102.179 12.62C102.632 13.0067 103.092 13.4067 103.559 13.82C104.025 14.22 104.412 14.5333 104.719 14.76C104.719 14.16 104.705 13.6933 104.679 13.36C104.652 13.0267 104.625 12.7733 104.599 12.6C104.572 12.4133 104.545 12.2733 104.519 12.18C104.492 12.0733 104.479 11.9467 104.479 11.8C104.479 11.6667 104.579 11.5333 104.779 11.4C104.992 11.2667 105.179 11.2 105.339 11.2C105.459 11.2 105.585 11.24 105.719 11.32C105.865 11.3867 105.939 11.4733 105.939 11.58C105.939 11.62 105.912 11.7867 105.859 12.08C105.805 12.36 105.752 12.8 105.699 13.4C105.672 13.72 105.652 14 105.639 14.24C105.625 14.48 105.619 14.6333 105.619 14.7C105.619 14.7667 105.652 14.8 105.719 14.8C105.865 14.6933 106.052 14.54 106.279 14.34C106.519 14.14 106.779 13.92 107.059 13.68C107.339 13.4267 107.632 13.16 107.939 12.88C108.245 12.5867 108.539 12.3 108.819 12.02C109.219 11.6333 109.532 11.36 109.759 11.2C109.999 11.0267 110.152 10.94 110.219 10.94C110.352 10.94 110.472 10.9733 110.579 11.04C110.685 11.1067 110.772 11.1933 110.839 11.3C110.919 11.4067 110.979 11.5267 111.019 11.66C111.059 11.78 111.079 11.8933 111.079 12C111.079 12.2 111.039 12.32 110.959 12.36C110.892 12.3867 110.825 12.4 110.759 12.4C110.705 12.4 110.652 12.4 110.599 12.4C110.559 12.3867 110.505 12.38 110.439 12.38C110.159 12.38 109.872 12.5 109.579 12.74C109.285 12.98 108.925 13.26 108.499 13.58C108.219 13.7933 107.939 14.0067 107.659 14.22C107.379 14.4333 107.125 14.64 106.899 14.84C106.685 15.0267 106.512 15.1933 106.379 15.34C106.245 15.4867 106.179 15.6 106.179 15.68C106.179 15.7467 106.279 15.8867 106.479 16.1C106.679 16.3133 106.919 16.56 107.199 16.84C107.492 17.12 107.805 17.4133 108.139 17.72C108.485 18.0267 108.799 18.3067 109.079 18.56C109.545 18.9867 109.892 19.2933 110.119 19.48C110.345 19.6533 110.539 19.7867 110.699 19.88C110.779 19.9333 110.865 19.9667 110.959 19.98C111.065 19.9933 111.159 20 111.239 20C111.332 20.0133 111.405 20.0333 111.459 20.06C111.512 20.0867 111.539 20.14 111.539 20.22C111.539 20.34 111.492 20.44 111.399 20.52C111.305 20.6133 111.199 20.68 111.079 20.72C110.959 20.7733 110.845 20.8133 110.739 20.84C110.632 20.8667 110.565 20.88 110.539 20.88C110.392 20.88 110.199 20.8067 109.959 20.66C109.732 20.5267 109.485 20.3533 109.219 20.14C108.965 19.9267 108.705 19.6933 108.439 19.44C108.172 19.1867 107.925 18.9467 107.699 18.72C107.472 18.4933 107.272 18.2933 107.099 18.12C106.939 17.9467 106.839 17.84 106.799 17.8C106.585 17.6 106.385 17.3933 106.199 17.18C106.025 16.9667 105.872 16.82 105.739 16.74C105.699 16.7667 105.665 16.8333 105.639 16.94C105.612 17.0467 105.599 17.22 105.599 17.46C105.599 17.6067 105.605 17.7867 105.619 18C105.632 18.2133 105.645 18.4333 105.659 18.66C105.672 18.8733 105.685 19.0733 105.699 19.26C105.712 19.4333 105.719 19.56 105.719 19.64C105.732 19.76 105.779 19.9267 105.859 20.14C105.939 20.3667 105.979 20.54 105.979 20.66C105.979 20.74 105.932 20.8133 105.839 20.88C105.745 20.96 105.632 21 105.499 21C105.232 21 105.039 20.9133 104.919 20.74C104.812 20.5667 104.739 20.2467 104.699 19.78C104.672 19.5 104.645 19.2467 104.619 19.02C104.605 18.7933 104.592 18.5733 104.579 18.36C104.579 18.1333 104.579 17.9133 104.579 17.7C104.579 17.4733 104.579 17.2267 104.579 16.96C104.312 17.2667 104.059 17.5333 103.819 17.76C103.592 17.9867 103.359 18.2333 103.119 18.5C102.879 18.7667 102.619 19.0533 102.339 19.36C102.059 19.6533 101.779 19.92 101.499 20.16C101.232 20.4133 100.979 20.62 100.739 20.78C100.499 20.9533 100.299 21.04 100.139 21.04C99.952 21.04 99.6854 20.9067 99.3387 20.64ZM119.106 18.02C119.106 18.6067 118.713 19.1333 117.926 19.6C117.22 20.0267 116.553 20.24 115.926 20.24C114.14 20.24 113.246 19.1067 113.246 16.84C113.246 15.84 113.426 14.7667 113.786 13.62C114.266 12.1267 114.88 11.38 115.626 11.38C116.266 11.38 116.966 11.7067 117.726 12.36C118.486 13 118.866 13.64 118.866 14.28C118.866 15.1067 118.533 15.8267 117.866 16.44C117.2 17.0533 116.446 17.36 115.606 17.36C115.526 17.36 115.353 17.2933 115.086 17.16C114.833 17.0267 114.66 16.96 114.566 16.96C114.393 16.96 114.306 17.0133 114.306 17.12C114.306 18.6533 114.813 19.42 115.826 19.42C116.346 19.42 116.826 19.2467 117.266 18.9C117.533 18.7 117.826 18.3867 118.146 17.96C118.4 17.6267 118.566 17.46 118.646 17.46C118.953 17.46 119.106 17.6467 119.106 18.02ZM117.726 14.34C117.726 13.8733 117.593 13.44 117.326 13.04C117.06 12.6267 116.706 12.42 116.266 12.42C115.733 12.42 115.3 12.7533 114.966 13.42C114.686 13.98 114.546 14.56 114.546 15.16C114.546 15.5467 114.666 15.8733 114.906 16.14C115.16 16.3933 115.48 16.52 115.866 16.52C116.413 16.52 116.866 16.2867 117.226 15.82C117.56 15.3933 117.726 14.9 117.726 14.34Z" fill="#2727E6"/>
</svg>
