<svg width="128" height="44" viewBox="0 0 128 44" fill="none" xmlns="http://www.w3.org/2000/svg">
<path d="M122.965 8.28807C122.707 8.19024 122.419 8.32028 122.321 8.57852L120.727 12.7867C120.629 13.0449 120.759 13.3336 121.017 13.4314C121.275 13.5292 121.564 13.3992 121.662 13.1409L123.079 9.40034L126.819 10.8173C127.078 10.9152 127.366 10.7851 127.464 10.5269C127.562 10.2687 127.432 9.98003 127.174 9.8822L122.965 8.28807ZM85.5439 32.942C85.3485 32.7468 85.032 32.7471 84.8368 32.9425C84.6417 33.1379 84.642 33.4545 84.8374 33.6496L85.5439 32.942ZM122.332 8.96102C125.018 14.9212 124.439 19.7259 122.034 23.5155C119.609 27.3376 115.282 30.1959 110.351 32.1233C105.427 34.0477 99.9577 35.0208 95.3271 35.1131C93.012 35.1592 90.9211 34.9848 89.2213 34.6064C87.5073 34.2249 86.2526 33.6495 85.5439 32.942L84.8374 33.6496C85.7448 34.5557 87.2203 35.1855 89.004 35.5825C90.8019 35.9827 92.9761 36.1601 95.347 36.1129C100.088 36.0184 105.674 35.0245 110.715 33.0547C115.747 31.0878 120.294 28.1247 122.879 24.0513C125.484 19.9453 126.051 14.7805 123.244 8.55027L122.332 8.96102Z" fill="#2727E6"/>
<path d="M0.62 21.78C0.673333 21.7267 0.773333 21.6867 0.92 21.66C1.08 21.6333 1.23333 21.62 1.38 21.62C1.44667 21.62 1.52667 21.6467 1.62 21.7C1.72667 21.74 1.82 21.8067 1.9 21.9C1.88667 22.4733 1.88 22.9467 1.88 23.32C1.88 23.68 1.88 24.0333 1.88 24.38C1.88 26.1 1.99333 27.4 2.22 28.28C2.44667 29.16 2.84667 29.6 3.42 29.6C3.54 29.6 3.72667 29.58 3.98 29.54C4.23333 29.4867 4.49333 29.4133 4.76 29.32C5.02667 29.2267 5.27333 29.1267 5.5 29.02C5.74 28.9 5.9 28.7667 5.98 28.62C6.20667 28.2067 6.35333 27.7733 6.42 27.32C6.5 26.8667 6.54 26.3933 6.54 25.9C6.54 25.2467 6.52667 24.6933 6.5 24.24C6.47333 23.7867 6.44667 23.4 6.42 23.08C6.39333 22.76 6.36667 22.4933 6.34 22.28C6.31333 22.0667 6.3 21.8667 6.3 21.68C6.3 21.4667 6.46 21.36 6.78 21.36C7.06 21.36 7.26 21.4733 7.38 21.7C7.51333 21.9267 7.6 22.22 7.64 22.58C7.68 22.9267 7.69333 23.3133 7.68 23.74C7.66667 24.1533 7.66 24.5467 7.66 24.92V26.6V29C7.66 30 7.65333 30.9867 7.64 31.96C7.64 32.92 7.62 33.9 7.58 34.9C7.58 34.9667 7.6 35.02 7.64 35.06C7.69333 35.1133 7.72 35.1733 7.72 35.24C7.72 35.4267 7.6 35.5667 7.36 35.66C7.12 35.7533 6.88667 35.8 6.66 35.8C6.52667 35.8 6.41333 35.78 6.32 35.74C6.24 35.7133 6.2 35.6667 6.2 35.6C6.2 35.4667 6.20667 35.34 6.22 35.22C6.24667 35.1 6.27333 34.9267 6.3 34.7C6.34 34.4733 6.37333 34.1733 6.4 33.8C6.44 33.4133 6.47333 32.8933 6.5 32.24V32.02C6.5 31.9533 6.5 31.8667 6.5 31.76C6.51333 31.6533 6.52 31.5267 6.52 31.38C6.52 31.1533 6.51333 30.8667 6.5 30.52C6.5 30.1733 6.48667 29.8133 6.46 29.44C6.34 29.56 6.16 29.68 5.92 29.8C5.69333 29.9067 5.44667 30.0067 5.18 30.1C4.92667 30.18 4.68667 30.2467 4.46 30.3C4.23333 30.3533 4.06667 30.38 3.96 30.38C3.49333 30.38 2.98 30.2533 2.42 30C1.95333 29.8 1.6 29.4867 1.36 29.06C1.12 28.6333 0.94 28.0933 0.82 27.44C0.713333 26.7867 0.653333 26.02 0.64 25.14C0.626667 24.2467 0.62 23.24 0.62 22.12V21.78ZM16.525 27.16C16.4183 27.7467 16.3183 28.3333 16.225 28.92C16.105 29.5467 16.045 30.1333 16.045 30.68L16.025 36.94C16.025 37.8333 15.7517 38.54 15.205 39.06C14.6717 39.5933 13.9517 39.86 13.045 39.86C12.5517 39.86 11.9983 39.7267 11.385 39.46C10.6783 39.1667 10.1917 38.8 9.925 38.36C9.85833 38.24 9.825 38.12 9.825 38C9.825 37.6133 10.0117 37.42 10.385 37.42C10.465 37.42 10.5517 37.4467 10.645 37.5C10.8717 37.74 11.0983 37.9733 11.325 38.2C11.7783 38.6133 12.3517 38.82 13.045 38.82C13.925 38.82 14.5117 38.5133 14.805 37.9C14.9783 37.5133 15.065 36.8133 15.065 35.8C15.065 35.6667 15.0383 35.4 14.985 35C14.9317 34.6667 14.9183 34.3733 14.945 34.12C14.5717 34.4667 14.305 34.6867 14.145 34.78C13.8517 34.9667 13.5317 35.06 13.185 35.06C12.2783 35.06 11.5917 34.7067 11.125 34C10.7117 33.3867 10.505 32.6067 10.505 31.66C10.505 29.86 10.5317 28.34 10.585 27.1C10.6383 26.6733 10.8717 26.46 11.285 26.46C11.7917 26.46 12.0183 26.5467 11.965 26.72C11.7117 27.4133 11.585 28.9667 11.585 31.38C11.585 33.2467 12.1183 34.18 13.185 34.18C13.8383 34.18 14.3583 33.68 14.745 32.68C15.0383 31.9067 15.1783 31.1267 15.165 30.34L15.145 28.06C15.1583 27.8333 15.1717 27.5467 15.185 27.2C15.2117 26.8533 15.4317 26.6933 15.845 26.72C16.325 26.76 16.5517 26.9067 16.525 27.16ZM24.56 27.32C24.4667 27.3867 24.2133 27.4533 23.8 27.52C23.6933 27.5333 23.54 27.5467 23.34 27.56C23.1533 27.5733 22.96 27.5867 22.76 27.6C22.5733 27.6133 22.4067 27.6267 22.26 27.64C22.1133 27.64 22.0333 27.6467 22.02 27.66C22.0067 27.7267 21.9867 28 21.96 28.48C21.9333 28.9467 21.92 29.7533 21.92 30.9C21.92 31.4733 21.9333 31.9533 21.96 32.34C21.9867 32.7133 22.0133 33.0533 22.04 33.36C22.04 33.4267 22.0467 33.52 22.06 33.64C22.0867 33.76 22.1133 33.9 22.14 34.06C22.1667 34.22 22.1867 34.36 22.2 34.48C22.2267 34.6 22.24 34.7067 22.24 34.8C22.24 34.9067 22.1733 35.0133 22.04 35.12C21.9067 35.2267 21.7867 35.28 21.68 35.28C21.4133 35.28 21.2 35.0067 21.04 34.46C20.9867 34.26 20.9333 33.8733 20.88 33.3C20.84 32.7267 20.82 31.9533 20.82 30.98C20.82 30.0333 20.8333 29.3133 20.86 28.82C20.8867 28.3133 20.9067 27.9667 20.92 27.78C20.8933 27.7667 20.78 27.7667 20.58 27.78C20.3933 27.7933 20.1733 27.8133 19.92 27.84C19.6667 27.8533 19.4133 27.8733 19.16 27.9C18.9067 27.9267 18.7133 27.9467 18.58 27.96C18.1533 28.0267 17.94 27.8733 17.94 27.5C17.94 27.42 18.0667 27.3333 18.32 27.24C18.5733 27.1467 18.88 27.06 19.24 26.98C19.6133 26.8867 20.0133 26.8067 20.44 26.74C20.8667 26.66 21.2533 26.6 21.6 26.56C21.76 26.5467 21.9467 26.5333 22.16 26.52C22.3867 26.4933 22.62 26.4733 22.86 26.46C23.1 26.4467 23.34 26.4333 23.58 26.42C23.8333 26.4067 24.06 26.3933 24.26 26.38C24.6333 26.38 24.82 26.5267 24.82 26.82C24.82 27.0333 24.7333 27.2 24.56 27.32ZM27.9525 27.32C27.8592 27.8133 27.7592 28.3133 27.6525 28.82C27.5458 29.3133 27.4925 29.84 27.4925 30.4C27.4925 30.4933 27.5458 30.54 27.6525 30.54C27.7458 30.54 27.8658 30.54 28.0125 30.54C28.1725 30.5267 28.3925 30.52 28.6725 30.52C29.2592 30.52 29.7725 30.5667 30.2125 30.66C30.6658 30.7533 31.1258 30.9333 31.5925 31.2C32.0192 31.44 32.3058 31.66 32.4525 31.86C32.6125 32.0467 32.6925 32.3267 32.6925 32.7C32.6925 33.0867 32.5858 33.4267 32.3725 33.72C32.1592 34.0133 31.8858 34.26 31.5525 34.46C31.2192 34.66 30.8592 34.8133 30.4725 34.92C30.0858 35.0133 29.7125 35.06 29.3525 35.06C29.1525 35.06 28.8792 35.04 28.5325 35C28.1992 34.9733 27.8792 34.9267 27.5725 34.86C27.5458 34.86 27.5258 34.8867 27.5125 34.94C27.5125 34.98 27.4925 35.0267 27.4525 35.08C27.4258 35.1333 27.3792 35.18 27.3125 35.22C27.2592 35.2733 27.1658 35.3 27.0325 35.3C26.9125 35.3 26.8192 35.2533 26.7525 35.16C26.6992 35.08 26.6525 34.9867 26.6125 34.88C26.5858 34.7733 26.5658 34.68 26.5525 34.6C26.5392 34.5067 26.5125 34.4533 26.4725 34.44C26.2325 34.3467 26.1125 34.22 26.1125 34.06C26.1125 33.9267 26.1458 33.84 26.2125 33.8C26.2925 33.76 26.3858 33.7333 26.4925 33.72V32.82C26.4925 32.6067 26.4925 32.3933 26.4925 32.18C26.4925 31.9533 26.5058 31.72 26.5325 31.48C26.5325 31.36 26.4858 31.2733 26.3925 31.22C26.2992 31.1667 26.2525 31.0867 26.2525 30.98C26.2525 30.86 26.2925 30.7667 26.3725 30.7C26.4525 30.6333 26.4925 30.5533 26.4925 30.46C26.5592 29.6467 26.6192 28.9067 26.6725 28.24C26.7392 27.5733 26.8125 27.02 26.8925 26.58C26.9325 26.2867 27.1458 26.14 27.5325 26.14C27.7192 26.14 27.8658 26.1933 27.9725 26.3C28.0792 26.3933 28.1325 26.52 28.1325 26.68C28.1325 26.8667 28.0725 27.08 27.9525 27.32ZM31.7325 32.6C31.7325 32.44 31.6792 32.28 31.5725 32.12C31.4658 31.9467 31.2858 31.8 31.0325 31.68C30.7925 31.5467 30.4658 31.44 30.0525 31.36C29.6525 31.28 29.1525 31.24 28.5525 31.24C28.3392 31.24 28.1458 31.2467 27.9725 31.26C27.8125 31.26 27.6792 31.2667 27.5725 31.28C27.5325 31.28 27.4992 31.3333 27.4725 31.44C27.4458 31.5333 27.4258 31.6467 27.4125 31.78C27.4125 31.9133 27.4058 32.0533 27.3925 32.2C27.3925 32.3333 27.3925 32.4467 27.3925 32.54C27.3925 33.02 27.4125 33.5067 27.4525 34C27.6525 34.1067 27.9325 34.1933 28.2925 34.26C28.6658 34.3133 29.0125 34.34 29.3325 34.34C29.6125 34.34 29.8925 34.2933 30.1725 34.2C30.4658 34.1067 30.7258 33.98 30.9525 33.82C31.1925 33.66 31.3792 33.4733 31.5125 33.26C31.6592 33.0467 31.7325 32.8267 31.7325 32.6ZM46.3369 27.04C46.3369 27.16 46.3235 27.2533 46.2969 27.32C46.2702 27.3733 46.2369 27.42 46.1969 27.46C46.1569 27.5 46.1169 27.5333 46.0769 27.56C46.0502 27.5867 46.0302 27.6267 46.0169 27.68C45.9502 28 45.8969 28.3467 45.8569 28.72C45.8302 29.08 45.8035 29.44 45.7769 29.8C45.7635 30.16 45.7569 30.5067 45.7569 30.84C45.7569 31.1733 45.7569 31.4733 45.7569 31.74C45.7569 32.2467 45.7635 32.7133 45.7769 33.14C45.8035 33.5533 45.8702 33.98 45.9769 34.42C45.9902 34.4867 46.0035 34.54 46.0169 34.58C46.0302 34.6067 46.0369 34.6333 46.0369 34.66C46.0369 34.7267 45.9635 34.7867 45.8169 34.84C45.6835 34.8933 45.5569 34.92 45.4369 34.92C45.2902 34.92 45.1569 34.8867 45.0369 34.82C44.9169 34.74 44.8435 34.6133 44.8169 34.44C44.7369 34.0533 44.6769 33.6333 44.6369 33.18C44.6102 32.7133 44.5969 32.22 44.5969 31.7C44.5969 31.02 44.6102 30.3 44.6369 29.54C44.6769 28.7667 44.7235 28.04 44.7769 27.36C44.7769 27.2667 44.6835 27.2133 44.4969 27.2C44.3102 27.1733 43.9635 27.16 43.4569 27.16C42.8835 27.16 42.3769 27.2333 41.9369 27.38C41.4969 27.5133 41.2569 27.7133 41.2169 27.98C41.1769 28.26 41.1435 28.5267 41.1169 28.78C41.0902 29.0333 41.0702 29.32 41.0569 29.64C41.0435 29.96 41.0302 30.34 41.0169 30.78C41.0169 31.2067 41.0169 31.74 41.0169 32.38C41.0169 32.8467 41.0235 33.32 41.0369 33.8C41.0635 34.2667 41.1302 34.7333 41.2369 35.2C41.1702 35.3067 41.0969 35.36 41.0169 35.36C40.3902 35.36 40.0635 35.0467 40.0369 34.42C40.0102 33.8467 39.9902 33.2467 39.9769 32.62C39.9769 31.98 39.9769 31.38 39.9769 30.82C39.9769 29.7667 39.9969 28.72 40.0369 27.68C39.9835 27.5867 39.9502 27.4933 39.9369 27.4C39.9369 27.2933 39.9369 27.1867 39.9369 27.08C39.9369 26.9333 39.9835 26.8333 40.0769 26.78C40.1702 26.7133 40.3635 26.68 40.6569 26.68C41.0169 26.68 41.5502 26.6267 42.2569 26.52C42.9635 26.4 43.9102 26.34 45.0969 26.34C45.5769 26.34 45.9035 26.4 46.0769 26.52C46.2502 26.64 46.3369 26.8133 46.3369 27.04ZM54.4962 31.06C54.4962 32.2067 54.2429 33.2067 53.7362 34.06C53.1362 35.0867 52.3029 35.6 51.2362 35.6C50.1562 35.6 49.3496 35.18 48.8162 34.34C48.3762 33.6467 48.1562 32.7267 48.1562 31.58C48.1562 30.4467 48.4096 29.3333 48.9162 28.24C49.5563 26.8933 50.3696 26.22 51.3562 26.22C51.6096 26.22 51.9696 26.3667 52.4362 26.66C53.8096 27.5133 54.4962 28.98 54.4962 31.06ZM53.5362 31.04C53.5362 30.1867 53.4229 29.42 53.1962 28.74C52.8629 27.7933 52.3496 27.32 51.6562 27.32C50.8562 27.32 50.2296 27.8467 49.7762 28.9C49.4296 29.7133 49.2562 30.5867 49.2562 31.52C49.2562 32.36 49.3762 33.0667 49.6162 33.64C49.9629 34.4267 50.5029 34.82 51.2362 34.82C52.0362 34.82 52.6429 34.3667 53.0563 33.46C53.3762 32.7533 53.5362 31.9467 53.5362 31.04ZM63.7 32.26C63.7 32.7933 63.58 33.2733 63.34 33.7C63.1133 34.1133 62.8133 34.4667 62.44 34.76C62.08 35.04 61.6733 35.2533 61.22 35.4C60.78 35.56 60.34 35.64 59.9 35.64C59.3267 35.64 58.7933 35.56 58.3 35.4C57.82 35.24 57.3733 34.9733 56.96 34.6C56.5733 34.2533 56.38 33.9333 56.38 33.64C56.38 33.4933 56.4267 33.3733 56.52 33.28C56.6133 33.1733 56.74 33.12 56.9 33.12C57.1667 33.12 57.36 33.2333 57.48 33.46C57.6933 33.9 57.94 34.2667 58.22 34.56C58.5 34.84 58.92 34.98 59.48 34.98C59.9333 34.98 60.3467 34.9133 60.72 34.78C61.1067 34.6333 61.4267 34.44 61.68 34.2C61.9467 33.96 62.1533 33.68 62.3 33.36C62.4467 33.04 62.52 32.7 62.52 32.34C62.52 32.06 62.4933 31.8267 62.44 31.64C62.3867 31.44 62.2867 31.2867 62.14 31.18C62.0067 31.06 61.8133 30.98 61.56 30.94C61.3067 30.8867 60.9733 30.86 60.56 30.86C60.52 30.86 60.4 30.8933 60.2 30.96C60.0133 31.0267 59.7933 31.1 59.54 31.18C59.3 31.26 59.06 31.3333 58.82 31.4C58.58 31.4667 58.4 31.5 58.28 31.5C58.0933 31.5 57.9267 31.46 57.78 31.38C57.6333 31.3 57.56 31.1933 57.56 31.06C57.56 30.8867 57.6533 30.7067 57.84 30.52C58.0267 30.3333 58.3733 30.22 58.88 30.18C59.5333 30.14 59.92 30.0933 60.04 30.04C60.2133 29.9867 60.4067 29.9 60.62 29.78C60.8467 29.6467 61.06 29.4867 61.26 29.3C61.46 29.1133 61.6267 28.9067 61.76 28.68C61.8933 28.44 61.96 28.1867 61.96 27.92C61.96 27.6667 61.9 27.46 61.78 27.3C61.6733 27.14 61.4533 27.06 61.12 27.06C60.84 27.06 60.5533 27.1 60.26 27.18C59.98 27.2467 59.72 27.3333 59.48 27.44C59.24 27.5467 59.0333 27.66 58.86 27.78C58.6867 27.8867 58.5667 27.9867 58.5 28.08C58.5533 28.1333 58.58 28.1867 58.58 28.24C58.58 28.3467 58.5333 28.4533 58.44 28.56C58.3467 28.6667 58.2333 28.76 58.1 28.84C57.98 28.92 57.8467 28.9867 57.7 29.04C57.5667 29.08 57.46 29.1 57.38 29.1C57.2333 29.1 57.1067 29.06 57 28.98C56.8933 28.9 56.84 28.7667 56.84 28.58C56.84 28.38 56.98 28.14 57.26 27.86C57.5533 27.58 57.9067 27.3133 58.32 27.06C58.7333 26.8067 59.1733 26.5933 59.64 26.42C60.1067 26.2333 60.5133 26.14 60.86 26.14C61.1133 26.14 61.3733 26.1933 61.64 26.3C61.92 26.3933 62.1667 26.52 62.38 26.68C62.6067 26.8267 62.7867 27 62.92 27.2C63.0667 27.4 63.14 27.6 63.14 27.8C63.14 27.9733 63.0933 28.1667 63 28.38C62.9067 28.5933 62.7867 28.8067 62.64 29.02C62.4933 29.22 62.3267 29.42 62.14 29.62C61.9533 29.8067 61.7667 29.9667 61.58 30.1C62.3 30.2067 62.8333 30.4533 63.18 30.84C63.5267 31.2267 63.7 31.7 63.7 32.26ZM65.4206 35.64C65.3806 35.6 65.3606 35.5667 65.3606 35.54C65.3606 35.4867 65.3806 35.4467 65.4206 35.42C65.5806 35.34 65.814 35.1867 66.1206 34.96C66.4406 34.72 66.7806 34.4467 67.1406 34.14C67.514 33.82 67.894 33.4867 68.2806 33.14C68.6673 32.7933 69.0206 32.46 69.3406 32.14C69.6606 31.82 69.9206 31.54 70.1206 31.3C70.3206 31.06 70.4206 30.8933 70.4206 30.8C70.4206 30.72 70.3606 30.6267 70.2406 30.52C70.1206 30.4 69.954 30.2667 69.7406 30.12C69.5406 29.96 69.3073 29.78 69.0406 29.58C68.774 29.38 68.5006 29.1533 68.2206 28.9C67.7273 28.4733 67.294 28.1133 66.9206 27.82C66.5473 27.5133 66.234 27.2733 65.9806 27.1C65.9673 27.06 65.9606 26.9867 65.9606 26.88C65.9606 26.6667 66.0206 26.4933 66.1406 26.36C66.2606 26.2267 66.414 26.16 66.6006 26.16C66.614 26.16 66.7806 26.3067 67.1006 26.6C67.434 26.88 67.8206 27.22 68.2606 27.62C68.714 28.0067 69.174 28.4067 69.6406 28.82C70.1073 29.22 70.494 29.5333 70.8006 29.76C70.8006 29.16 70.7873 28.6933 70.7606 28.36C70.734 28.0267 70.7073 27.7733 70.6806 27.6C70.654 27.4133 70.6273 27.2733 70.6006 27.18C70.574 27.0733 70.5606 26.9467 70.5606 26.8C70.5606 26.6667 70.6606 26.5333 70.8606 26.4C71.074 26.2667 71.2606 26.2 71.4206 26.2C71.5406 26.2 71.6673 26.24 71.8006 26.32C71.9473 26.3867 72.0206 26.4733 72.0206 26.58C72.0206 26.62 71.994 26.7867 71.9406 27.08C71.8873 27.36 71.834 27.8 71.7806 28.4C71.754 28.72 71.734 29 71.7206 29.24C71.7073 29.48 71.7006 29.6333 71.7006 29.7C71.7006 29.7667 71.734 29.8 71.8006 29.8C71.9473 29.6933 72.134 29.54 72.3606 29.34C72.6006 29.14 72.8606 28.92 73.1406 28.68C73.4206 28.4267 73.714 28.16 74.0206 27.88C74.3273 27.5867 74.6206 27.3 74.9006 27.02C75.3006 26.6333 75.614 26.36 75.8406 26.2C76.0806 26.0267 76.234 25.94 76.3006 25.94C76.434 25.94 76.554 25.9733 76.6606 26.04C76.7673 26.1067 76.854 26.1933 76.9206 26.3C77.0006 26.4067 77.0606 26.5267 77.1006 26.66C77.1406 26.78 77.1606 26.8933 77.1606 27C77.1606 27.2 77.1206 27.32 77.0406 27.36C76.974 27.3867 76.9073 27.4 76.8406 27.4C76.7873 27.4 76.734 27.4 76.6806 27.4C76.6406 27.3867 76.5873 27.38 76.5206 27.38C76.2406 27.38 75.954 27.5 75.6606 27.74C75.3673 27.98 75.0073 28.26 74.5806 28.58C74.3006 28.7933 74.0206 29.0067 73.7406 29.22C73.4606 29.4333 73.2073 29.64 72.9806 29.84C72.7673 30.0267 72.594 30.1933 72.4606 30.34C72.3273 30.4867 72.2606 30.6 72.2606 30.68C72.2606 30.7467 72.3606 30.8867 72.5606 31.1C72.7606 31.3133 73.0006 31.56 73.2806 31.84C73.574 32.12 73.8873 32.4133 74.2206 32.72C74.5673 33.0267 74.8806 33.3067 75.1606 33.56C75.6273 33.9867 75.974 34.2933 76.2006 34.48C76.4273 34.6533 76.6206 34.7867 76.7806 34.88C76.8606 34.9333 76.9473 34.9667 77.0406 34.98C77.1473 34.9933 77.2406 35 77.3206 35C77.414 35.0133 77.4873 35.0333 77.5406 35.06C77.594 35.0867 77.6206 35.14 77.6206 35.22C77.6206 35.34 77.574 35.44 77.4806 35.52C77.3873 35.6133 77.2806 35.68 77.1606 35.72C77.0406 35.7733 76.9273 35.8133 76.8206 35.84C76.714 35.8667 76.6473 35.88 76.6206 35.88C76.474 35.88 76.2806 35.8067 76.0406 35.66C75.814 35.5267 75.5673 35.3533 75.3006 35.14C75.0473 34.9267 74.7873 34.6933 74.5206 34.44C74.254 34.1867 74.0073 33.9467 73.7806 33.72C73.554 33.4933 73.354 33.2933 73.1806 33.12C73.0206 32.9467 72.9206 32.84 72.8806 32.8C72.6673 32.6 72.4673 32.3933 72.2806 32.18C72.1073 31.9667 71.954 31.82 71.8206 31.74C71.7806 31.7667 71.7473 31.8333 71.7206 31.94C71.694 32.0467 71.6806 32.22 71.6806 32.46C71.6806 32.6067 71.6873 32.7867 71.7006 33C71.714 33.2133 71.7273 33.4333 71.7406 33.66C71.754 33.8733 71.7673 34.0733 71.7806 34.26C71.794 34.4333 71.8006 34.56 71.8006 34.64C71.814 34.76 71.8606 34.9267 71.9406 35.14C72.0206 35.3667 72.0606 35.54 72.0606 35.66C72.0606 35.74 72.014 35.8133 71.9206 35.88C71.8273 35.96 71.714 36 71.5806 36C71.314 36 71.1206 35.9133 71.0006 35.74C70.894 35.5667 70.8206 35.2467 70.7806 34.78C70.754 34.5 70.7273 34.2467 70.7006 34.02C70.6873 33.7933 70.674 33.5733 70.6606 33.36C70.6606 33.1333 70.6606 32.9133 70.6606 32.7C70.6606 32.4733 70.6606 32.2267 70.6606 31.96C70.394 32.2667 70.1406 32.5333 69.9006 32.76C69.674 32.9867 69.4406 33.2333 69.2006 33.5C68.9606 33.7667 68.7006 34.0533 68.4206 34.36C68.1406 34.6533 67.8606 34.92 67.5806 35.16C67.314 35.4133 67.0606 35.62 66.8206 35.78C66.5806 35.9533 66.3806 36.04 66.2206 36.04C66.034 36.04 65.7673 35.9067 65.4206 35.64ZM85.1881 33.02C85.1881 33.6067 84.7948 34.1333 84.0081 34.6C83.3015 35.0267 82.6348 35.24 82.0081 35.24C80.2215 35.24 79.3281 34.1067 79.3281 31.84C79.3281 30.84 79.5081 29.7667 79.8681 28.62C80.3481 27.1267 80.9615 26.38 81.7081 26.38C82.3481 26.38 83.0481 26.7067 83.8081 27.36C84.5681 28 84.9481 28.64 84.9481 29.28C84.9481 30.1067 84.6148 30.8267 83.9481 31.44C83.2815 32.0533 82.5281 32.36 81.6881 32.36C81.6081 32.36 81.4348 32.2933 81.1681 32.16C80.9148 32.0267 80.7415 31.96 80.6481 31.96C80.4748 31.96 80.3881 32.0133 80.3881 32.12C80.3881 33.6533 80.8948 34.42 81.9081 34.42C82.4281 34.42 82.9081 34.2467 83.3481 33.9C83.6148 33.7 83.9081 33.3867 84.2281 32.96C84.4815 32.6267 84.6481 32.46 84.7281 32.46C85.0348 32.46 85.1881 32.6467 85.1881 33.02ZM83.8081 29.34C83.8081 28.8733 83.6748 28.44 83.4081 28.04C83.1415 27.6267 82.7881 27.42 82.3481 27.42C81.8148 27.42 81.3815 27.7533 81.0481 28.42C80.7681 28.98 80.6281 29.56 80.6281 30.16C80.6281 30.5467 80.7481 30.8733 80.9881 31.14C81.2415 31.3933 81.5615 31.52 81.9481 31.52C82.4948 31.52 82.9481 31.2867 83.3081 30.82C83.6415 30.3933 83.8081 29.9 83.8081 29.34Z" fill="#2727E6"/>
</svg>
