<svg width="63" height="73" viewBox="0 0 63 73" fill="none" xmlns="http://www.w3.org/2000/svg">
<path d="M63 64.7064C63 70.4383 42.5933 73 26.7581 73C10.9229 73 -1.81043e-09 68.2158 0 63.9506C0 59.6855 12.837 56.2279 28.6722 56.2279C37.043 56.2279 44.9345 55.3891 50.1763 56.93C54.8504 58.3041 63 60.7254 63 64.7064Z" fill="#FCCBBB"/>
<path d="M53.9359 61.8182L54.5095 61.3802L54.2746 60.6978C47.2944 40.4221 35.9013 14.4474 31.2832 4.12358C30.1794 1.65623 26.6422 1.79742 25.7584 4.36471C21.5208 16.6733 10.1879 49.9411 7.43479 61.6418L7.26878 62.3473L7.8876 62.7247C9.96544 63.9916 13.4014 64.9127 17.3779 65.5203C21.3931 66.1339 26.0898 66.4462 30.7843 66.4243C35.4777 66.4023 40.1966 66.0463 44.253 65.3121C48.2698 64.5852 51.7807 63.4635 53.9359 61.8182Z" fill="#FCCBBB" stroke="white" stroke-width="2"/>
<mask id="mask0" mask-type="alpha" maskUnits="userSpaceOnUse" x="9" y="3" width="43" height="61">
<path d="M26.7272 4.55116C27.3157 2.8671 29.6174 2.7581 30.3632 4.37863C34.7231 13.852 45.1183 37.0105 51.9999 57C47.3384 61.2377 28.0917 68.1291 9.49994 58C12.2197 46.4409 22.6919 16.0992 26.7272 4.55116Z" fill="#FCCBBB"/>
</mask>
<g mask="url(#mask0)">
<path opacity="0.9" d="M11.4129 39.975C14.6714 46.0044 34.7675 48.7449 48.3465 39.975C52.9916 36.9751 52.4564 47.7748 48.3464 51.4857C38.0265 60.8038 20.105 60.2559 10.8706 53.1301C6.48964 49.7496 8.77234 35.0891 11.4129 39.975Z" fill="white"/>
<path opacity="0.9" d="M14.9902 18.9859C17.5326 23.6475 33.212 25.7662 43.8067 18.9859C47.4309 16.6665 47.0133 25.0162 43.8067 27.8853C35.7548 35.0894 21.7719 34.6658 14.567 29.1566C11.1489 26.543 12.9299 15.2084 14.9902 18.9859Z" fill="white"/>
</g>
</svg>
