<svg width="190" height="289" viewBox="0 0 190 289" fill="none" xmlns="http://www.w3.org/2000/svg">
<path fill-rule="evenodd" clip-rule="evenodd" d="M76.2613 90.6001L69.4575 93.8919L65.3873 95.802L66.7169 98.5065L62.645 101.002L68.7511 110.464L84.2586 101.188L76.2613 90.6001Z" fill="white"/>
<path fill-rule="evenodd" clip-rule="evenodd" d="M63.0142 101.087L68.8351 110.108L83.8737 101.113L76.1832 90.9305L69.5736 94.1296L65.7435 95.9271L66.9543 98.3907C67.015 98.512 66.9717 98.6593 66.8564 98.7303L63.0142 101.087ZM68.7528 110.727C68.6661 110.727 68.5812 110.684 68.5318 110.606L62.4257 101.145L62.3901 100.944L62.5089 100.779L66.3762 98.4072L65.1524 95.9184L65.1411 95.7157L65.2772 95.565L69.3473 93.6549L76.1486 90.3631C76.2604 90.3085 76.3973 90.3414 76.4727 90.441L84.47 101.03L84.5185 101.238L84.3955 101.414L68.888 110.69L68.7528 110.727Z" fill="#2727E6"/>
<path fill-rule="evenodd" clip-rule="evenodd" d="M63.9495 103.141C63.8559 103.141 63.7649 103.092 63.7155 103.005C63.6427 102.875 63.6886 102.713 63.8178 102.64L68.8699 99.7942C68.9973 99.724 69.1619 99.7664 69.2347 99.8964C69.3075 100.025 69.2616 100.188 69.1325 100.261L64.0804 103.107L63.9495 103.141Z" fill="#2727E6"/>
<path fill-rule="evenodd" clip-rule="evenodd" d="M65.7461 105.59C65.6525 105.59 65.5615 105.542 65.5121 105.454C65.4393 105.325 65.4853 105.162 65.6144 105.089L70.6674 102.243C70.794 102.172 70.9586 102.215 71.0314 102.345C71.1043 102.474 71.0592 102.637 70.9292 102.71L65.877 105.556L65.7461 105.59Z" fill="#2727E6"/>
<path fill-rule="evenodd" clip-rule="evenodd" d="M67.3462 108.148C67.2526 108.148 67.1616 108.1 67.1122 108.011C67.0394 107.883 67.0854 107.72 67.2145 107.647L72.2666 104.801C72.3941 104.731 72.5587 104.773 72.6315 104.903C72.7043 105.032 72.6584 105.195 72.5293 105.268L67.4771 108.114L67.3462 108.148Z" fill="#2727E6"/>
<path fill-rule="evenodd" clip-rule="evenodd" d="M64.755 99.8972C64.6623 99.8972 64.5721 99.8478 64.5227 99.762C64.4491 99.6338 64.4941 99.4701 64.6224 99.3965L68.3632 97.2559C68.4906 97.1831 68.6544 97.2273 68.729 97.3555C68.8026 97.4837 68.7576 97.6475 68.6293 97.7211L64.8885 99.8616L64.755 99.8972Z" fill="#2727E6"/>
<path fill-rule="evenodd" clip-rule="evenodd" d="M103.571 67.4514C98.8851 81.4589 74.29 88.0988 74.29 88.0988L76.2618 90.6006L84.5607 103.336C84.5607 103.336 105.296 98.8708 115.452 86.0622L103.571 67.4514Z" fill="#2727E6"/>
<path fill-rule="evenodd" clip-rule="evenodd" d="M147.048 218.539C146.303 218.539 144.814 218.582 144.814 216.678C144.814 212.623 154.26 208.568 154.26 208.568H164.755V218.539C164.755 218.539 153.963 218.539 147.048 218.539Z" fill="#2727E6"/>
<path fill-rule="evenodd" clip-rule="evenodd" d="M117.137 218.539C116.393 218.539 114.903 218.582 114.903 216.678C114.903 212.623 124.349 208.568 124.349 208.568H134.845V218.539C134.845 218.539 124.052 218.539 117.137 218.539Z" fill="#2727E6"/>
<path fill-rule="evenodd" clip-rule="evenodd" d="M166.657 227.181H113.006C112.953 227.181 112.91 225.091 112.91 222.52C112.91 219.949 112.953 217.874 113.006 217.874H166.657C166.71 217.874 166.752 219.949 166.752 222.52C166.752 225.091 166.71 227.181 166.657 227.181Z" fill="#2727E6"/>
<path fill-rule="evenodd" clip-rule="evenodd" d="M158.708 271.717H122.279C122.243 271.717 122.214 270.822 122.214 269.72C122.214 268.618 122.243 267.729 122.279 267.729H158.708C158.744 267.729 158.774 268.618 158.774 269.72C158.774 270.822 158.744 271.717 158.708 271.717Z" fill="#2727E6"/>
<path fill-rule="evenodd" clip-rule="evenodd" d="M156.116 288.335L156.116 219.327C156.116 219.259 157.161 219.204 158.447 219.204C159.732 219.204 160.77 219.259 160.77 219.327L160.77 288.335C160.77 288.358 156.116 288.358 156.116 288.335Z" fill="#2727E6"/>
<path fill-rule="evenodd" clip-rule="evenodd" d="M173.254 289H93.1088C93.0297 289 92.9653 288.851 92.9653 288.667C92.9653 288.483 93.0297 288.335 93.1088 288.335H173.254C173.333 288.335 173.397 288.483 173.397 288.667C173.397 288.851 173.333 289 173.254 289Z" fill="#2727E6"/>
<path fill-rule="evenodd" clip-rule="evenodd" d="M119.556 288.335L119.556 219.327C119.556 219.259 120.601 219.204 121.886 219.204C123.171 219.204 124.209 219.259 124.209 219.327L124.209 288.399C124.209 288.558 119.556 288.494 119.556 288.335Z" fill="#2727E6"/>
<path d="M169.745 130.131C170.671 125.305 172.736 117.833 172.736 117.833L132.853 117.168C132.853 117.168 126.718 120.86 125.873 124.813C124.247 132.42 143.821 133.454 143.821 133.454C143.821 133.454 136.841 164.269 149.922 209.565C161.007 209.149 167.926 208.171 167.926 208.171C167.926 208.171 164.931 181.473 165.425 164.269C165.918 147.066 167.212 143.328 169.745 130.131Z" fill="#FCCBBB"/>
<path d="M142.822 124.481L117.868 119.507C117.868 119.507 104.314 160.362 117.967 208.713C129.046 209.34 136.025 209.008 136.025 209.008C136.025 209.008 135.474 181.833 137.532 164.551C139.59 147.268 142.822 124.481 142.822 124.481Z" fill="#FCCBBB"/>
<path fill-rule="evenodd" clip-rule="evenodd" d="M173.762 118.251H112.702V80.6729L173.762 90.1359V118.251Z" fill="#2727E6"/>
<path fill-rule="evenodd" clip-rule="evenodd" d="M103.17 72.9648C103.17 51.8669 119.337 42.4567 140.441 41.9534C140.872 41.9439 141.307 41.9387 141.748 41.9387C158.151 41.9387 175.372 50.3466 178.699 67.6303C180.365 76.2887 181.009 86.1996 177.489 94.5123C173.631 103.618 165.295 109.558 156.435 113.308C147.298 117.175 151.765 112.973 146.886 110.464C138.383 106.091 135.318 104.998 135.318 104.998L103.17 72.9648Z" fill="#2727E6"/>
<path fill-rule="evenodd" clip-rule="evenodd" d="M148.594 22.8124C148.594 22.8124 156.596 13.8308 151.964 9.49534C147.333 5.15985 128.869 -1.08442 126.613 2.01788C124.006 5.60306 130.491 16.4732 130.491 16.4732L148.594 22.8124Z" fill="#2727E6"/>
<path d="M128.885 29.3778V17.7705C128.885 6.16315 148.253 3.84172 148.253 17.7705L148.229 21.5957C149.638 21.5957 152.127 21.7605 152.127 24.6623C152.127 27.5641 148.84 27.5641 147.197 27.2014V43.1614C147.197 49.6905 135.224 49.6905 135.224 43.1614V38.9096C133.816 38.7658 132.452 38.1845 131.351 37.1325C129.738 35.5918 128.688 33.0416 128.885 29.3778Z" fill="white"/>
<path d="M143.323 30.8287C143.323 36.3811 139.105 39.3059 135.224 38.9096M135.224 38.9096C133.816 38.7658 132.452 38.1845 131.351 37.1325C129.738 35.5918 128.688 33.0416 128.885 29.3778V17.7705C128.885 6.16315 148.253 3.84172 148.253 17.7705L148.229 21.5957C149.638 21.5957 152.127 21.7605 152.127 24.6623C152.127 27.5641 148.84 27.5641 147.197 27.2014V43.1614C147.197 49.6905 135.224 49.6905 135.224 43.1614V38.9096ZM147.877 23.4092C148.934 23.4092 150.342 23.4092 150.342 24.8602" stroke="#2727E6" stroke-linecap="round"/>
<path fill-rule="evenodd" clip-rule="evenodd" d="M0.773682 91.2761C0.773682 89.067 2.56454 87.2761 4.77368 87.2761H141.781C143.991 87.2761 145.781 89.067 145.781 91.2761V117.156C145.781 119.366 143.991 121.156 141.781 121.156H4.77368C2.56454 121.156 0.773682 119.366 0.773682 117.156V91.2761Z" fill="white" stroke="#F5F5F7"/>
<path d="M35.4642 102.499V104.842H39.1822V106.052H35.4642V109H34.0342V101.3H39.6552V102.499H35.4642ZM42.9675 103.06C43.8329 103.06 44.4929 103.269 44.9475 103.687C45.4095 104.098 45.6405 104.721 45.6405 105.557V109H44.3425V108.285C44.1739 108.542 43.9319 108.74 43.6165 108.879C43.3085 109.011 42.9345 109.077 42.4945 109.077C42.0545 109.077 41.6695 109.004 41.3395 108.857C41.0095 108.703 40.7529 108.494 40.5695 108.23C40.3935 107.959 40.3055 107.654 40.3055 107.317C40.3055 106.789 40.4999 106.367 40.8885 106.052C41.2845 105.729 41.9042 105.568 42.7475 105.568H44.2655V105.48C44.2655 105.069 44.1409 104.754 43.8915 104.534C43.6495 104.314 43.2865 104.204 42.8025 104.204C42.4725 104.204 42.1462 104.255 41.8235 104.358C41.5082 104.461 41.2405 104.604 41.0205 104.787L40.4815 103.786C40.7895 103.551 41.1599 103.372 41.5925 103.247C42.0252 103.122 42.4835 103.06 42.9675 103.06ZM42.7805 108.076C43.1252 108.076 43.4295 107.999 43.6935 107.845C43.9649 107.684 44.1555 107.456 44.2655 107.163V106.481H42.8465C42.0545 106.481 41.6585 106.741 41.6585 107.262C41.6585 107.511 41.7575 107.709 41.9555 107.856C42.1535 108.003 42.4285 108.076 42.7805 108.076ZM50.1539 109.077C49.5452 109.077 48.9989 108.949 48.5149 108.692C48.0309 108.435 47.6532 108.08 47.3819 107.625C47.1106 107.163 46.9749 106.642 46.9749 106.063C46.9749 105.484 47.1106 104.967 47.3819 104.512C47.6532 104.057 48.0272 103.702 48.5039 103.445C48.9879 103.188 49.5379 103.06 50.1539 103.06C50.7332 103.06 51.2392 103.177 51.6719 103.412C52.1119 103.647 52.4419 103.984 52.6619 104.424L51.6059 105.04C51.4372 104.769 51.2246 104.567 50.9679 104.435C50.7186 104.296 50.4436 104.226 50.1429 104.226C49.6296 104.226 49.2042 104.395 48.8669 104.732C48.5296 105.062 48.3609 105.506 48.3609 106.063C48.3609 106.62 48.5259 107.068 48.8559 107.405C49.1932 107.735 49.6222 107.9 50.1429 107.9C50.4436 107.9 50.7186 107.834 50.9679 107.702C51.2246 107.563 51.4372 107.357 51.6059 107.086L52.6619 107.702C52.4346 108.142 52.1009 108.483 51.6609 108.725C51.2282 108.96 50.7259 109.077 50.1539 109.077ZM59.2865 106.096C59.2865 106.191 59.2792 106.327 59.2645 106.503H54.6555C54.7362 106.936 54.9452 107.28 55.2825 107.537C55.6272 107.786 56.0525 107.911 56.5585 107.911C57.2039 107.911 57.7355 107.698 58.1535 107.273L58.8905 108.12C58.6265 108.435 58.2929 108.674 57.8895 108.835C57.4862 108.996 57.0315 109.077 56.5255 109.077C55.8802 109.077 55.3119 108.949 54.8205 108.692C54.3292 108.435 53.9479 108.08 53.6765 107.625C53.4125 107.163 53.2805 106.642 53.2805 106.063C53.2805 105.491 53.4089 104.978 53.6655 104.523C53.9295 104.061 54.2925 103.702 54.7545 103.445C55.2165 103.188 55.7372 103.06 56.3165 103.06C56.8885 103.06 57.3982 103.188 57.8455 103.445C58.3002 103.694 58.6522 104.05 58.9015 104.512C59.1582 104.967 59.2865 105.495 59.2865 106.096ZM56.3165 104.16C55.8765 104.16 55.5025 104.292 55.1945 104.556C54.8939 104.813 54.7105 105.157 54.6445 105.59H57.9775C57.9189 105.165 57.7392 104.82 57.4385 104.556C57.1379 104.292 56.7639 104.16 56.3165 104.16ZM63.8633 103.06C64.4353 103.06 64.945 103.185 65.3923 103.434C65.847 103.683 66.2027 104.035 66.4593 104.49C66.716 104.945 66.8443 105.469 66.8443 106.063C66.8443 106.657 66.716 107.185 66.4593 107.647C66.2027 108.102 65.847 108.454 65.3923 108.703C64.945 108.952 64.4353 109.077 63.8633 109.077C63.46 109.077 63.0897 109.007 62.7523 108.868C62.4223 108.729 62.1437 108.52 61.9163 108.241V109H60.6073V100.838H61.9823V103.841C62.217 103.584 62.492 103.39 62.8073 103.258C63.13 103.126 63.482 103.06 63.8633 103.06ZM63.7093 107.9C64.2153 107.9 64.6297 107.731 64.9523 107.394C65.2823 107.057 65.4473 106.613 65.4473 106.063C65.4473 105.513 65.2823 105.069 64.9523 104.732C64.6297 104.395 64.2153 104.226 63.7093 104.226C63.3793 104.226 63.0823 104.303 62.8183 104.457C62.5543 104.604 62.3453 104.816 62.1913 105.095C62.0373 105.374 61.9603 105.696 61.9603 106.063C61.9603 106.43 62.0373 106.752 62.1913 107.031C62.3453 107.31 62.5543 107.526 62.8183 107.68C63.0823 107.827 63.3793 107.9 63.7093 107.9ZM70.7883 109.077C70.1943 109.077 69.659 108.949 69.1823 108.692C68.7057 108.435 68.3317 108.08 68.0603 107.625C67.7963 107.163 67.6643 106.642 67.6643 106.063C67.6643 105.484 67.7963 104.967 68.0603 104.512C68.3317 104.057 68.7057 103.702 69.1823 103.445C69.659 103.188 70.1943 103.06 70.7883 103.06C71.3897 103.06 71.9287 103.188 72.4053 103.445C72.882 103.702 73.2523 104.057 73.5163 104.512C73.7877 104.967 73.9233 105.484 73.9233 106.063C73.9233 106.642 73.7877 107.163 73.5163 107.625C73.2523 108.08 72.882 108.435 72.4053 108.692C71.9287 108.949 71.3897 109.077 70.7883 109.077ZM70.7883 107.9C71.2943 107.9 71.7123 107.731 72.0423 107.394C72.3723 107.057 72.5373 106.613 72.5373 106.063C72.5373 105.513 72.3723 105.069 72.0423 104.732C71.7123 104.395 71.2943 104.226 70.7883 104.226C70.2823 104.226 69.8643 104.395 69.5343 104.732C69.2117 105.069 69.0503 105.513 69.0503 106.063C69.0503 106.613 69.2117 107.057 69.5343 107.394C69.8643 107.731 70.2823 107.9 70.7883 107.9ZM77.8782 109.077C77.2842 109.077 76.7488 108.949 76.2722 108.692C75.7955 108.435 75.4215 108.08 75.1502 107.625C74.8862 107.163 74.7542 106.642 74.7542 106.063C74.7542 105.484 74.8862 104.967 75.1502 104.512C75.4215 104.057 75.7955 103.702 76.2722 103.445C76.7488 103.188 77.2842 103.06 77.8782 103.06C78.4795 103.06 79.0185 103.188 79.4952 103.445C79.9718 103.702 80.3422 104.057 80.6062 104.512C80.8775 104.967 81.0132 105.484 81.0132 106.063C81.0132 106.642 80.8775 107.163 80.6062 107.625C80.3422 108.08 79.9718 108.435 79.4952 108.692C79.0185 108.949 78.4795 109.077 77.8782 109.077ZM77.8782 107.9C78.3842 107.9 78.8022 107.731 79.1322 107.394C79.4622 107.057 79.6272 106.613 79.6272 106.063C79.6272 105.513 79.4622 105.069 79.1322 104.732C78.8022 104.395 78.3842 104.226 77.8782 104.226C77.3722 104.226 76.9542 104.395 76.6242 104.732C76.3015 105.069 76.1402 105.513 76.1402 106.063C76.1402 106.613 76.3015 107.057 76.6242 107.394C76.9542 107.731 77.3722 107.9 77.8782 107.9ZM84.726 106.481L83.703 107.449V109H82.328V100.838H83.703V105.766L86.552 103.126H88.202L85.749 105.59L88.433 109H86.761L84.726 106.481Z" fill="#343447"/>
<path fill-rule="evenodd" clip-rule="evenodd" d="M18.6475 100.322C18.6475 99.9518 18.9451 99.6568 19.3123 99.6568C19.6819 99.6568 19.977 99.9544 19.977 100.322C19.977 100.691 19.6794 100.986 19.3123 100.986C18.9426 100.986 18.6475 100.689 18.6475 100.322ZM14.6592 100.322C14.6592 99.9518 14.9568 99.6568 15.3239 99.6568C15.6936 99.6568 15.9886 99.9544 15.9886 100.322C15.9886 100.691 15.691 100.986 15.3239 100.986C14.9542 100.986 14.6592 100.689 14.6592 100.322ZM18.6475 104.31C18.6475 103.94 18.9451 103.645 19.3123 103.645C19.6819 103.645 19.977 103.943 19.977 104.31C19.977 104.68 19.6794 104.975 19.3123 104.975C18.9426 104.975 18.6475 104.677 18.6475 104.31ZM14.6592 104.31C14.6592 103.94 14.9568 103.645 15.3239 103.645C15.6936 103.645 15.9886 103.943 15.9886 104.31C15.9886 104.68 15.691 104.975 15.3239 104.975C14.9542 104.975 14.6592 104.677 14.6592 104.31ZM14.6592 108.298C14.6592 107.929 14.9568 107.634 15.3239 107.634C15.6936 107.634 15.9886 107.931 15.9886 108.298C15.9886 108.668 15.691 108.963 15.3239 108.963C14.9542 108.963 14.6592 108.665 14.6592 108.298ZM18.6475 108.298C18.6475 107.929 18.9451 107.634 19.3123 107.634C19.6819 107.634 19.977 107.931 19.977 108.298C19.977 108.668 19.6794 108.963 19.3123 108.963C18.9426 108.963 18.6475 108.665 18.6475 108.298Z" fill="#8686A2"/>
<path fill-rule="evenodd" clip-rule="evenodd" d="M136.402 20.92C136.297 20.9438 136.18 20.9089 136.106 20.8188C136.102 20.8138 135.661 20.2887 135.074 20.2543C134.74 20.2338 134.412 20.377 134.095 20.6781C133.973 20.7916 133.786 20.7864 133.673 20.6676C133.56 20.5478 133.565 20.3589 133.684 20.2461C134.129 19.8232 134.61 19.6276 135.115 19.6589C135.964 19.7133 136.543 20.4107 136.567 20.441C136.672 20.5675 136.653 20.7547 136.526 20.8585L136.402 20.92Z" fill="#2727E6"/>
<circle r="3.09374" transform="matrix(-0.845503 -0.533971 -0.533971 0.845503 138.711 22.8422)" fill="#2727E6"/>
<circle r="3.09374" transform="matrix(-0.845503 -0.533971 -0.533971 0.845503 131.061 21.7128)" fill="#2727E6"/>
<path d="M120.962 114.218L132.269 109.467L137.989 117.434C135.579 119.4 129.945 123.311 128.301 124.075C126.69 124.824 125.879 123.589 125.688 122.902C124.612 123.466 123.103 122.691 123.158 121.557C122.066 121.886 120.937 120.593 120.891 119.986C119.063 120.722 118.027 119.501 117.918 118.665L122.89 115.852C121.608 115.642 121.072 115.054 120.962 114.218Z" fill="white"/>
<path d="M122.89 115.852C121.608 115.642 121.072 115.054 120.962 114.218L132.269 109.467L137.989 117.434C135.579 119.4 129.945 123.311 128.301 124.075C126.69 124.824 125.879 123.589 125.688 122.902M122.89 115.852L126.104 114.136M122.89 115.852L117.918 118.665C118.027 119.501 119.063 120.722 120.891 119.986M120.891 119.986C122.18 119.301 124.44 118.193 125.368 117.542M120.891 119.986C120.937 120.593 122.066 121.886 123.158 121.557M123.158 121.557C124.249 121.229 126.022 120.49 126.95 119.839M123.158 121.557C123.103 122.691 124.612 123.466 125.688 122.902M125.688 122.902C126.764 122.339 125.047 123.207 128.316 121.495" stroke="#2727E6" stroke-linecap="round"/>
<path fill-rule="evenodd" clip-rule="evenodd" d="M158.354 80.6729C160.262 99.5028 134.512 107.862 134.512 107.862L131.079 109.281L137.835 119.827C137.835 119.827 160.113 117.552 170.27 104.744L158.354 80.6729Z" fill="#2727E6"/>
<path fill-rule="evenodd" clip-rule="evenodd" d="M137.845 120.168C137.687 120.168 137.545 120.058 137.511 119.898C137.471 119.713 137.589 119.532 137.773 119.492C137.98 119.448 158.507 114.905 168.468 102.341C168.587 102.194 168.802 102.169 168.949 102.285C169.098 102.403 169.122 102.618 169.005 102.766C158.889 115.523 138.125 120.115 137.917 120.16L137.845 120.168Z" fill="white"/>
<path fill-rule="evenodd" clip-rule="evenodd" d="M135.852 107.829C135.711 107.829 135.58 107.743 135.53 107.604C135.466 107.427 135.559 107.23 135.736 107.167C144.842 103.893 159.918 96.4415 158.589 83.3106C158.569 83.1227 158.706 82.9555 158.894 82.9364C159.085 82.9208 159.251 83.0542 159.269 83.2422C160.645 96.8348 145.261 104.468 135.968 107.809L135.852 107.829Z" fill="white"/>
</svg>
