<svg width="221" height="341" viewBox="0 0 221 341" fill="none" xmlns="http://www.w3.org/2000/svg">
<path fill-rule="evenodd" clip-rule="evenodd" d="M95.9568 221.014V226.824H93.78L126.942 339.574H123.531L120.326 328.677L97.3004 328.677L100.505 339.574H97.0944L78.5276 276.447L59.9608 339.574H56.5497L59.7547 328.677L36.7298 328.677L33.5247 339.574H30.1136L63.2754 226.824H59.8077V221.014L95.9568 221.014ZM76.0324 267.964L76.822 270.648L73.4907 281.974H50.4658L54.5866 267.964H76.0324ZM80.2331 270.648L96.6136 326.342H119.639L91.7457 231.505L80.2331 270.648ZM78.5276 264.849C77.3654 260.898 75.5517 254.731 75.5517 254.731H81.5034C81.5034 254.731 79.6897 260.898 78.5276 264.849ZM72.1406 254.731L75.3456 265.628H55.2734L58.4785 254.731H72.1406ZM74.8649 252.396H82.1902L86.0821 239.164L70.973 239.164L74.8649 252.396ZM67.5619 239.164L71.4538 252.396H59.1653L63.0572 239.164H67.5619ZM70.2862 236.829L86.7689 236.829L89.7115 226.824L67.3436 226.824L70.2862 236.829ZM65.3095 231.506L66.8751 236.829H63.744L65.3095 231.506ZM46.5739 295.207L49.779 284.31H72.8039L69.5989 295.207H46.5739ZM68.9121 297.542H45.8871L41.9953 310.774H65.0202L68.9121 297.542ZM37.4166 326.342L41.3085 313.109L64.3334 313.109L60.4415 326.342H37.4166Z" fill="#2727E6"/>
<path d="M93.78 226.824H95.9568V221.014L59.8077 221.014V226.824H63.2754M93.78 226.824L126.942 339.574M93.78 226.824L93.1515 226.824M126.942 339.574H123.531M126.942 339.574H158.738M123.531 339.574L120.326 328.677L97.3004 328.677L100.505 339.574M123.531 339.574L100.505 339.574M100.505 339.574H97.0944M97.0944 339.574L78.5276 276.447M97.0944 339.574H59.9608M78.5276 276.447L59.9608 339.574M78.5276 276.447L80.2331 270.648M59.9608 339.574H56.5497M56.5497 339.574L59.7547 328.677L36.7298 328.677L33.5247 339.574M56.5497 339.574H33.5247M33.5247 339.574H30.1136M30.1136 339.574L63.2754 226.824M30.1136 339.574H21.4722M63.2754 226.824H66.8751M76.0324 267.964L76.822 270.648M76.0324 267.964H54.5866L50.4658 281.974H73.4907L76.822 270.648M76.0324 267.964H77.6116C77.1806 269.429 76.822 270.648 76.822 270.648M80.2331 270.648L96.6136 326.342H119.639L91.7457 231.505M80.2331 270.648L91.7457 231.505M91.7457 231.505L93.1515 226.824M78.5276 264.849C77.3654 260.898 75.5517 254.731 75.5517 254.731M78.5276 264.849C79.6897 260.898 81.5034 254.731 81.5034 254.731H75.5517M78.5276 264.849C78.455 265.096 78.378 265.358 78.2984 265.628H75.3456M75.5517 254.731H72.1406M72.1406 254.731L75.3456 265.628M72.1406 254.731H58.4785L55.2734 265.628H75.3456M74.8649 252.396H82.1902L86.0821 239.164L70.973 239.164M74.8649 252.396L70.973 239.164M74.8649 252.396H71.4538M70.973 239.164H67.5619M67.5619 239.164L71.4538 252.396M67.5619 239.164H63.0572L59.1653 252.396H71.4538M70.2862 236.829L86.7689 236.829L89.7115 226.824M70.2862 236.829L67.3436 226.824M70.2862 236.829H66.8751M89.7115 226.824L67.3436 226.824M89.7115 226.824L93.1515 226.824M67.3436 226.824H66.8751M65.3095 231.506L66.8751 236.829M65.3095 231.506L63.744 236.829H66.8751M65.3095 231.506L66.8751 226.824M49.779 284.31L46.5739 295.207H69.5989L72.8039 284.31H49.779ZM45.8871 297.542H68.9121L65.0202 310.774H41.9953L45.8871 297.542ZM41.3085 313.109L37.4166 326.342H60.4415L64.3334 313.109L41.3085 313.109Z" stroke="#2727E6" stroke-linecap="round"/>
<path fill-rule="evenodd" clip-rule="evenodd" d="M25.2585 5.3996C25.2585 3.19046 27.0494 1.3996 29.2585 1.3996H215.732C217.941 1.3996 219.732 3.19046 219.732 5.3996V31.2799C219.732 33.489 217.941 35.2799 215.732 35.2799H29.2585C27.0494 35.2799 25.2585 33.489 25.2585 31.2799V5.3996Z" fill="white" stroke="#EDEDF1"/>
<path d="M83.2918 37.1632C89.9313 35.0518 94.5382 34.3491 100.574 37.8283C116.794 47.1767 73.0703 94.973 41.4136 103.304C35.0987 104.966 28.1194 102.639 28.1194 102.639C28.1194 102.639 64.3468 43.1879 83.2918 37.1632Z" fill="#1717D1"/>
<path d="M131.938 25.1525L129.405 35.3626L136.912 39.158C138.26 36.8554 140.83 31.5648 141.261 30.0703C141.683 28.6063 140.529 28.0817 139.922 28.0103C140.258 27.0239 139.401 25.8477 138.448 26.0437C138.582 25.0752 137.337 24.289 136.817 24.3306C137.199 22.6837 136.028 21.967 135.305 21.9848L133.577 26.5702C133.23 25.5111 132.661 25.1346 131.938 25.1525Z" fill="white"/>
<path d="M133.577 26.5702C133.23 25.5111 132.661 25.1346 131.938 25.1525L129.405 35.3626L136.912 39.158C138.26 36.8554 140.83 31.5648 141.261 30.0703C141.683 28.6063 140.529 28.0817 139.922 28.0103M133.577 26.5702L132.548 29.5208M133.577 26.5702L135.305 21.9848C136.028 21.967 137.199 22.6837 136.817 24.3306M136.817 24.3306C136.406 25.5127 135.766 27.5751 135.336 28.4475M136.817 24.3306C137.337 24.289 138.582 25.0752 138.448 26.0437M138.448 26.0437C138.314 27.0123 137.922 28.6123 137.493 29.4846M138.448 26.0437C139.401 25.8477 140.258 27.0239 139.922 28.0103M139.922 28.0103C139.586 28.9967 140.095 27.4273 139.076 30.4235" stroke="#2727E6" stroke-linecap="round"/>
<path fill-rule="evenodd" clip-rule="evenodd" d="M95.5882 67.4625C118.521 67.4625 128.444 33.9623 128.444 33.9623L133.539 36.1182L139.796 39.4201C139.796 39.4201 136.896 63.4863 110.212 84.413L95.5882 67.4625Z" fill="#2727E6"/>
<path fill-rule="evenodd" clip-rule="evenodd" d="M78.3037 67.1304C56.0354 59.486 46.3971 35.2236 46.3971 35.2236L42.0762 36.8853L36.0937 38.8795C36.0937 38.8795 40.4144 63.8067 68.3329 83.0838L78.3037 67.1304Z" fill="#2727E6"/>
<path d="M43.6952 25.5528L45.1012 35.9781L37.225 38.9331C36.1361 36.4973 34.1575 30.9582 33.8922 29.4257C33.6323 27.9244 34.836 27.5286 35.4475 27.5238C35.2213 26.5067 36.2007 25.4308 37.1272 25.7295C37.0994 24.7521 38.4224 24.1062 38.9352 24.2043C38.7345 22.5256 39.9771 21.9407 40.6937 22.0372L41.9119 26.7835C42.3717 25.7685 42.9787 25.4563 43.6952 25.5528Z" fill="white"/>
<path d="M41.9119 26.7835C42.3717 25.7685 42.9787 25.4563 43.6952 25.5528L45.1012 35.9781L37.225 38.9331C36.1361 36.4973 34.1575 30.9582 33.8922 29.4257C33.6323 27.9244 34.836 27.5286 35.4475 27.5238M41.9119 26.7835L42.6134 29.8287M41.9119 26.7835L40.6937 22.0372C39.9771 21.9407 38.7345 22.5256 38.9352 24.2043M38.9352 24.2043C39.2145 25.4241 39.6263 27.544 39.9582 28.458M38.9352 24.2043C38.4224 24.1062 37.0994 24.7521 37.1272 25.7295M37.1272 25.7295C37.155 26.707 37.37 28.34 37.7018 29.254M37.1272 25.7295C36.2007 25.4308 35.2213 26.5067 35.4475 27.5238M35.4475 27.5238C35.6738 28.5409 35.3388 26.9254 36.0253 30.0147" stroke="#2727E6" stroke-linecap="round"/>
<path fill-rule="evenodd" clip-rule="evenodd" d="M2.03726 172.94C1.64678 173.574 0.828161 174.819 2.44922 175.818C5.90149 177.946 14.3092 172.031 14.3092 172.031L19.8155 163.096L11.327 157.865C11.327 157.865 5.66514 167.053 2.03726 172.94Z" fill="#2727E6"/>
<path fill-rule="evenodd" clip-rule="evenodd" d="M84.977 223.886C85.7183 223.952 87.1982 224.129 87.3683 222.232C87.7307 218.193 78.6849 213.31 78.6849 213.31L69.3342 212.705C69.3342 212.705 66.343 217.69 67.0077 221.346C71.0001 222.197 78.0894 223.268 84.977 223.886Z" fill="#2727E6"/>
<path fill-rule="evenodd" clip-rule="evenodd" d="M105.511 137.039C105.511 137.039 108.309 163.801 103.889 180.004C99.4696 196.207 83.4021 213.702 83.4021 213.702L67.117 213.702C67.117 213.702 75.4929 195.13 79.0703 182.015C82.6478 168.9 78.4625 147.222 78.4625 147.222L75.4254 147.222C75.4254 147.222 67.117 163.183 58.3644 169.83C42.0805 182.197 12.7192 173.235 12.7192 173.235L16.5979 160.524C16.5979 160.524 38.098 165.574 45.7171 152.359C51.6084 142.141 52.8248 139.253 55.1513 130.944L79.0704 129.614L105.511 137.039Z" fill="#FCCBBB"/>
<path d="M102.679 172.489C102.679 177.262 100.298 181.131 97.361 181.131C94.4241 181.131 92.0432 177.262 92.0432 172.489" stroke="white" stroke-linecap="round"/>
<path d="M58.7081 89.0251C60.791 75.1802 72.8429 65.0432 86.84 65.3631C104.305 65.7623 116.726 81.9411 114.407 99.2565C114.174 100.999 113.989 102.61 113.868 104.022C112.066 125.179 107.221 149.224 107.221 149.224C107.221 149.224 92.6435 143.894 80.632 141.579C68.2588 139.195 51.0518 139.917 51.0518 139.917L58.7081 89.0251Z" fill="#2727E6"/>
<path d="M100.858 54.1779L101.485 47.2675C102.111 37.0335 85.1137 33.939 84.3622 46.2198L84.1771 47.5995C82.9319 47.5233 80.7225 47.534 80.566 50.0925C80.4094 52.6509 83.315 52.8287 84.7874 52.5978L83.9263 66.6695C83.574 72.4261 94.1587 73.0738 94.511 67.3172L94.7403 62.2391C95.9932 62.1884 97.2303 61.7497 98.2607 60.8817C99.7697 59.6106 100.836 57.4189 100.858 54.1779Z" fill="white"/>
<path d="M88.0163 54.6761C87.7166 59.5715 91.2885 62.3785 94.7403 62.2391M94.7403 62.2391C95.9932 62.1884 97.2303 61.7497 98.2607 60.8817C99.7697 59.6106 100.836 57.4189 100.858 54.1779L101.485 47.2675C102.111 37.0335 85.1137 33.939 84.3622 46.2198L84.1771 47.5995C82.9319 47.5233 80.7225 47.534 80.566 50.0925C80.4094 52.6509 83.315 52.8287 84.7874 52.5978L83.9263 66.6695C83.574 72.4261 94.1587 73.0738 94.511 67.3172L94.7403 62.2391ZM84.3906 49.2175C83.4567 49.1604 82.2114 49.0842 82.1331 50.3635" stroke="#2727E6" stroke-linecap="round"/>
<path d="M79.9179 47.734C79.9669 47.6373 80.027 47.5208 80.0981 47.387C80.3253 46.9596 80.6639 46.3568 81.1071 45.6602C81.9955 44.2637 83.2945 42.5056 84.9472 41.026C86.6011 39.5453 88.581 38.3683 90.8353 38.0788C92.8443 37.8208 95.1266 38.2604 97.6583 39.9117C95.0138 40.7299 93.292 42.4296 91.7449 43.9567C91.6943 44.0066 91.644 44.0562 91.5939 44.1057C89.7863 45.8877 88.217 47.3488 85.619 47.3487C85.0266 47.3487 84.3937 47.4424 83.7831 47.5517C83.559 47.5918 83.3406 47.6334 83.1262 47.6743C82.7389 47.7481 82.3649 47.8194 81.9952 47.8745C81.426 47.9593 80.9336 47.9939 80.5309 47.9387C80.2774 47.904 80.0766 47.8364 79.9179 47.734Z" fill="#1717D1" stroke="#1717D1"/>
<path d="M63.188 13.5999H64.724V19.5639L69.236 13.5999H70.688V21.9999H69.152V16.0479L64.64 21.9999H63.188V13.5999ZM79.1752 21.9999V17.7519L77.0152 21.3279H76.3672L74.2432 17.7399V21.9999H72.8752V15.5919H74.4472L76.7272 19.5999L79.1152 15.5919H80.5192L80.5312 21.9999H79.1752ZM87.9552 15.5919V21.9999H86.6112V20.0679H84.9192L83.6112 21.9999H82.0032L83.5152 19.8639C83.0512 19.7039 82.6952 19.4599 82.4472 19.1319C82.2072 18.7959 82.0872 18.3839 82.0872 17.8959C82.0872 17.1599 82.3472 16.5919 82.8672 16.1919C83.3872 15.7919 84.1032 15.5919 85.0152 15.5919H87.9552ZM85.0632 16.8519C84.0952 16.8519 83.6112 17.2159 83.6112 17.9439C83.6112 18.6639 84.0792 19.0239 85.0152 19.0239H86.6112V16.8519H85.0632Z" fill="#3C3C50"/>
<path fill-rule="evenodd" clip-rule="evenodd" d="M47.5321 13.1225C47.5321 12.7529 47.8297 12.4578 48.1968 12.4578C48.5665 12.4578 48.8615 12.7554 48.8615 13.1225C48.8615 13.4922 48.5639 13.7873 48.1968 13.7873C47.8271 13.7873 47.5321 13.4897 47.5321 13.1225ZM43.5437 13.1225C43.5437 12.7529 43.8413 12.4578 44.2084 12.4578C44.5781 12.4578 44.8732 12.7554 44.8732 13.1225C44.8732 13.4922 44.5755 13.7873 44.2084 13.7873C43.8387 13.7873 43.5437 13.4897 43.5437 13.1225ZM47.5321 17.1109C47.5321 16.7412 47.8297 16.4462 48.1968 16.4462C48.5665 16.4462 48.8615 16.7438 48.8615 17.1109C48.8615 17.4806 48.5639 17.7756 48.1968 17.7756C47.8271 17.7756 47.5321 17.478 47.5321 17.1109ZM43.5437 17.1109C43.5437 16.7412 43.8413 16.4462 44.2084 16.4462C44.5781 16.4462 44.8732 16.7438 44.8732 17.1109C44.8732 17.4806 44.5755 17.7756 44.2084 17.7756C43.8387 17.7756 43.5437 17.478 43.5437 17.1109ZM43.5437 21.0993C43.5437 20.7296 43.8413 20.4345 44.2084 20.4345C44.5781 20.4345 44.8732 20.7321 44.8732 21.0993C44.8732 21.4689 44.5755 21.764 44.2084 21.764C43.8387 21.764 43.5437 21.4664 43.5437 21.0993ZM47.5321 21.0993C47.5321 20.7296 47.8297 20.4345 48.1968 20.4345C48.5665 20.4345 48.8615 20.7321 48.8615 21.0993C48.8615 21.4689 48.5639 21.764 48.1968 21.764C47.8271 21.764 47.5321 21.4664 47.5321 21.0993Z" fill="#2727E6"/>
</svg>
