<svg width="396" height="278" viewBox="0 0 396 278" fill="none" xmlns="http://www.w3.org/2000/svg">
<g clip-path="url(#clip0)">
<path opacity="0.7" d="M264.327 206.158C325.501 199.275 383.638 148.622 377.562 94.8914C373.851 62.0725 351.94 55.0243 318.515 44.2721C297.216 37.421 271.243 29.066 242.324 11.582C191.153 -19.3551 155.221 16.6518 143.266 61.1585C83.2294 51.4307 14.613 83.1447 5.07672 135.672C-0.823404 168.17 18.1326 181.202 47.0506 201.082C65.4767 213.749 87.9474 229.197 110.61 254.233C160.1 308.907 216.735 259.26 233.126 205.817C243.175 207.194 253.65 207.359 264.327 206.158Z" fill="#FCCBBB"/>
<path d="M2.49349 82.8378C2.4988 82.0113 3.17175 81.3436 3.99829 81.3449L120.017 81.5251C120.835 81.5263 121.5 82.183 121.511 83.0011L122.714 166.836C122.726 167.674 122.048 168.361 121.21 168.36L3.4507 168.177C2.62045 168.176 1.95032 167.5 1.95565 166.67L2.49349 82.8378Z" fill="white" stroke="#2727E6" stroke-linecap="round"/>
<path d="M388.901 123.698C388.236 109.829 388.283 87.3147 388.313 80.4721C388.317 79.3533 387.405 78.4581 386.286 78.4785L359.168 78.9723C357.984 78.9939 357.077 80.0344 357.219 81.2105L362.444 124.708L388.901 123.698Z" fill="white" stroke="#2727E6"/>
<path d="M386.238 134.347C385.558 115.076 384.956 84.9836 384.808 76.9256C384.787 75.8019 383.847 74.9147 382.724 74.9425L355.536 75.6144C354.382 75.6429 353.491 76.64 353.593 77.7901L358.894 137.682L386.238 134.347Z" fill="white" stroke="#2727E6"/>
<path d="M383.576 140.559C382.887 121.024 381.591 84.1963 381.288 75.1541C381.251 74.0308 380.298 73.1401 379.174 73.1678L351.986 73.8397C350.832 73.8682 349.942 74.8654 350.043 76.0155L355.345 135.908L383.576 140.559Z" fill="white" stroke="#2727E6"/>
<path d="M369.887 91.2296C371.063 91.1688 372.106 91.5415 373.015 92.3476C373.909 93.1402 374.518 94.3314 374.842 95.9212L377.203 95.7993L377.334 98.3516L375.059 98.4691C375.043 99.5362 374.917 100.552 374.683 101.517C374.434 102.482 374.113 103.288 373.72 103.934L370.544 102.712C370.949 102.022 371.263 101.231 371.487 100.338C371.711 99.4453 371.801 98.5734 371.757 97.7226C371.674 96.1062 371.228 95.3188 370.42 95.3606C369.994 95.3825 369.695 95.6326 369.52 96.1108C369.331 96.5755 369.149 97.3242 368.975 98.3568C368.792 99.4894 368.585 100.438 368.354 101.204C368.11 101.97 367.696 102.638 367.114 103.209C366.533 103.779 365.724 104.091 364.689 104.144C363.47 104.207 362.405 103.821 361.494 102.987C360.57 102.153 359.965 100.912 359.681 99.2633L357.342 99.3841L357.21 96.8318L359.507 96.7132C359.536 95.9013 359.638 95.1212 359.813 94.3729C359.986 93.6104 360.229 92.9297 360.539 92.3308L363.732 93.4667C363.04 94.9242 362.728 96.3194 362.797 97.6522C362.84 98.4888 362.999 99.0919 363.274 99.4616C363.535 99.832 363.864 100.007 364.261 99.9864C364.658 99.9659 364.944 99.7237 365.119 99.2597C365.294 98.7957 365.462 98.0548 365.623 97.0371C365.805 95.8903 366.019 94.9409 366.265 94.189C366.495 93.4236 366.902 92.7557 367.483 92.1854C368.05 91.6016 368.851 91.283 369.887 91.2296Z" fill="#2727E6"/>
<path d="M151.082 193.315C151.082 147.515 188.21 110.387 234.01 110.387H238.003C282.678 110.387 318.479 147.375 317.023 192.027L289.514 231.072H151.082V193.315Z" fill="#2727E6"/>
<path d="M392.117 113.046C388.802 111.261 363.899 117.808 356.25 120.104C348.6 122.4 357.337 105.076 349.479 106.676C345.986 107.388 340.355 116.536 344.181 129.285L313.485 168.064C312.428 164.542 309.57 155.576 303.013 145.879C294.47 133.246 287.04 135.23 287.04 145.879L287.04 199.122L287.04 231.068C288.815 237.28 296.613 238.171 302.825 236.397C304.792 235.835 310.062 233.889 311.887 232.29C328.94 217.347 349.479 184.037 349.479 184.037C349.479 184.037 369.532 152.091 374.004 148.541C378.476 144.992 379.276 144.632 383.698 142.66C388.029 140.728 386.965 136.93 385.917 135.341C388.938 134.162 390.021 129.765 387.642 127.888C390.217 126.265 389.592 121.725 388.45 120.569C393.137 118.177 395.432 114.83 392.117 113.046Z" fill="white"/>
<path d="M388.45 120.569C384.812 121.963 378.618 124.574 375.68 125.301M388.45 120.569C393.137 118.177 395.432 114.83 392.117 113.046C388.802 111.261 363.899 117.808 356.25 120.104C348.6 122.4 357.337 105.076 349.479 106.676C345.986 107.388 340.355 116.536 344.181 129.285M388.45 120.569C389.592 121.725 390.217 126.265 387.642 127.888M387.642 127.888C385.067 129.511 380.473 131.787 377.535 132.514M387.642 127.888C390.021 129.765 388.938 134.162 385.917 135.341M385.917 135.341C382.895 136.52 387.652 134.585 378.476 138.167M385.917 135.341C386.965 136.93 388.029 140.728 383.698 142.66C379.276 144.632 378.476 144.992 374.004 148.541C369.532 152.091 349.479 184.037 349.479 184.037C349.479 184.037 328.94 217.347 311.887 232.29M344.181 129.285L346.221 126.82M344.181 129.285L301.859 182.752M313.485 168.064C312.428 164.542 309.57 155.576 303.013 145.879C294.47 133.246 287.04 135.23 287.04 145.879C287.04 166.672 287.04 177.825 287.04 199.122C287.04 199.122 287.04 222.194 287.04 231.068C288.815 237.28 296.613 238.171 302.825 236.397C304.792 235.835 310.062 233.889 311.887 232.29M311.887 232.29L380.915 232.29" stroke="#2727E6" stroke-linecap="round"/>
<path d="M138.657 125.085C130.508 125.085 123.821 126.517 118.136 129.332C112.452 132.146 107.74 136.359 103.562 141.966C95.2035 153.185 89.022 169.922 81.4917 192.065L88.493 230.571H127.434H209.203C216.049 171.503 179.852 125.085 138.657 125.085Z" fill="#2727E6" stroke="#2727E6"/>
<path d="M17.0319 141.541C19.9516 139.969 33.0108 147.511 39.7478 149.532C39.7478 149.532 45.7463 152.413 48.5806 155.447C49.3319 156.251 50.377 157.618 50.377 157.618L81.1938 192.864C82.2769 189.309 91.4592 161.468 96.0213 152.335C99.5709 145.229 102.233 142.567 106.67 138.13C106.67 156.443 105.368 187.492 105.368 206.249C105.368 206.249 104.895 221.728 104.895 229.543L78.2736 229.543C72.9493 229.543 50.3763 192.963 50.3763 192.963C50.3763 192.963 42.5089 178.592 38.5702 175.465C34.6315 172.339 33.9265 172.022 30.0324 170.285C26.2176 168.584 21.5694 162.577 22.4927 161.178C19.8314 160.139 18.8778 156.266 20.9731 154.613C18.7054 153.184 19.2555 149.185 20.2618 148.167C16.1335 146.06 14.1123 143.113 17.0319 141.541Z" fill="white"/>
<path d="M39.7478 149.532C33.0108 147.511 19.9516 139.969 17.0319 141.541C14.1123 143.113 16.1335 146.06 20.2618 148.167M39.7478 149.532L33.2459 160.38C32.0627 163.634 30.9387 169.076 35.908 164.817C40.8774 160.557 43.3029 158.901 43.8945 158.605M39.7478 149.532C39.7478 149.532 45.7463 152.413 48.5806 155.447C49.3319 156.251 50.377 157.618 50.377 157.618L90.0379 202.979M20.2618 148.167C23.4658 149.394 28.9209 151.695 31.5086 152.335M20.2618 148.167C19.2555 149.185 18.7054 153.184 20.9731 154.613M20.9731 154.613C23.2408 156.043 27.2871 158.047 29.8747 158.688M20.9731 154.613C18.8778 156.266 19.8314 160.139 22.4927 161.178M22.4927 161.178C25.1538 162.216 20.9642 160.511 29.0461 163.667M22.4927 161.178C21.5694 162.577 26.2176 168.584 30.0324 170.285C33.9265 172.022 34.6315 172.339 38.5702 175.465C42.5089 178.592 50.3763 192.963 50.3763 192.963C50.3763 192.963 72.9493 229.543 78.2736 229.543M81.1641 192.963C82.0949 189.861 91.4141 161.558 96.0213 152.335C99.5709 145.229 102.233 142.567 106.67 138.13C106.67 156.443 105.368 187.492 105.368 206.249C105.368 206.249 104.895 221.728 104.895 229.543C98.6835 229.543 83.5979 229.543 78.2736 229.543M78.2736 229.543L33.2459 229.543" stroke="#2727E6" stroke-linecap="round"/>
<path d="M133.958 145.574C133.958 145.574 117.713 128.679 107.598 135.234C95.1887 143.277 83.8982 176.436 83.8982 176.436L128.44 184.603L133.958 145.574Z" fill="#2727E6"/>
<path d="M112.036 59.8049C119.275 48.2688 132.12 42.64 143.643 39.0546C174.606 29.4206 198.487 80.6604 167.942 124.584C157.72 127.243 125.118 124.482 114.216 121.853C113.248 121.619 115.537 115.856 114.623 115.619C113.662 115.369 110.468 121.075 109.577 120.828C102.886 118.97 103.672 117.284 103.672 117.284C103.672 117.284 94.9254 87.0735 112.036 59.8049Z" fill="#2727E6"/>
<path d="M109.234 91.3775L110.572 63.8043C111.91 36.2311 159.662 33.0202 158.057 66.108L157.557 75.1919C161.01 75.3595 167.094 76.047 166.76 82.9403C166.425 89.8336 158.367 89.4426 154.38 88.3855L152.541 126.299C157.734 128.753 159.954 129.023 167.94 133.46C165.873 141.173 151.031 167.352 135.78 165.68C112.576 163.137 110.321 138.34 111.469 134.055C114.131 131.96 117.359 129.91 122.683 127.248L123.677 114.774C120.24 114.265 116.964 112.722 114.385 110.092C110.608 106.24 108.328 100.058 109.234 91.3775Z" fill="white"/>
<path d="M123.677 114.774C120.24 114.265 116.964 112.722 114.385 110.092C110.608 106.24 108.328 100.058 109.234 91.3775L110.572 63.8043C111.91 36.2311 159.662 33.0202 158.057 66.108L157.557 75.1919C161.01 75.3595 167.094 76.047 166.76 82.9403C166.425 89.8336 158.367 89.4426 154.38 88.3855L152.541 126.299C157.734 128.753 159.954 129.023 167.94 133.46C165.873 141.173 151.031 167.352 135.78 165.68C112.576 163.137 110.321 138.34 111.469 134.055C114.131 131.96 117.359 129.91 122.683 127.248L123.677 114.774ZM123.677 114.774C129.494 115.636 135.769 113.535 139.892 108.727M156.485 79.4582C159.075 79.5838 162.528 79.7513 162.361 83.1982" stroke="#2727E6" stroke-linecap="round"/>
<path d="M276.337 79.0769V46.9824C276.337 14.8878 221.066 8.46901 221.066 46.9825L221.135 57.5593C217.115 57.5593 210.012 58.0149 210.012 66.0386C210.012 74.0622 219.391 74.0622 224.081 73.0592V117.189C224.081 135.242 258.248 135.242 258.248 117.189V105.433C262.267 105.035 266.159 103.428 269.302 100.519C273.905 96.259 276.901 89.2077 276.337 79.0769Z" fill="white"/>
<path d="M235.136 83.0888C235.135 98.4413 247.175 106.528 258.248 105.433M258.248 105.433C262.267 105.035 266.159 103.428 269.302 100.519C273.905 96.259 276.901 89.2077 276.337 79.0769V46.9824C276.337 14.8878 221.066 8.46901 221.066 46.9825L221.135 57.5593C217.115 57.5593 210.012 58.0149 210.012 66.0386C210.012 74.0622 219.391 74.0622 224.081 73.0592V117.189C224.081 135.242 258.248 135.242 258.248 117.189V105.433ZM222.14 62.5738C219.125 62.5738 215.105 62.5738 215.105 66.5858" stroke="#2727E6" stroke-linecap="round"/>
<path d="M255.793 62.582C250.469 62.582 248.694 64.3568 248.694 69.6811C248.694 75.0055 250.469 76.7802 255.793 76.7802C259.343 76.7803 262.893 75.0053 262.893 69.681C262.893 64.3568 261.118 62.582 255.793 62.582Z" stroke="#2727E6"/>
<path d="M273.541 62.582C268.217 62.582 266.442 64.3568 266.442 69.6811C266.442 75.0055 268.217 76.7802 273.541 76.7802C277.091 76.7803 280.64 75.0053 280.64 69.681C280.64 64.3568 278.866 62.582 273.541 62.582Z" stroke="#2727E6"/>
<path d="M289.112 26.0523C286.313 22.2842 280.953 18.9748 274.404 16.4952C267.87 14.0215 260.222 12.3998 252.922 11.9618C245.614 11.5233 238.706 12.2743 233.628 14.5014C228.572 16.7186 225.38 20.3654 225.304 25.7609C225.263 28.741 226.462 32.221 228.657 35.7938C230.847 39.3593 234.004 42.9794 237.818 46.2301C245.453 52.7375 255.653 57.7112 265.87 57.8544C273.655 57.9635 282.315 53.7706 287.596 47.6346C290.231 44.573 292.003 41.0529 292.423 37.3733C292.843 33.7043 291.925 29.8377 289.112 26.0523Z" fill="#2727E6" stroke="#2727E6"/>
<path d="M235.629 74.4892C235.628 74.4719 235.626 74.4542 235.625 74.436C235.599 74.0451 235.559 73.4719 235.503 72.7442C235.392 71.2886 235.219 69.215 234.973 66.7446C234.479 61.8023 233.691 55.2782 232.513 48.9391C231.332 42.5887 229.767 36.4678 227.734 32.3068C226.715 30.2214 225.606 28.6859 224.419 27.8426C223.268 27.0255 222.035 26.8468 220.636 27.4922C219.027 28.2348 217.322 29.9172 215.825 32.2041C214.335 34.4801 213.083 37.306 212.355 40.2676C210.893 46.2188 211.576 52.5386 216.41 56.1565C217.599 57.0461 218.804 57.4258 220.038 57.6506C220.577 57.7489 221.115 57.8165 221.666 57.8857C221.751 57.8964 221.836 57.9071 221.921 57.9179C222.555 57.9984 223.204 58.087 223.849 58.2325C225.437 58.5904 226.355 59.9728 227.017 61.5811C227.462 62.6621 227.83 63.9502 228.204 65.2581C228.387 65.8962 228.571 66.539 228.765 67.1648C229.373 69.1165 230.098 70.9567 231.235 72.3082C232.262 73.5272 233.635 74.3633 235.629 74.4892Z" fill="#2727E6" stroke="#2727E6"/>
<path d="M269.083 154.623C269.083 154.623 277.874 134.394 288.605 134.588C301.43 134.821 312.585 162.743 312.585 162.743L283.712 178.961L269.083 154.623Z" fill="#2727E6"/>
<path d="M91.0031 174.433C90.248 172.928 90.8564 171.095 92.3619 170.34L112.292 160.345C113.797 159.59 115.63 160.198 116.385 161.703L135.48 199.778C136.235 201.283 135.627 203.116 134.121 203.871L114.191 213.866C112.686 214.621 110.853 214.013 110.098 212.508L91.0031 174.433Z" fill="white" stroke="#2727E6"/>
<rect x="96.0625" y="173.62" width="6.14433" height="15.973" rx="3.07216" transform="rotate(-28.058 96.0625 173.62)" fill="#2727E6"/>
<path d="M126.234 181.378C124.092 177.371 124.047 177.426 122.273 174.764C118.97 169.811 119.685 166.792 124.935 169.454C130.184 172.116 132.34 173.328 136.002 175.282C136.973 175.801 138.404 176.757 138.404 176.757L175.041 197.351C175.041 189.254 175.137 149.063 175.928 138.784C182.14 145.883 179.178 142.312 185.277 149.432C190.598 155.644 205.014 178.074 206.987 199.612C207.967 210.322 206.511 218.216 204.324 228.41C201.997 239.261 192.174 241.401 185.277 236.828C178.381 232.256 149.782 208.432 149.782 208.432C149.782 208.432 140.021 202.274 136.003 199.612C133.262 201.762 127.332 202.659 123.085 202.274C120.917 202.078 119.101 199.434 117.859 196.948C116.718 194.663 116.061 192.511 116.061 192.511C116.061 192.511 107.599 194.689 108.487 189.365C111.189 188.014 120.601 183.569 126.234 181.378Z" fill="white"/>
<path d="M126.234 181.378C124.092 177.371 124.047 177.426 122.273 174.764C118.97 169.811 119.685 166.792 124.935 169.454C130.184 172.116 132.34 173.328 136.002 175.282C136.973 175.801 138.404 176.757 138.404 176.757L175.041 197.351M126.234 181.378C120.601 183.569 111.189 188.014 108.487 189.365C107.599 194.689 116.061 192.511 116.061 192.511M126.234 181.378C128.001 180.691 129.625 180.144 130.259 180.089M116.061 192.511C116.061 192.511 120.498 190.737 124.935 188.962M116.061 192.511C116.061 192.511 116.718 194.663 117.859 196.948M190.598 206.863L175.041 197.351M175.041 197.351C175.041 189.254 175.137 149.063 175.928 138.784C182.14 145.883 179.178 142.312 185.277 149.432C190.598 155.644 205.014 178.074 206.987 199.612C207.967 210.322 206.511 218.216 204.324 228.41C201.997 239.261 192.174 241.401 185.277 236.828C178.381 232.256 149.782 208.432 149.782 208.432C149.782 208.432 140.021 202.274 136.003 199.612C133.262 201.762 127.332 202.659 123.085 202.274C120.917 202.078 119.101 199.434 117.859 196.948M117.859 196.948L126.189 195.173" stroke="#2727E6" stroke-linecap="round"/>
<path d="M161.621 147.854C161.621 147.854 176.912 127.736 187.026 134.291C199.113 142.124 210.793 181.218 210.793 181.218L167.138 186.883L161.621 147.854Z" fill="#2727E6"/>
<path d="M179.477 141.446C183.027 144.108 193.675 153.869 200.774 174.904" stroke="white" stroke-linecap="round"/>
<path d="M97.8379 75.5769C97.8379 55.3526 113.022 38.1081 133.242 37.6804C140.489 37.5271 147.731 37.6515 153.743 38.307C159.534 38.9383 163.505 44.1833 163.505 50.0083V75.5769H97.8379Z" fill="#2727E6"/>
<path d="M332.765 232.155C332.765 225.939 354.522 225.939 354.522 232.155C354.522 238.372 332.765 238.372 332.765 232.155Z" fill="white" stroke="#2727E6" stroke-linecap="round"/>
<path d="M332.765 227.171C332.765 220.955 354.522 220.955 354.522 227.171C354.522 233.388 332.765 233.388 332.765 227.171Z" fill="white" stroke="#2727E6" stroke-linecap="round"/>
<path d="M332.765 223.012C332.765 216.795 354.522 216.795 354.522 223.012C354.522 229.228 332.765 229.228 332.765 223.012Z" fill="white" stroke="#2727E6" stroke-linecap="round"/>
<path d="M332.765 218.852C332.765 212.635 354.522 212.635 354.522 218.852C354.522 225.068 332.765 225.068 332.765 218.852Z" fill="white" stroke="#2727E6" stroke-linecap="round"/>
<path d="M332.765 213.527C332.765 207.311 354.522 207.311 354.522 213.527C354.522 219.744 332.765 219.744 332.765 213.527Z" fill="white" stroke="#2727E6" stroke-linecap="round"/>
<path d="M332.765 208.203C332.765 201.987 354.522 201.987 354.522 208.203C354.522 214.419 332.765 214.419 332.765 208.203Z" fill="white" stroke="#2727E6" stroke-linecap="round"/>
<path d="M332.765 202.879C332.765 196.662 354.522 196.662 354.522 202.879C354.522 209.095 332.765 209.095 332.765 202.879Z" fill="white" stroke="#2727E6" stroke-linecap="round"/>
<path d="M332.765 197.554C332.765 191.338 354.522 191.338 354.522 197.554C354.522 203.77 332.765 203.77 332.765 197.554Z" fill="white" stroke="#2727E6" stroke-linecap="round"/>
<path d="M41.7025 228.606C41.7025 222.39 63.4593 222.39 63.4593 228.606C63.4593 234.822 41.7025 234.822 41.7025 228.606Z" fill="white" stroke="#2727E6" stroke-linecap="round"/>
<path d="M41.7025 223.622C41.7025 217.406 63.4593 217.406 63.4593 223.622C63.4593 229.838 41.7025 229.838 41.7025 223.622Z" fill="white" stroke="#2727E6" stroke-linecap="round"/>
<path d="M41.7025 219.462C41.7025 213.246 63.4593 213.246 63.4593 219.462C63.4593 225.678 41.7025 225.678 41.7025 219.462Z" fill="white" stroke="#2727E6" stroke-linecap="round"/>
<path d="M41.7025 215.302C41.7025 209.086 63.4593 209.086 63.4593 215.302C63.4593 221.518 41.7025 221.518 41.7025 215.302Z" fill="white" stroke="#2727E6" stroke-linecap="round"/>
<path d="M41.7025 209.978C41.7025 203.762 63.4593 203.762 63.4593 209.978C63.4593 216.194 41.7025 216.194 41.7025 209.978Z" fill="white" stroke="#2727E6" stroke-linecap="round"/>
<path d="M41.7025 204.653C41.7025 198.437 63.4593 198.437 63.4593 204.653C63.4593 210.87 41.7025 210.87 41.7025 204.653Z" fill="white" stroke="#2727E6" stroke-linecap="round"/>
<path d="M41.7025 199.329C41.7025 193.113 63.4593 193.113 63.4593 199.329C63.4593 205.545 41.7025 205.545 41.7025 199.329Z" fill="white" stroke="#2727E6" stroke-linecap="round"/>
<path d="M41.7025 194.005C41.7025 187.788 63.4593 187.788 63.4593 194.005C63.4593 200.221 41.7025 200.221 41.7025 194.005Z" fill="white" stroke="#2727E6" stroke-linecap="round"/>
<path d="M343.414 236.869C343.414 230.653 365.17 230.653 365.17 236.869C365.17 243.086 343.414 243.086 343.414 236.869Z" fill="white" stroke="#2727E6" stroke-linecap="round"/>
<path d="M343.414 231.885C343.414 225.669 365.17 225.669 365.17 231.885C365.17 238.102 343.414 238.102 343.414 231.885Z" fill="white" stroke="#2727E6" stroke-linecap="round"/>
<path d="M343.414 227.725C343.414 221.509 365.17 221.509 365.17 227.725C365.17 233.942 343.414 233.942 343.414 227.725Z" fill="white" stroke="#2727E6" stroke-linecap="round"/>
<path d="M64.7748 229.77C64.7748 223.554 86.5315 223.554 86.5315 229.77C86.5315 235.987 64.7748 235.987 64.7748 229.77Z" fill="white" stroke="#2727E6" stroke-linecap="round"/>
<path d="M64.7748 224.786C64.7748 218.57 86.5315 218.57 86.5315 224.786C86.5315 231.002 64.7748 231.002 64.7748 224.786Z" fill="white" stroke="#2727E6" stroke-linecap="round"/>
<path d="M64.7748 220.626C64.7748 214.41 86.5315 214.41 86.5315 220.626C86.5315 226.842 64.7748 226.842 64.7748 220.626Z" fill="white" stroke="#2727E6" stroke-linecap="round"/>
<path d="M94.9467 229.16C94.9467 222.944 116.703 222.944 116.703 229.16C116.703 235.376 94.9467 235.376 94.9467 229.16Z" fill="white" stroke="#2727E6" stroke-linecap="round"/>
<path d="M94.9467 224.176C94.9467 217.96 116.703 217.96 116.703 224.176C116.703 230.392 94.9467 230.392 94.9467 224.176Z" fill="white" stroke="#2727E6" stroke-linecap="round"/>
<path d="M54.1264 233.32C54.1264 227.104 75.8831 227.104 75.8831 233.32C75.8831 239.536 54.1264 239.536 54.1264 233.32Z" fill="white" stroke="#2727E6" stroke-linecap="round"/>
<path d="M54.1264 228.336C54.1264 222.12 75.8831 222.12 75.8831 228.336C75.8831 234.552 54.1264 234.552 54.1264 228.336Z" fill="white" stroke="#2727E6" stroke-linecap="round"/>
<path d="M54.1264 224.176C54.1264 217.96 75.8831 217.96 75.8831 224.176C75.8831 230.392 54.1264 230.392 54.1264 224.176Z" fill="white" stroke="#2727E6" stroke-linecap="round"/>
<path d="M262.004 230.11C265.945 242.608 308.148 241.721 309.795 230.11C310.257 226.852 297.425 197.749 290.01 194.99C291.762 194.566 293.528 192.942 291.262 191.596C293.28 191.596 293.144 187.786 291.262 187.159C291.853 186.272 293.747 183.964 293.037 181.835C292.327 179.705 280.218 180.455 278.838 181.835C278.543 182.13 277.951 182.9 277.951 183.609C277.951 184.319 279.462 186.664 280.218 187.748C279.112 188.34 278.838 189.218 278.838 189.821C278.838 190.531 279.296 190.709 279.968 190.709C278.785 191.101 277.951 191.667 277.951 192.483C277.951 194.729 278.784 195.197 280.613 195.145C275.657 197.905 258.064 217.611 262.004 230.11Z" fill="white"/>
<path d="M280.613 195.145C275.657 197.905 258.064 217.611 262.004 230.11C265.945 242.608 308.148 241.721 309.795 230.11C310.257 226.852 297.425 197.749 290.01 194.99M280.613 195.145C282.478 195.028 288.173 194.813 290.01 194.99M280.613 195.145L290.01 194.99M280.613 195.145C278.784 195.197 277.951 194.729 277.951 192.483C277.951 191.667 278.785 191.101 279.968 190.709M290.01 194.99C291.762 194.566 293.528 192.942 291.262 191.596M279.968 190.709C282.642 189.821 287.984 190.709 288.6 190.709C289.199 190.709 289.885 190.778 291.262 191.596M279.968 190.709C279.296 190.709 278.838 190.531 278.838 189.821C278.838 189.218 279.112 188.34 280.218 187.748M291.262 187.159C288.6 186.272 285.346 186.863 282.388 187.159C281.442 187.254 280.738 187.469 280.218 187.748M291.262 187.159C293.144 187.786 293.28 191.596 291.262 191.596M291.262 187.159C291.853 186.272 293.747 183.964 293.037 181.835C292.327 179.705 280.218 180.455 278.838 181.835C278.543 182.13 277.951 182.9 277.951 183.609C277.951 184.319 279.462 186.664 280.218 187.748" stroke="#2727E6" stroke-linecap="round"/>
<path d="M288.369 233.555C288.369 246.146 250.326 245.319 250.326 233.555C250.326 221.79 259.423 209.757 264.876 207.728C263.587 207.416 262.289 206.221 263.955 205.231C262.471 205.231 262.571 202.43 263.955 201.968C263.52 201.316 262.128 199.619 262.65 198.053C263.172 196.487 272.077 197.038 273.092 198.053C273.309 198.27 273.744 198.836 273.744 199.358C273.744 199.88 272.633 201.605 272.077 202.402C272.89 202.837 273.092 203.482 273.092 203.926C273.092 204.448 272.755 204.579 272.261 204.579C273.131 204.867 273.744 205.284 273.744 205.884C273.744 207.535 273.132 207.88 271.787 207.842C275.431 209.871 288.369 220.963 288.369 233.555Z" fill="white"/>
<path d="M271.787 207.842C275.431 209.871 288.369 220.963 288.369 233.555C288.369 246.146 250.326 245.319 250.326 233.555C250.326 221.79 259.423 209.757 264.876 207.728M271.787 207.842C270.415 207.755 266.227 207.597 264.876 207.728M271.787 207.842L264.876 207.728M271.787 207.842C273.132 207.88 273.744 207.535 273.744 205.884C273.744 205.284 273.131 204.867 272.261 204.579M264.876 207.728C263.587 207.416 262.289 206.221 263.955 205.231M272.261 204.579C270.294 203.926 266.366 204.579 265.913 204.579C265.473 204.579 264.968 204.63 263.955 205.231M272.261 204.579C272.755 204.579 273.092 204.448 273.092 203.926C273.092 203.482 272.89 202.837 272.077 202.402M263.955 201.968C265.913 201.316 268.306 201.751 270.481 201.968C271.177 202.038 271.695 202.197 272.077 202.402M263.955 201.968C262.571 202.43 262.471 205.231 263.955 205.231M263.955 201.968C263.52 201.316 262.128 199.619 262.65 198.053C263.172 196.487 272.077 197.038 273.092 198.053C273.309 198.27 273.744 198.836 273.744 199.358C273.744 199.88 272.633 201.605 272.077 202.402" stroke="#2727E6" stroke-linecap="round"/>
<path d="M273.541 228.98C273.541 229.92 273.189 230.736 272.485 231.427C271.793 232.107 270.784 232.543 269.458 232.735V234.622H267.346V232.803C266.466 232.747 265.632 232.605 264.846 232.379C264.06 232.141 263.409 231.852 262.893 231.512L264.037 229.031C264.588 229.382 265.228 229.666 265.955 229.881C266.683 230.096 267.398 230.204 268.102 230.204C269.44 230.204 270.109 229.881 270.109 229.235C270.109 228.895 269.915 228.646 269.528 228.487C269.153 228.317 268.543 228.142 267.698 227.961C266.771 227.768 265.996 227.564 265.374 227.349C264.752 227.122 264.219 226.765 263.773 226.278C263.327 225.791 263.104 225.134 263.104 224.307C263.104 223.333 263.468 222.5 264.195 221.809C264.923 221.107 265.973 220.676 267.346 220.518V218.649H269.458V220.484C270.127 220.541 270.766 220.654 271.376 220.824C271.998 220.994 272.55 221.215 273.031 221.486L271.957 223.984C270.784 223.373 269.646 223.067 268.543 223.067C267.85 223.067 267.346 223.169 267.029 223.373C266.712 223.565 266.554 223.82 266.554 224.137C266.554 224.454 266.741 224.692 267.117 224.851C267.492 225.01 268.097 225.174 268.93 225.344C269.868 225.536 270.643 225.746 271.253 225.972C271.875 226.188 272.409 226.539 272.855 227.026C273.312 227.502 273.541 228.153 273.541 228.98Z" fill="#2727E6"/>
<path d="M307.919 233.32C307.919 227.104 329.676 227.104 329.676 233.32C329.676 239.536 307.919 239.536 307.919 233.32Z" fill="white" stroke="#2727E6" stroke-linecap="round"/>
<path d="M307.919 228.336C307.919 222.12 329.676 222.12 329.676 228.336C329.676 234.552 307.919 234.552 307.919 228.336Z" fill="white" stroke="#2727E6" stroke-linecap="round"/>
<path d="M307.919 224.176C307.919 217.96 329.676 217.96 329.676 224.176C329.676 230.392 307.919 230.392 307.919 224.176Z" fill="white" stroke="#2727E6" stroke-linecap="round"/>
</g>
<defs>
<clipPath id="clip0">
<path d="M0 0H396V278H0V0Z" fill="white"/>
</clipPath>
</defs>
</svg>
