<svg width="28" height="13" viewBox="0 0 28 13" fill="none" xmlns="http://www.w3.org/2000/svg">
<path d="M27.0009 3.81699C26.525 2.69453 25.7342 1.74315 24.7379 1.06925C24.2397 0.732343 23.6894 0.464881 23.1017 0.281683C22.5141 0.0984856 21.8889 -7.22576e-05 21.2448 2.57797e-06C20.3197 -0.000820613 19.4461 0.195547 18.6488 0.522654C17.95 0.80875 17.3067 1.19168 16.7052 1.63007C15.6531 2.39848 14.722 3.3358 13.8329 4.29459C13.804 4.3258 13.7757 4.35723 13.7469 4.38859C13.7407 4.38177 13.7345 4.37489 13.7283 4.36808C13.2298 3.82784 12.7176 3.29411 12.1794 2.79159C11.3719 2.03875 10.5059 1.35228 9.52612 0.839957C9.03655 0.584319 8.51816 0.373732 7.97021 0.227428C7.42257 0.0810496 6.84566 -7.28697e-05 6.24847 7.68015e-05C5.38966 -7.28697e-05 4.56497 0.175417 3.81699 0.49257C2.69453 0.96845 1.74315 1.75931 1.06925 2.7556C0.732341 3.25378 0.464879 3.80412 0.281681 4.3918C0.0984837 4.97941 -7.47399e-05 5.60459 9.56595e-08 6.24862C-0.000149575 7.10744 0.17534 7.93212 0.492493 8.68011C0.968373 9.80241 1.75931 10.7538 2.75552 11.4277C3.2537 11.7646 3.80404 12.0321 4.39173 12.2153C4.97934 12.3985 5.60451 12.497 6.24855 12.4969C7.17366 12.4977 8.04729 12.3014 8.84459 11.9743C9.54341 11.6882 10.1867 11.3053 10.7881 10.8669C11.8403 10.0985 12.7714 9.16115 13.6605 8.20236C13.6894 8.17115 13.7177 8.13972 13.7465 8.10844C13.7527 8.11525 13.7589 8.12213 13.7651 8.12894C14.2636 8.66918 14.7758 9.20291 15.314 9.70543C16.1215 10.4583 16.9875 11.1447 17.9673 11.6571C18.4568 11.9126 18.9752 12.1233 19.5232 12.2696C20.0708 12.416 20.6477 12.4971 21.2449 12.4969C22.1037 12.4971 22.9284 12.3215 23.6764 12.0045C24.7989 11.5286 25.7502 10.7377 26.4241 9.74142C26.7611 9.24324 27.0285 8.6929 27.2117 8.10522C27.3949 7.51761 27.4935 6.89244 27.4934 6.24848C27.4935 5.38966 27.3181 4.56497 27.0009 3.81699ZM11.8914 6.43422C11.4159 6.94976 10.9444 7.43948 10.474 7.87847C9.76859 8.538 9.06581 9.07913 8.36983 9.44133C8.02155 9.62303 7.67536 9.76141 7.32558 9.8548C6.9755 9.94812 6.62168 9.99736 6.24862 9.99751C5.72919 9.99736 5.23991 9.89252 4.79217 9.70311C4.12105 9.41911 3.54504 8.94106 3.13988 8.34148C2.93722 8.04176 2.7773 7.71241 2.66796 7.36158C2.55863 7.0106 2.49951 6.63822 2.49951 6.24855C2.49966 5.72912 2.6045 5.23984 2.79391 4.79217C3.07791 4.12112 3.55596 3.54504 4.15562 3.13988C4.45526 2.93722 4.78469 2.7773 5.13567 2.66797C5.48665 2.55863 5.85903 2.49951 6.2487 2.49951C6.82553 2.50026 7.35926 2.6164 7.89837 2.83605C8.36886 3.0283 8.8407 3.30317 9.31583 3.64973C10.1477 4.25485 10.9828 5.08014 11.8268 5.99291C11.9045 6.07688 11.9828 6.16339 12.0608 6.2487C12.0044 6.31021 11.9478 6.37323 11.8914 6.43422ZM24.6997 7.705C24.4157 8.37612 23.9377 8.95213 23.338 9.35729C23.0384 9.55995 22.7089 9.71987 22.358 9.82921C22.007 9.93854 21.6346 9.99766 21.2449 9.99766C20.6681 9.99691 20.1344 9.88077 19.5952 9.66113C19.1248 9.46887 18.6529 9.194 18.1778 8.84744C17.3459 8.24232 16.5108 7.41703 15.6668 6.50426C15.5891 6.4203 15.5108 6.33371 15.4328 6.24848C15.4892 6.18674 15.5459 6.12372 15.6022 6.06281C16.0778 5.54727 16.5492 5.05754 17.0196 4.61855C17.725 3.95903 18.4278 3.41789 19.1238 3.05569C19.4721 2.87399 19.8183 2.73562 20.168 2.64222C20.5181 2.5489 20.8719 2.49966 21.245 2.49951C21.7644 2.49966 22.2537 2.60451 22.7014 2.79391C23.3726 3.07792 23.9486 3.55596 24.3537 4.15562C24.5564 4.45534 24.7163 4.78469 24.8257 5.13552C24.935 5.4865 24.9941 5.85888 24.9941 6.24855C24.994 6.76791 24.8892 7.25718 24.6997 7.705Z" fill="#8686A2"/>
</svg>
