<svg width="72" height="72" viewBox="0 0 72 72" fill="none" xmlns="http://www.w3.org/2000/svg">
<path d="M30.273 24.477C32.909 27.1131 32.909 31.3869 30.273 34.023C27.6369 36.659 23.3631 36.659 20.727 34.023C18.091 31.3869 18.091 27.1131 20.727 24.477C23.3631 21.841 27.6369 21.841 30.273 24.477Z" stroke="#2727E6" stroke-width="2" stroke-linecap="round" stroke-linejoin="round"/>
<path d="M6 55.5V16.623C6 13.242 8.742 10.5 12.123 10.5H60C63.315 10.5 66 13.185 66 16.5V55.5C66 58.815 63.315 61.5 60 61.5H12C8.685 61.5 6 58.815 6 55.5Z" stroke="#2727E6" stroke-width="2" stroke-linecap="round" stroke-linejoin="round"/>
<path d="M45 28.5H57" stroke="#2727E6" stroke-width="2" stroke-linecap="round" stroke-linejoin="round"/>
<path d="M52.2 40.5H45" stroke="#2727E6" stroke-width="2" stroke-linecap="round" stroke-linejoin="round"/>
<path d="M36.2836 49.5C35.7586 48.183 34.9486 47.001 33.9076 46.038C32.1466 44.406 29.8366 43.5 27.4366 43.5H23.5606C21.1606 43.5 18.8506 44.406 17.0896 46.038C16.0486 47.001 15.2386 48.183 14.7136 49.5" stroke="#2727E6" stroke-width="2" stroke-linecap="round" stroke-linejoin="round"/>
</svg>
