<svg width="72" height="72" viewBox="0 0 72 72" fill="none" xmlns="http://www.w3.org/2000/svg">
<path d="M38.82 35.3381L17.61 56.5481" stroke="#1F1FDE" stroke-width="2" stroke-linecap="round" stroke-linejoin="round"/>
<path d="M19.8989 41.155L9.50986 38.701C8.36686 38.431 7.96486 37.012 8.79286 36.181L17.0549 27.919C17.6099 27.364 18.3629 27.046 19.1519 27.04L28.4669 26.959" stroke="#1F1FDE" stroke-width="2" stroke-linecap="round" stroke-linejoin="round"/>
<path d="M59.6368 29.0831L62.0608 17.4191C62.7208 14.2451 59.9128 11.4371 56.7388 12.0971L45.0748 14.5211C41.6398 15.2351 38.4898 16.9361 36.0118 19.4171L26.4418 28.9841C22.7908 32.6351 20.4148 37.3691 19.6648 42.4781L19.6318 42.6971C19.1578 45.9581 20.2498 49.2491 22.5778 51.5801C24.9058 53.9081 28.1998 55.0001 31.4608 54.5231L31.6798 54.4901C36.7888 53.7431 41.5228 51.3641 45.1738 47.7131L54.7408 38.1461C57.2218 35.6681 58.9228 32.5181 59.6368 29.0831V29.0831Z" stroke="#1F1FDE" stroke-width="2" stroke-linecap="round" stroke-linejoin="round"/>
<path d="M40.2001 16.3C47.1331 21.028 53.1301 27.025 57.8581 33.958" stroke="#1F1FDE" stroke-width="2" stroke-linecap="round" stroke-linejoin="round"/>
<path d="M33 54.259L35.454 64.648C35.724 65.791 37.143 66.193 37.974 65.365L46.236 57.103C46.791 56.548 47.109 55.795 47.115 55.006L47.196 45.691" stroke="#1F1FDE" stroke-width="2" stroke-linecap="round" stroke-linejoin="round"/>
</svg>
