<svg width="72" height="72" viewBox="0 0 72 72" fill="none" xmlns="http://www.w3.org/2000/svg">
<path d="M60 46.5H54C50.685 46.5 48 43.815 48 40.5C48 37.185 50.685 34.5 54 34.5H60C61.656 34.5 63 35.844 63 37.5V43.5C63 45.156 61.656 46.5 60 46.5Z" stroke="#1F1FDE" stroke-width="2" stroke-linecap="round" stroke-linejoin="round"/>
<path d="M60 34.5V25.5C60 22.185 57.315 19.5 54 19.5H13.5C11.016 19.5 9 17.484 9 15C9 12.516 11.016 10.5 13.5 10.5H51" stroke="#1F1FDE" stroke-width="2" stroke-linecap="round" stroke-linejoin="round"/>
<path d="M60 46.5V55.5C60 58.815 57.315 61.5 54 61.5H15C11.685 61.5 9 58.815 9 55.5V15" stroke="#1F1FDE" stroke-width="2" stroke-linecap="round" stroke-linejoin="round"/>
</svg>
